<svg xmlns="http://www.w3.org/2000/svg" xmlns:xlink="http://www.w3.org/1999/xlink" width="350" zoomAndPan="magnify" viewBox="0 0 262.5 74.999997" height="100" preserveAspectRatio="xMidYMid meet" version="1.0"><defs><g/><clipPath id="0a5dd69f8b"><path d="M 29 41.59375 L 103.839844 41.59375 L 103.839844 46.84375 L 29 46.84375 Z M 29 41.59375 " clip-rule="nonzero"/></clipPath></defs><g fill="#b93229" fill-opacity="0.4"><g transform="translate(29.475112, 33.70603)"><g><path d="M 9.203125 -1.515625 L 0.609375 -5.328125 L 0.609375 -6.796875 L 9.203125 -11.09375 L 9.203125 -8.5625 L 3.9375 -6.15625 L 9.203125 -4.015625 Z M 9.203125 -1.515625 "/></g></g></g><g fill="#b93229" fill-opacity="0.4"><g transform="translate(39.325124, 33.70603)"><g><path d="M 10.203125 0 L 0.515625 0 L 0.515625 -2.078125 L 5.890625 -9.71875 L 0.640625 -9.71875 L 0.640625 -12.421875 L 10.0625 -12.421875 L 10.0625 -10.359375 L 4.6875 -2.71875 L 10.203125 -2.71875 Z M 10.203125 0 "/></g></g></g><g fill="#b93229" fill-opacity="0.4"><g transform="translate(49.957019, 33.70603)"><g><path d="M 14.921875 -6.421875 C 14.921875 -5.628906 14.78125 -4.882812 14.5 -4.1875 C 14.226562 -3.5 13.847656 -2.957031 13.359375 -2.5625 C 12.867188 -2.175781 12.3125 -1.984375 11.6875 -1.984375 C 11.238281 -1.984375 10.832031 -2.070312 10.46875 -2.25 C 10.113281 -2.425781 9.832031 -2.671875 9.625 -2.984375 L 9.5 -2.984375 C 8.894531 -2.316406 8.160156 -1.984375 7.296875 -1.984375 C 6.253906 -1.984375 5.457031 -2.285156 4.90625 -2.890625 C 4.351562 -3.492188 4.078125 -4.34375 4.078125 -5.4375 C 4.078125 -6.226562 4.25 -6.929688 4.59375 -7.546875 C 4.945312 -8.160156 5.453125 -8.632812 6.109375 -8.96875 C 6.773438 -9.300781 7.546875 -9.46875 8.421875 -9.46875 C 8.878906 -9.46875 9.382812 -9.421875 9.9375 -9.328125 C 10.488281 -9.234375 10.992188 -9.109375 11.453125 -8.953125 L 11.28125 -5.359375 L 11.265625 -4.5625 C 11.265625 -4.070312 11.398438 -3.828125 11.671875 -3.828125 C 11.972656 -3.828125 12.210938 -4.070312 12.390625 -4.5625 C 12.578125 -5.0625 12.671875 -5.6875 12.671875 -6.4375 C 12.671875 -7.789062 12.285156 -8.835938 11.515625 -9.578125 C 10.753906 -10.316406 9.671875 -10.6875 8.265625 -10.6875 C 7.191406 -10.6875 6.253906 -10.460938 5.453125 -10.015625 C 4.660156 -9.566406 4.054688 -8.921875 3.640625 -8.078125 C 3.222656 -7.242188 3.015625 -6.269531 3.015625 -5.15625 C 3.015625 -3.707031 3.414062 -2.585938 4.21875 -1.796875 C 5.03125 -1.015625 6.171875 -0.625 7.640625 -0.625 C 8.296875 -0.625 9.003906 -0.691406 9.765625 -0.828125 C 10.523438 -0.972656 11.273438 -1.175781 12.015625 -1.4375 L 12.015625 0.5 C 10.742188 1.039062 9.328125 1.3125 7.765625 1.3125 C 5.566406 1.3125 3.835938 0.738281 2.578125 -0.40625 C 1.328125 -1.5625 0.703125 -3.15625 0.703125 -5.1875 C 0.703125 -6.613281 1.023438 -7.894531 1.671875 -9.03125 C 2.316406 -10.175781 3.207031 -11.054688 4.34375 -11.671875 C 5.488281 -12.285156 6.785156 -12.59375 8.234375 -12.59375 C 9.554688 -12.59375 10.726562 -12.335938 11.75 -11.828125 C 12.769531 -11.328125 13.550781 -10.609375 14.09375 -9.671875 C 14.644531 -8.742188 14.921875 -7.660156 14.921875 -6.421875 Z M 6.453125 -5.453125 C 6.453125 -4.878906 6.554688 -4.460938 6.765625 -4.203125 C 6.972656 -3.953125 7.25 -3.828125 7.59375 -3.828125 C 8.03125 -3.828125 8.347656 -4.003906 8.546875 -4.359375 C 8.753906 -4.710938 8.890625 -5.335938 8.953125 -6.234375 L 9.03125 -7.5625 C 8.800781 -7.59375 8.609375 -7.609375 8.453125 -7.609375 C 7.835938 -7.609375 7.347656 -7.414062 6.984375 -7.03125 C 6.628906 -6.65625 6.453125 -6.128906 6.453125 -5.453125 Z M 6.453125 -5.453125 "/></g></g></g><g fill="#b93229" fill-opacity="0.4"><g transform="translate(65.569161, 33.70603)"><g><path d="M 8.390625 0 L 0.421875 0 L 0.421875 -1.890625 L 4.40625 -7.09375 L 0.640625 -7.09375 L 0.640625 -9.625 L 8.203125 -9.625 L 8.203125 -7.578125 L 4.390625 -2.546875 L 8.390625 -2.546875 Z M 8.390625 0 "/></g></g></g><g fill="#b93229" fill-opacity="0.4"><g transform="translate(74.390829, 33.70603)"><g><path d="M 7.421875 0 L 6.796875 -1.28125 L 6.71875 -1.28125 C 6.269531 -0.71875 5.8125 -0.332031 5.34375 -0.125 C 4.882812 0.0703125 4.285156 0.171875 3.546875 0.171875 C 2.640625 0.171875 1.925781 -0.0976562 1.40625 -0.640625 C 0.882812 -1.191406 0.625 -1.957031 0.625 -2.9375 C 0.625 -3.96875 0.976562 -4.734375 1.6875 -5.234375 C 2.40625 -5.734375 3.441406 -6.015625 4.796875 -6.078125 L 6.40625 -6.125 L 6.40625 -6.265625 C 6.40625 -7.054688 6.015625 -7.453125 5.234375 -7.453125 C 4.535156 -7.453125 3.644531 -7.210938 2.5625 -6.734375 L 1.59375 -8.9375 C 2.71875 -9.507812 4.132812 -9.796875 5.84375 -9.796875 C 7.082031 -9.796875 8.039062 -9.488281 8.71875 -8.875 C 9.394531 -8.269531 9.734375 -7.414062 9.734375 -6.3125 L 9.734375 0 Z M 4.96875 -2.171875 C 5.363281 -2.171875 5.703125 -2.296875 5.984375 -2.546875 C 6.273438 -2.804688 6.421875 -3.140625 6.421875 -3.546875 L 6.421875 -4.296875 L 5.65625 -4.265625 C 4.5625 -4.222656 4.015625 -3.820312 4.015625 -3.0625 C 4.015625 -2.46875 4.332031 -2.171875 4.96875 -2.171875 Z M 4.96875 -2.171875 "/></g></g></g><g fill="#b93229" fill-opacity="0.4"><g transform="translate(85.235192, 33.70603)"><g><path d="M 5.53125 0.171875 C 3.957031 0.171875 2.765625 -0.25 1.953125 -1.09375 C 1.140625 -1.945312 0.734375 -3.171875 0.734375 -4.765625 C 0.734375 -6.367188 1.171875 -7.609375 2.046875 -8.484375 C 2.921875 -9.359375 4.171875 -9.796875 5.796875 -9.796875 C 6.910156 -9.796875 7.960938 -9.550781 8.953125 -9.0625 L 7.96875 -6.609375 C 7.570312 -6.785156 7.203125 -6.925781 6.859375 -7.03125 C 6.515625 -7.132812 6.160156 -7.1875 5.796875 -7.1875 C 5.253906 -7.1875 4.835938 -6.976562 4.546875 -6.5625 C 4.253906 -6.144531 4.109375 -5.550781 4.109375 -4.78125 C 4.109375 -3.238281 4.675781 -2.46875 5.8125 -2.46875 C 6.789062 -2.46875 7.726562 -2.753906 8.625 -3.328125 L 8.625 -0.6875 C 7.757812 -0.113281 6.726562 0.171875 5.53125 0.171875 Z M 5.53125 0.171875 "/></g></g></g><g fill="#b93229" fill-opacity="0.4"><g transform="translate(94.617775, 33.70603)"><g><path d="M 4.484375 0 L 1.171875 0 L 1.171875 -9.625 L 4.484375 -9.625 Z M 1.078125 -12.03125 C 1.078125 -12.53125 1.210938 -12.898438 1.484375 -13.140625 C 1.765625 -13.378906 2.21875 -13.5 2.84375 -13.5 C 3.457031 -13.5 3.90625 -13.375 4.1875 -13.125 C 4.46875 -12.875 4.609375 -12.507812 4.609375 -12.03125 C 4.609375 -11.050781 4.019531 -10.5625 2.84375 -10.5625 C 1.664062 -10.5625 1.078125 -11.050781 1.078125 -12.03125 Z M 1.078125 -12.03125 "/></g></g></g><g fill="#b93229" fill-opacity="0.4"><g transform="translate(100.27792, 33.70603)"><g><path d="M 5.859375 -2.453125 C 6.304688 -2.453125 6.84375 -2.5625 7.46875 -2.78125 L 7.46875 -0.359375 C 7.019531 -0.171875 6.59375 -0.0351562 6.1875 0.046875 C 5.78125 0.128906 5.304688 0.171875 4.765625 0.171875 C 3.648438 0.171875 2.84375 -0.0976562 2.34375 -0.640625 C 1.851562 -1.191406 1.609375 -2.035156 1.609375 -3.171875 L 1.609375 -7.140625 L 0.453125 -7.140625 L 0.453125 -8.484375 L 1.921875 -9.53125 L 2.78125 -11.5625 L 4.96875 -11.5625 L 4.96875 -9.625 L 7.328125 -9.625 L 7.328125 -7.140625 L 4.96875 -7.140625 L 4.96875 -3.390625 C 4.96875 -2.765625 5.265625 -2.453125 5.859375 -2.453125 Z M 5.859375 -2.453125 "/></g></g></g><g fill="#b93229" fill-opacity="0.4"><g transform="translate(108.283711, 33.70603)"><g><path d="M 9.59375 -6.203125 C 9.59375 -3.992188 9.222656 -2.378906 8.484375 -1.359375 C 7.742188 -0.335938 6.613281 0.171875 5.09375 0.171875 C 3.613281 0.171875 2.492188 -0.359375 1.734375 -1.421875 C 0.984375 -2.492188 0.609375 -4.085938 0.609375 -6.203125 C 0.609375 -8.410156 0.976562 -10.03125 1.71875 -11.0625 C 2.457031 -12.09375 3.582031 -12.609375 5.09375 -12.609375 C 6.570312 -12.609375 7.691406 -12.070312 8.453125 -11 C 9.210938 -9.925781 9.59375 -8.328125 9.59375 -6.203125 Z M 3.953125 -6.203125 C 3.953125 -4.796875 4.039062 -3.828125 4.21875 -3.296875 C 4.394531 -2.765625 4.6875 -2.5 5.09375 -2.5 C 5.519531 -2.5 5.816406 -2.769531 5.984375 -3.3125 C 6.160156 -3.863281 6.25 -4.828125 6.25 -6.203125 C 6.25 -7.578125 6.160156 -8.539062 5.984375 -9.09375 C 5.804688 -9.644531 5.507812 -9.921875 5.09375 -9.921875 C 4.6875 -9.921875 4.394531 -9.65625 4.21875 -9.125 C 4.039062 -8.59375 3.953125 -7.617188 3.953125 -6.203125 Z M 3.953125 -6.203125 "/></g></g></g><g fill="#b93229" fill-opacity="0.4"><g transform="translate(118.482171, 33.70603)"><g><path d="M 4.046875 -12.421875 L 3.703125 -7.9375 L 1.375 -7.9375 L 1.03125 -12.421875 Z M 4.046875 -12.421875 "/></g></g></g><g fill="#b93229" fill-opacity="0.4"><g transform="translate(123.564403, 33.70603)"><g><path d="M 8.578125 -2.953125 C 8.578125 -1.921875 8.222656 -1.140625 7.515625 -0.609375 C 6.816406 -0.0859375 5.8125 0.171875 4.5 0.171875 C 3.789062 0.171875 3.171875 0.128906 2.640625 0.046875 C 2.117188 -0.0234375 1.582031 -0.160156 1.03125 -0.359375 L 1.03125 -3.03125 C 1.539062 -2.800781 2.101562 -2.613281 2.71875 -2.46875 C 3.332031 -2.320312 3.882812 -2.25 4.375 -2.25 C 5.09375 -2.25 5.453125 -2.410156 5.453125 -2.734375 C 5.453125 -2.898438 5.347656 -3.050781 5.140625 -3.1875 C 4.941406 -3.320312 4.359375 -3.582031 3.390625 -3.96875 C 2.503906 -4.332031 1.882812 -4.742188 1.53125 -5.203125 C 1.1875 -5.660156 1.015625 -6.242188 1.015625 -6.953125 C 1.015625 -7.847656 1.359375 -8.546875 2.046875 -9.046875 C 2.734375 -9.546875 3.710938 -9.796875 4.984375 -9.796875 C 5.617188 -9.796875 6.210938 -9.726562 6.765625 -9.59375 C 7.328125 -9.457031 7.90625 -9.253906 8.5 -8.984375 L 7.609375 -6.84375 C 7.160156 -7.039062 6.691406 -7.207031 6.203125 -7.34375 C 5.710938 -7.488281 5.3125 -7.5625 5 -7.5625 C 4.457031 -7.5625 4.1875 -7.425781 4.1875 -7.15625 C 4.1875 -6.988281 4.28125 -6.847656 4.46875 -6.734375 C 4.65625 -6.617188 5.203125 -6.382812 6.109375 -6.03125 C 6.785156 -5.75 7.285156 -5.472656 7.609375 -5.203125 C 7.941406 -4.941406 8.1875 -4.628906 8.34375 -4.265625 C 8.5 -3.910156 8.578125 -3.472656 8.578125 -2.953125 Z M 8.578125 -2.953125 "/></g></g></g><g fill="#b93229" fill-opacity="0.4"><g transform="translate(132.845002, 33.70603)"><g/></g></g><g fill="#b93229" fill-opacity="0.4"><g transform="translate(137.366319, 33.70603)"><g><path d="M 12.53125 0 L 8.65625 0 L 6.234375 -3.890625 L 3.828125 0 L 0.03125 0 L 4.15625 -6.359375 L 0.28125 -12.421875 L 4 -12.421875 L 6.25 -8.578125 L 8.40625 -12.421875 L 12.234375 -12.421875 L 8.296875 -6.09375 Z M 12.53125 0 "/></g></g></g><g fill="#b93229" fill-opacity="0.4"><g transform="translate(149.952918, 33.70603)"><g/></g></g><g fill="#b93229" fill-opacity="0.4"><g transform="translate(154.474235, 33.70603)"><g><path d="M 8.71875 0 L 1.34375 0 L 1.34375 -12.421875 L 8.71875 -12.421875 L 8.71875 -9.734375 L 4.703125 -9.734375 L 4.703125 -7.78125 L 8.421875 -7.78125 L 8.421875 -5.078125 L 4.703125 -5.078125 L 4.703125 -2.734375 L 8.71875 -2.734375 Z M 8.71875 0 "/></g></g></g><g fill="#b93229" fill-opacity="0.4"><g transform="translate(164.026793, 33.70603)"><g><path d="M 7.21875 0 L 7.21875 -5.25 C 7.21875 -5.894531 7.125 -6.378906 6.9375 -6.703125 C 6.757812 -7.023438 6.46875 -7.1875 6.0625 -7.1875 C 5.5 -7.1875 5.09375 -6.960938 4.84375 -6.515625 C 4.59375 -6.066406 4.46875 -5.300781 4.46875 -4.21875 L 4.46875 0 L 1.140625 0 L 1.140625 -9.625 L 3.65625 -9.625 L 4.078125 -8.4375 L 4.265625 -8.4375 C 4.546875 -8.894531 4.9375 -9.234375 5.4375 -9.453125 C 5.945312 -9.679688 6.523438 -9.796875 7.171875 -9.796875 C 8.234375 -9.796875 9.0625 -9.488281 9.65625 -8.875 C 10.25 -8.257812 10.546875 -7.390625 10.546875 -6.265625 L 10.546875 0 Z M 7.21875 0 "/></g></g></g><g fill="#b93229" fill-opacity="0.4"><g transform="translate(175.687032, 33.70603)"><g><path d="M 5.859375 -2.453125 C 6.304688 -2.453125 6.84375 -2.5625 7.46875 -2.78125 L 7.46875 -0.359375 C 7.019531 -0.171875 6.59375 -0.0351562 6.1875 0.046875 C 5.78125 0.128906 5.304688 0.171875 4.765625 0.171875 C 3.648438 0.171875 2.84375 -0.0976562 2.34375 -0.640625 C 1.851562 -1.191406 1.609375 -2.035156 1.609375 -3.171875 L 1.609375 -7.140625 L 0.453125 -7.140625 L 0.453125 -8.484375 L 1.921875 -9.53125 L 2.78125 -11.5625 L 4.96875 -11.5625 L 4.96875 -9.625 L 7.328125 -9.625 L 7.328125 -7.140625 L 4.96875 -7.140625 L 4.96875 -3.390625 C 4.96875 -2.765625 5.265625 -2.453125 5.859375 -2.453125 Z M 5.859375 -2.453125 "/></g></g></g><g fill="#b93229" fill-opacity="0.4"><g transform="translate(183.692823, 33.70603)"><g><path d="M 7.421875 0 L 6.796875 -1.28125 L 6.71875 -1.28125 C 6.269531 -0.71875 5.8125 -0.332031 5.34375 -0.125 C 4.882812 0.0703125 4.285156 0.171875 3.546875 0.171875 C 2.640625 0.171875 1.925781 -0.0976562 1.40625 -0.640625 C 0.882812 -1.191406 0.625 -1.957031 0.625 -2.9375 C 0.625 -3.96875 0.976562 -4.734375 1.6875 -5.234375 C 2.40625 -5.734375 3.441406 -6.015625 4.796875 -6.078125 L 6.40625 -6.125 L 6.40625 -6.265625 C 6.40625 -7.054688 6.015625 -7.453125 5.234375 -7.453125 C 4.535156 -7.453125 3.644531 -7.210938 2.5625 -6.734375 L 1.59375 -8.9375 C 2.71875 -9.507812 4.132812 -9.796875 5.84375 -9.796875 C 7.082031 -9.796875 8.039062 -9.488281 8.71875 -8.875 C 9.394531 -8.269531 9.734375 -7.414062 9.734375 -6.3125 L 9.734375 0 Z M 4.96875 -2.171875 C 5.363281 -2.171875 5.703125 -2.296875 5.984375 -2.546875 C 6.273438 -2.804688 6.421875 -3.140625 6.421875 -3.546875 L 6.421875 -4.296875 L 5.65625 -4.265625 C 4.5625 -4.222656 4.015625 -3.820312 4.015625 -3.0625 C 4.015625 -2.46875 4.332031 -2.171875 4.96875 -2.171875 Z M 4.96875 -2.171875 "/></g></g></g><g fill="#b93229" fill-opacity="0.4"><g transform="translate(194.537186, 33.70603)"><g><path d="M 4.46875 0 L 1.140625 0 L 1.140625 -13.21875 L 4.46875 -13.21875 Z M 4.46875 0 "/></g></g></g><g fill="#b93229" fill-opacity="0.4"><g transform="translate(200.163336, 33.70603)"><g><path d="M 6.921875 0.171875 C 6.441406 0.171875 6.007812 0.09375 5.625 -0.0625 C 5.238281 -0.226562 4.851562 -0.519531 4.46875 -0.9375 L 4.3125 -0.9375 C 4.414062 -0.269531 4.46875 0.144531 4.46875 0.3125 L 4.46875 4.1875 L 1.140625 4.1875 L 1.140625 -9.625 L 3.84375 -9.625 L 4.3125 -8.40625 L 4.46875 -8.40625 C 5.082031 -9.332031 5.9375 -9.796875 7.03125 -9.796875 C 8.09375 -9.796875 8.925781 -9.351562 9.53125 -8.46875 C 10.144531 -7.582031 10.453125 -6.375 10.453125 -4.84375 C 10.453125 -3.28125 10.132812 -2.050781 9.5 -1.15625 C 8.863281 -0.269531 8.003906 0.171875 6.921875 0.171875 Z M 5.8125 -7.1875 C 5.320312 -7.1875 4.976562 -7.007812 4.78125 -6.65625 C 4.59375 -6.3125 4.488281 -5.796875 4.46875 -5.109375 L 4.46875 -4.859375 C 4.46875 -4.023438 4.578125 -3.421875 4.796875 -3.046875 C 5.023438 -2.679688 5.375 -2.5 5.84375 -2.5 C 6.269531 -2.5 6.578125 -2.679688 6.765625 -3.046875 C 6.960938 -3.421875 7.0625 -4.03125 7.0625 -4.875 C 7.0625 -5.695312 6.960938 -6.285156 6.765625 -6.640625 C 6.578125 -7.003906 6.257812 -7.1875 5.8125 -7.1875 Z M 5.8125 -7.1875 "/></g></g></g><g fill="#b93229" fill-opacity="0.4"><g transform="translate(211.356146, 33.70603)"><g><path d="M 4.484375 0 L 1.171875 0 L 1.171875 -9.625 L 4.484375 -9.625 Z M 1.078125 -12.03125 C 1.078125 -12.53125 1.210938 -12.898438 1.484375 -13.140625 C 1.765625 -13.378906 2.21875 -13.5 2.84375 -13.5 C 3.457031 -13.5 3.90625 -13.375 4.1875 -13.125 C 4.46875 -12.875 4.609375 -12.507812 4.609375 -12.03125 C 4.609375 -11.050781 4.019531 -10.5625 2.84375 -10.5625 C 1.664062 -10.5625 1.078125 -11.050781 1.078125 -12.03125 Z M 1.078125 -12.03125 "/></g></g></g><g fill="#b93229" fill-opacity="0.4"><g transform="translate(217.016291, 33.70603)"><g><path d="M 7.65625 -12.609375 L 3.03125 0.171875 L 0.078125 0.171875 L 4.71875 -12.609375 Z M 7.65625 -12.609375 "/></g></g></g><g fill="#b93229" fill-opacity="0.4"><g transform="translate(224.70763, 33.70603)"><g><path d="M 0.609375 -4.015625 L 5.875 -6.15625 L 0.609375 -8.5625 L 0.609375 -11.09375 L 9.203125 -6.796875 L 9.203125 -5.328125 L 0.609375 -1.515625 Z M 0.609375 -4.015625 "/></g></g></g><g fill="#ffffff" fill-opacity="1"><g transform="translate(28.70571, 32.936629)"><g><path d="M 9.203125 -1.515625 L 0.609375 -5.328125 L 0.609375 -6.796875 L 9.203125 -11.09375 L 9.203125 -8.5625 L 3.9375 -6.15625 L 9.203125 -4.015625 Z M 9.203125 -1.515625 "/></g></g></g><g fill="#ffffff" fill-opacity="1"><g transform="translate(38.555723, 32.936629)"><g><path d="M 10.203125 0 L 0.515625 0 L 0.515625 -2.078125 L 5.890625 -9.71875 L 0.640625 -9.71875 L 0.640625 -12.421875 L 10.0625 -12.421875 L 10.0625 -10.359375 L 4.6875 -2.71875 L 10.203125 -2.71875 Z M 10.203125 0 "/></g></g></g><g fill="#ffffff" fill-opacity="1"><g transform="translate(49.187617, 32.936629)"><g><path d="M 14.921875 -6.421875 C 14.921875 -5.628906 14.78125 -4.882812 14.5 -4.1875 C 14.226562 -3.5 13.847656 -2.957031 13.359375 -2.5625 C 12.867188 -2.175781 12.3125 -1.984375 11.6875 -1.984375 C 11.238281 -1.984375 10.832031 -2.070312 10.46875 -2.25 C 10.113281 -2.425781 9.832031 -2.671875 9.625 -2.984375 L 9.5 -2.984375 C 8.894531 -2.316406 8.160156 -1.984375 7.296875 -1.984375 C 6.253906 -1.984375 5.457031 -2.285156 4.90625 -2.890625 C 4.351562 -3.492188 4.078125 -4.34375 4.078125 -5.4375 C 4.078125 -6.226562 4.25 -6.929688 4.59375 -7.546875 C 4.945312 -8.160156 5.453125 -8.632812 6.109375 -8.96875 C 6.773438 -9.300781 7.546875 -9.46875 8.421875 -9.46875 C 8.878906 -9.46875 9.382812 -9.421875 9.9375 -9.328125 C 10.488281 -9.234375 10.992188 -9.109375 11.453125 -8.953125 L 11.28125 -5.359375 L 11.265625 -4.5625 C 11.265625 -4.070312 11.398438 -3.828125 11.671875 -3.828125 C 11.972656 -3.828125 12.210938 -4.070312 12.390625 -4.5625 C 12.578125 -5.0625 12.671875 -5.6875 12.671875 -6.4375 C 12.671875 -7.789062 12.285156 -8.835938 11.515625 -9.578125 C 10.753906 -10.316406 9.671875 -10.6875 8.265625 -10.6875 C 7.191406 -10.6875 6.253906 -10.460938 5.453125 -10.015625 C 4.660156 -9.566406 4.054688 -8.921875 3.640625 -8.078125 C 3.222656 -7.242188 3.015625 -6.269531 3.015625 -5.15625 C 3.015625 -3.707031 3.414062 -2.585938 4.21875 -1.796875 C 5.03125 -1.015625 6.171875 -0.625 7.640625 -0.625 C 8.296875 -0.625 9.003906 -0.691406 9.765625 -0.828125 C 10.523438 -0.972656 11.273438 -1.175781 12.015625 -1.4375 L 12.015625 0.5 C 10.742188 1.039062 9.328125 1.3125 7.765625 1.3125 C 5.566406 1.3125 3.835938 0.738281 2.578125 -0.40625 C 1.328125 -1.5625 0.703125 -3.15625 0.703125 -5.1875 C 0.703125 -6.613281 1.023438 -7.894531 1.671875 -9.03125 C 2.316406 -10.175781 3.207031 -11.054688 4.34375 -11.671875 C 5.488281 -12.285156 6.785156 -12.59375 8.234375 -12.59375 C 9.554688 -12.59375 10.726562 -12.335938 11.75 -11.828125 C 12.769531 -11.328125 13.550781 -10.609375 14.09375 -9.671875 C 14.644531 -8.742188 14.921875 -7.660156 14.921875 -6.421875 Z M 6.453125 -5.453125 C 6.453125 -4.878906 6.554688 -4.460938 6.765625 -4.203125 C 6.972656 -3.953125 7.25 -3.828125 7.59375 -3.828125 C 8.03125 -3.828125 8.347656 -4.003906 8.546875 -4.359375 C 8.753906 -4.710938 8.890625 -5.335938 8.953125 -6.234375 L 9.03125 -7.5625 C 8.800781 -7.59375 8.609375 -7.609375 8.453125 -7.609375 C 7.835938 -7.609375 7.347656 -7.414062 6.984375 -7.03125 C 6.628906 -6.65625 6.453125 -6.128906 6.453125 -5.453125 Z M 6.453125 -5.453125 "/></g></g></g><g fill="#ffffff" fill-opacity="1"><g transform="translate(64.79976, 32.936629)"><g><path d="M 8.390625 0 L 0.421875 0 L 0.421875 -1.890625 L 4.40625 -7.09375 L 0.640625 -7.09375 L 0.640625 -9.625 L 8.203125 -9.625 L 8.203125 -7.578125 L 4.390625 -2.546875 L 8.390625 -2.546875 Z M 8.390625 0 "/></g></g></g><g fill="#ffffff" fill-opacity="1"><g transform="translate(73.621428, 32.936629)"><g><path d="M 7.421875 0 L 6.796875 -1.28125 L 6.71875 -1.28125 C 6.269531 -0.71875 5.8125 -0.332031 5.34375 -0.125 C 4.882812 0.0703125 4.285156 0.171875 3.546875 0.171875 C 2.640625 0.171875 1.925781 -0.0976562 1.40625 -0.640625 C 0.882812 -1.191406 0.625 -1.957031 0.625 -2.9375 C 0.625 -3.96875 0.976562 -4.734375 1.6875 -5.234375 C 2.40625 -5.734375 3.441406 -6.015625 4.796875 -6.078125 L 6.40625 -6.125 L 6.40625 -6.265625 C 6.40625 -7.054688 6.015625 -7.453125 5.234375 -7.453125 C 4.535156 -7.453125 3.644531 -7.210938 2.5625 -6.734375 L 1.59375 -8.9375 C 2.71875 -9.507812 4.132812 -9.796875 5.84375 -9.796875 C 7.082031 -9.796875 8.039062 -9.488281 8.71875 -8.875 C 9.394531 -8.269531 9.734375 -7.414062 9.734375 -6.3125 L 9.734375 0 Z M 4.96875 -2.171875 C 5.363281 -2.171875 5.703125 -2.296875 5.984375 -2.546875 C 6.273438 -2.804688 6.421875 -3.140625 6.421875 -3.546875 L 6.421875 -4.296875 L 5.65625 -4.265625 C 4.5625 -4.222656 4.015625 -3.820312 4.015625 -3.0625 C 4.015625 -2.46875 4.332031 -2.171875 4.96875 -2.171875 Z M 4.96875 -2.171875 "/></g></g></g><g fill="#ffffff" fill-opacity="1"><g transform="translate(84.46579, 32.936629)"><g><path d="M 5.53125 0.171875 C 3.957031 0.171875 2.765625 -0.25 1.953125 -1.09375 C 1.140625 -1.945312 0.734375 -3.171875 0.734375 -4.765625 C 0.734375 -6.367188 1.171875 -7.609375 2.046875 -8.484375 C 2.921875 -9.359375 4.171875 -9.796875 5.796875 -9.796875 C 6.910156 -9.796875 7.960938 -9.550781 8.953125 -9.0625 L 7.96875 -6.609375 C 7.570312 -6.785156 7.203125 -6.925781 6.859375 -7.03125 C 6.515625 -7.132812 6.160156 -7.1875 5.796875 -7.1875 C 5.253906 -7.1875 4.835938 -6.976562 4.546875 -6.5625 C 4.253906 -6.144531 4.109375 -5.550781 4.109375 -4.78125 C 4.109375 -3.238281 4.675781 -2.46875 5.8125 -2.46875 C 6.789062 -2.46875 7.726562 -2.753906 8.625 -3.328125 L 8.625 -0.6875 C 7.757812 -0.113281 6.726562 0.171875 5.53125 0.171875 Z M 5.53125 0.171875 "/></g></g></g><g fill="#ffffff" fill-opacity="1"><g transform="translate(93.848373, 32.936629)"><g><path d="M 4.484375 0 L 1.171875 0 L 1.171875 -9.625 L 4.484375 -9.625 Z M 1.078125 -12.03125 C 1.078125 -12.53125 1.210938 -12.898438 1.484375 -13.140625 C 1.765625 -13.378906 2.21875 -13.5 2.84375 -13.5 C 3.457031 -13.5 3.90625 -13.375 4.1875 -13.125 C 4.46875 -12.875 4.609375 -12.507812 4.609375 -12.03125 C 4.609375 -11.050781 4.019531 -10.5625 2.84375 -10.5625 C 1.664062 -10.5625 1.078125 -11.050781 1.078125 -12.03125 Z M 1.078125 -12.03125 "/></g></g></g><g fill="#ffffff" fill-opacity="1"><g transform="translate(99.508519, 32.936629)"><g><path d="M 5.859375 -2.453125 C 6.304688 -2.453125 6.84375 -2.5625 7.46875 -2.78125 L 7.46875 -0.359375 C 7.019531 -0.171875 6.59375 -0.0351562 6.1875 0.046875 C 5.78125 0.128906 5.304688 0.171875 4.765625 0.171875 C 3.648438 0.171875 2.84375 -0.0976562 2.34375 -0.640625 C 1.851562 -1.191406 1.609375 -2.035156 1.609375 -3.171875 L 1.609375 -7.140625 L 0.453125 -7.140625 L 0.453125 -8.484375 L 1.921875 -9.53125 L 2.78125 -11.5625 L 4.96875 -11.5625 L 4.96875 -9.625 L 7.328125 -9.625 L 7.328125 -7.140625 L 4.96875 -7.140625 L 4.96875 -3.390625 C 4.96875 -2.765625 5.265625 -2.453125 5.859375 -2.453125 Z M 5.859375 -2.453125 "/></g></g></g><g fill="#ffffff" fill-opacity="1"><g transform="translate(107.51431, 32.936629)"><g><path d="M 9.59375 -6.203125 C 9.59375 -3.992188 9.222656 -2.378906 8.484375 -1.359375 C 7.742188 -0.335938 6.613281 0.171875 5.09375 0.171875 C 3.613281 0.171875 2.492188 -0.359375 1.734375 -1.421875 C 0.984375 -2.492188 0.609375 -4.085938 0.609375 -6.203125 C 0.609375 -8.410156 0.976562 -10.03125 1.71875 -11.0625 C 2.457031 -12.09375 3.582031 -12.609375 5.09375 -12.609375 C 6.570312 -12.609375 7.691406 -12.070312 8.453125 -11 C 9.210938 -9.925781 9.59375 -8.328125 9.59375 -6.203125 Z M 3.953125 -6.203125 C 3.953125 -4.796875 4.039062 -3.828125 4.21875 -3.296875 C 4.394531 -2.765625 4.6875 -2.5 5.09375 -2.5 C 5.519531 -2.5 5.816406 -2.769531 5.984375 -3.3125 C 6.160156 -3.863281 6.25 -4.828125 6.25 -6.203125 C 6.25 -7.578125 6.160156 -8.539062 5.984375 -9.09375 C 5.804688 -9.644531 5.507812 -9.921875 5.09375 -9.921875 C 4.6875 -9.921875 4.394531 -9.65625 4.21875 -9.125 C 4.039062 -8.59375 3.953125 -7.617188 3.953125 -6.203125 Z M 3.953125 -6.203125 "/></g></g></g><g fill="#ffffff" fill-opacity="1"><g transform="translate(117.71277, 32.936629)"><g><path d="M 4.046875 -12.421875 L 3.703125 -7.9375 L 1.375 -7.9375 L 1.03125 -12.421875 Z M 4.046875 -12.421875 "/></g></g></g><g fill="#ffffff" fill-opacity="1"><g transform="translate(122.795002, 32.936629)"><g><path d="M 8.578125 -2.953125 C 8.578125 -1.921875 8.222656 -1.140625 7.515625 -0.609375 C 6.816406 -0.0859375 5.8125 0.171875 4.5 0.171875 C 3.789062 0.171875 3.171875 0.128906 2.640625 0.046875 C 2.117188 -0.0234375 1.582031 -0.160156 1.03125 -0.359375 L 1.03125 -3.03125 C 1.539062 -2.800781 2.101562 -2.613281 2.71875 -2.46875 C 3.332031 -2.320312 3.882812 -2.25 4.375 -2.25 C 5.09375 -2.25 5.453125 -2.410156 5.453125 -2.734375 C 5.453125 -2.898438 5.347656 -3.050781 5.140625 -3.1875 C 4.941406 -3.320312 4.359375 -3.582031 3.390625 -3.96875 C 2.503906 -4.332031 1.882812 -4.742188 1.53125 -5.203125 C 1.1875 -5.660156 1.015625 -6.242188 1.015625 -6.953125 C 1.015625 -7.847656 1.359375 -8.546875 2.046875 -9.046875 C 2.734375 -9.546875 3.710938 -9.796875 4.984375 -9.796875 C 5.617188 -9.796875 6.210938 -9.726562 6.765625 -9.59375 C 7.328125 -9.457031 7.90625 -9.253906 8.5 -8.984375 L 7.609375 -6.84375 C 7.160156 -7.039062 6.691406 -7.207031 6.203125 -7.34375 C 5.710938 -7.488281 5.3125 -7.5625 5 -7.5625 C 4.457031 -7.5625 4.1875 -7.425781 4.1875 -7.15625 C 4.1875 -6.988281 4.28125 -6.847656 4.46875 -6.734375 C 4.65625 -6.617188 5.203125 -6.382812 6.109375 -6.03125 C 6.785156 -5.75 7.285156 -5.472656 7.609375 -5.203125 C 7.941406 -4.941406 8.1875 -4.628906 8.34375 -4.265625 C 8.5 -3.910156 8.578125 -3.472656 8.578125 -2.953125 Z M 8.578125 -2.953125 "/></g></g></g><g fill="#ffffff" fill-opacity="1"><g transform="translate(132.075601, 32.936629)"><g/></g></g><g fill="#ffffff" fill-opacity="1"><g transform="translate(136.596918, 32.936629)"><g><path d="M 12.53125 0 L 8.65625 0 L 6.234375 -3.890625 L 3.828125 0 L 0.03125 0 L 4.15625 -6.359375 L 0.28125 -12.421875 L 4 -12.421875 L 6.25 -8.578125 L 8.40625 -12.421875 L 12.234375 -12.421875 L 8.296875 -6.09375 Z M 12.53125 0 "/></g></g></g><g fill="#ffffff" fill-opacity="1"><g transform="translate(149.183517, 32.936629)"><g/></g></g><g fill="#ffffff" fill-opacity="1"><g transform="translate(153.704834, 32.936629)"><g><path d="M 8.71875 0 L 1.34375 0 L 1.34375 -12.421875 L 8.71875 -12.421875 L 8.71875 -9.734375 L 4.703125 -9.734375 L 4.703125 -7.78125 L 8.421875 -7.78125 L 8.421875 -5.078125 L 4.703125 -5.078125 L 4.703125 -2.734375 L 8.71875 -2.734375 Z M 8.71875 0 "/></g></g></g><g fill="#ffffff" fill-opacity="1"><g transform="translate(163.257392, 32.936629)"><g><path d="M 7.21875 0 L 7.21875 -5.25 C 7.21875 -5.894531 7.125 -6.378906 6.9375 -6.703125 C 6.757812 -7.023438 6.46875 -7.1875 6.0625 -7.1875 C 5.5 -7.1875 5.09375 -6.960938 4.84375 -6.515625 C 4.59375 -6.066406 4.46875 -5.300781 4.46875 -4.21875 L 4.46875 0 L 1.140625 0 L 1.140625 -9.625 L 3.65625 -9.625 L 4.078125 -8.4375 L 4.265625 -8.4375 C 4.546875 -8.894531 4.9375 -9.234375 5.4375 -9.453125 C 5.945312 -9.679688 6.523438 -9.796875 7.171875 -9.796875 C 8.234375 -9.796875 9.0625 -9.488281 9.65625 -8.875 C 10.25 -8.257812 10.546875 -7.390625 10.546875 -6.265625 L 10.546875 0 Z M 7.21875 0 "/></g></g></g><g fill="#ffffff" fill-opacity="1"><g transform="translate(174.917631, 32.936629)"><g><path d="M 5.859375 -2.453125 C 6.304688 -2.453125 6.84375 -2.5625 7.46875 -2.78125 L 7.46875 -0.359375 C 7.019531 -0.171875 6.59375 -0.0351562 6.1875 0.046875 C 5.78125 0.128906 5.304688 0.171875 4.765625 0.171875 C 3.648438 0.171875 2.84375 -0.0976562 2.34375 -0.640625 C 1.851562 -1.191406 1.609375 -2.035156 1.609375 -3.171875 L 1.609375 -7.140625 L 0.453125 -7.140625 L 0.453125 -8.484375 L 1.921875 -9.53125 L 2.78125 -11.5625 L 4.96875 -11.5625 L 4.96875 -9.625 L 7.328125 -9.625 L 7.328125 -7.140625 L 4.96875 -7.140625 L 4.96875 -3.390625 C 4.96875 -2.765625 5.265625 -2.453125 5.859375 -2.453125 Z M 5.859375 -2.453125 "/></g></g></g><g fill="#ffffff" fill-opacity="1"><g transform="translate(182.923422, 32.936629)"><g><path d="M 7.421875 0 L 6.796875 -1.28125 L 6.71875 -1.28125 C 6.269531 -0.71875 5.8125 -0.332031 5.34375 -0.125 C 4.882812 0.0703125 4.285156 0.171875 3.546875 0.171875 C 2.640625 0.171875 1.925781 -0.0976562 1.40625 -0.640625 C 0.882812 -1.191406 0.625 -1.957031 0.625 -2.9375 C 0.625 -3.96875 0.976562 -4.734375 1.6875 -5.234375 C 2.40625 -5.734375 3.441406 -6.015625 4.796875 -6.078125 L 6.40625 -6.125 L 6.40625 -6.265625 C 6.40625 -7.054688 6.015625 -7.453125 5.234375 -7.453125 C 4.535156 -7.453125 3.644531 -7.210938 2.5625 -6.734375 L 1.59375 -8.9375 C 2.71875 -9.507812 4.132812 -9.796875 5.84375 -9.796875 C 7.082031 -9.796875 8.039062 -9.488281 8.71875 -8.875 C 9.394531 -8.269531 9.734375 -7.414062 9.734375 -6.3125 L 9.734375 0 Z M 4.96875 -2.171875 C 5.363281 -2.171875 5.703125 -2.296875 5.984375 -2.546875 C 6.273438 -2.804688 6.421875 -3.140625 6.421875 -3.546875 L 6.421875 -4.296875 L 5.65625 -4.265625 C 4.5625 -4.222656 4.015625 -3.820312 4.015625 -3.0625 C 4.015625 -2.46875 4.332031 -2.171875 4.96875 -2.171875 Z M 4.96875 -2.171875 "/></g></g></g><g fill="#ffffff" fill-opacity="1"><g transform="translate(193.767785, 32.936629)"><g><path d="M 4.46875 0 L 1.140625 0 L 1.140625 -13.21875 L 4.46875 -13.21875 Z M 4.46875 0 "/></g></g></g><g fill="#ffffff" fill-opacity="1"><g transform="translate(199.393935, 32.936629)"><g><path d="M 6.921875 0.171875 C 6.441406 0.171875 6.007812 0.09375 5.625 -0.0625 C 5.238281 -0.226562 4.851562 -0.519531 4.46875 -0.9375 L 4.3125 -0.9375 C 4.414062 -0.269531 4.46875 0.144531 4.46875 0.3125 L 4.46875 4.1875 L 1.140625 4.1875 L 1.140625 -9.625 L 3.84375 -9.625 L 4.3125 -8.40625 L 4.46875 -8.40625 C 5.082031 -9.332031 5.9375 -9.796875 7.03125 -9.796875 C 8.09375 -9.796875 8.925781 -9.351562 9.53125 -8.46875 C 10.144531 -7.582031 10.453125 -6.375 10.453125 -4.84375 C 10.453125 -3.28125 10.132812 -2.050781 9.5 -1.15625 C 8.863281 -0.269531 8.003906 0.171875 6.921875 0.171875 Z M 5.8125 -7.1875 C 5.320312 -7.1875 4.976562 -7.007812 4.78125 -6.65625 C 4.59375 -6.3125 4.488281 -5.796875 4.46875 -5.109375 L 4.46875 -4.859375 C 4.46875 -4.023438 4.578125 -3.421875 4.796875 -3.046875 C 5.023438 -2.679688 5.375 -2.5 5.84375 -2.5 C 6.269531 -2.5 6.578125 -2.679688 6.765625 -3.046875 C 6.960938 -3.421875 7.0625 -4.03125 7.0625 -4.875 C 7.0625 -5.695312 6.960938 -6.285156 6.765625 -6.640625 C 6.578125 -7.003906 6.257812 -7.1875 5.8125 -7.1875 Z M 5.8125 -7.1875 "/></g></g></g><g fill="#ffffff" fill-opacity="1"><g transform="translate(210.586745, 32.936629)"><g><path d="M 4.484375 0 L 1.171875 0 L 1.171875 -9.625 L 4.484375 -9.625 Z M 1.078125 -12.03125 C 1.078125 -12.53125 1.210938 -12.898438 1.484375 -13.140625 C 1.765625 -13.378906 2.21875 -13.5 2.84375 -13.5 C 3.457031 -13.5 3.90625 -13.375 4.1875 -13.125 C 4.46875 -12.875 4.609375 -12.507812 4.609375 -12.03125 C 4.609375 -11.050781 4.019531 -10.5625 2.84375 -10.5625 C 1.664062 -10.5625 1.078125 -11.050781 1.078125 -12.03125 Z M 1.078125 -12.03125 "/></g></g></g><g fill="#ffffff" fill-opacity="1"><g transform="translate(216.24689, 32.936629)"><g><path d="M 7.65625 -12.609375 L 3.03125 0.171875 L 0.078125 0.171875 L 4.71875 -12.609375 Z M 7.65625 -12.609375 "/></g></g></g><g fill="#ffffff" fill-opacity="1"><g transform="translate(223.938228, 32.936629)"><g><path d="M 0.609375 -4.015625 L 5.875 -6.15625 L 0.609375 -8.5625 L 0.609375 -11.09375 L 9.203125 -6.796875 L 9.203125 -5.328125 L 0.609375 -1.515625 Z M 0.609375 -4.015625 "/></g></g></g><g fill="#b93229" fill-opacity="0.4"><g transform="translate(33.440526, 47.29071)"><g/></g><g transform="translate(35.365344, 47.29071)"><g/></g><g transform="translate(37.290162, 47.29071)"><g/></g><g transform="translate(39.21498, 47.29071)"><g/></g><g transform="translate(41.139798, 47.29071)"><g/></g><g transform="translate(43.064616, 47.29071)"><g/></g><g transform="translate(44.989434, 47.29071)"><g/></g><g transform="translate(46.914252, 47.29071)"><g/></g><g transform="translate(48.83907, 47.29071)"><g/></g><g transform="translate(50.763888, 47.29071)"><g/></g><g transform="translate(52.688706, 47.29071)"><g/></g><g transform="translate(54.613524, 47.29071)"><g/></g><g transform="translate(56.538342, 47.29071)"><g/></g><g transform="translate(58.46316, 47.29071)"><g/></g><g transform="translate(60.387978, 47.29071)"><g/></g><g transform="translate(62.312796, 47.29071)"><g/></g><g transform="translate(64.237614, 47.29071)"><g/></g><g transform="translate(66.162432, 47.29071)"><g/></g><g transform="translate(68.08725, 47.29071)"><g/></g><g transform="translate(70.012068, 47.29071)"><g/></g><g transform="translate(71.936886, 47.29071)"><g/></g><g transform="translate(73.861704, 47.29071)"><g/></g><g transform="translate(75.786523, 47.29071)"><g/></g><g transform="translate(77.711341, 47.29071)"><g/></g><g transform="translate(79.636159, 47.29071)"><g/></g><g transform="translate(81.560977, 47.29071)"><g/></g><g transform="translate(83.485795, 47.29071)"><g/></g><g transform="translate(85.410613, 47.29071)"><g/></g><g transform="translate(87.335431, 47.29071)"><g/></g><g transform="translate(89.260249, 47.29071)"><g/></g><g transform="translate(91.185067, 47.29071)"><g/></g><g transform="translate(93.109885, 47.29071)"><g/></g><g transform="translate(95.034703, 47.29071)"><g/></g><g transform="translate(96.959521, 47.29071)"><g/></g><g transform="translate(98.884339, 47.29071)"><g/></g><g transform="translate(100.809157, 47.29071)"><g/></g><g transform="translate(102.733975, 47.29071)"><g/></g><g transform="translate(104.658793, 47.29071)"><g/></g></g><g fill="#ffffff" fill-opacity="1"><g transform="translate(32.671125, 46.521309)"><g/></g><g transform="translate(34.595943, 46.521309)"><g/></g><g transform="translate(36.520761, 46.521309)"><g/></g><g transform="translate(38.445579, 46.521309)"><g/></g><g transform="translate(40.370397, 46.521309)"><g/></g><g transform="translate(42.295215, 46.521309)"><g/></g><g transform="translate(44.220033, 46.521309)"><g/></g><g transform="translate(46.144851, 46.521309)"><g/></g><g transform="translate(48.069669, 46.521309)"><g/></g><g transform="translate(49.994487, 46.521309)"><g/></g><g transform="translate(51.919305, 46.521309)"><g/></g><g transform="translate(53.844123, 46.521309)"><g/></g><g transform="translate(55.768941, 46.521309)"><g/></g><g transform="translate(57.693759, 46.521309)"><g/></g><g transform="translate(59.618577, 46.521309)"><g/></g><g transform="translate(61.543395, 46.521309)"><g/></g><g transform="translate(63.468213, 46.521309)"><g/></g><g transform="translate(65.393031, 46.521309)"><g/></g><g transform="translate(67.317849, 46.521309)"><g/></g><g transform="translate(69.242667, 46.521309)"><g/></g><g transform="translate(71.167485, 46.521309)"><g/></g><g transform="translate(73.092303, 46.521309)"><g/></g><g transform="translate(75.017121, 46.521309)"><g/></g><g transform="translate(76.941939, 46.521309)"><g/></g><g transform="translate(78.866757, 46.521309)"><g/></g><g transform="translate(80.791575, 46.521309)"><g/></g><g transform="translate(82.716393, 46.521309)"><g/></g><g transform="translate(84.641211, 46.521309)"><g/></g><g transform="translate(86.566029, 46.521309)"><g/></g><g transform="translate(88.490847, 46.521309)"><g/></g><g transform="translate(90.415665, 46.521309)"><g/></g><g transform="translate(92.340483, 46.521309)"><g/></g><g transform="translate(94.265301, 46.521309)"><g/></g><g transform="translate(96.190119, 46.521309)"><g/></g><g transform="translate(98.114937, 46.521309)"><g/></g><g transform="translate(100.039755, 46.521309)"><g/></g><g transform="translate(101.964574, 46.521309)"><g/></g><g transform="translate(103.889392, 46.521309)"><g/></g></g><g fill="#b93229" fill-opacity="0.4"><g transform="translate(106.583609, 47.29071)"><g><path d="M 3.546875 -5.28125 L 5.140625 -5.28125 L 3.40625 0 L 1.71875 0 L 0 -5.28125 L 1.609375 -5.28125 L 2.328125 -2.609375 C 2.472656 -2.015625 2.554688 -1.597656 2.578125 -1.359375 C 2.585938 -1.523438 2.617188 -1.734375 2.671875 -1.984375 C 2.722656 -2.242188 2.769531 -2.445312 2.8125 -2.59375 Z M 3.546875 -5.28125 "/></g></g><g transform="translate(111.7249, 47.29071)"><g><path d="M 1.90625 0 L 0.5 0 L 0.5 -4.09375 L 1.90625 -4.09375 Z M 0.453125 -5.109375 C 0.453125 -5.328125 0.507812 -5.488281 0.625 -5.59375 C 0.75 -5.695312 0.941406 -5.75 1.203125 -5.75 C 1.472656 -5.75 1.664062 -5.691406 1.78125 -5.578125 C 1.90625 -5.472656 1.96875 -5.316406 1.96875 -5.109375 C 1.96875 -4.703125 1.710938 -4.5 1.203125 -4.5 C 0.703125 -4.5 0.453125 -4.703125 0.453125 -5.109375 Z M 0.453125 -5.109375 "/></g></g><g transform="translate(114.13454, 47.29071)"><g><path d="M 3.65625 -1.265625 C 3.65625 -0.816406 3.503906 -0.476562 3.203125 -0.25 C 2.898438 -0.03125 2.472656 0.078125 1.921875 0.078125 C 1.617188 0.078125 1.351562 0.0546875 1.125 0.015625 C 0.894531 -0.015625 0.664062 -0.0703125 0.4375 -0.15625 L 0.4375 -1.28125 C 0.65625 -1.1875 0.894531 -1.109375 1.15625 -1.046875 C 1.414062 -0.984375 1.648438 -0.953125 1.859375 -0.953125 C 2.160156 -0.953125 2.3125 -1.023438 2.3125 -1.171875 C 2.3125 -1.234375 2.269531 -1.289062 2.1875 -1.34375 C 2.101562 -1.40625 1.851562 -1.519531 1.4375 -1.6875 C 1.0625 -1.84375 0.800781 -2.019531 0.65625 -2.21875 C 0.507812 -2.414062 0.4375 -2.664062 0.4375 -2.96875 C 0.4375 -3.34375 0.582031 -3.632812 0.875 -3.84375 C 1.164062 -4.0625 1.582031 -4.171875 2.125 -4.171875 C 2.394531 -4.171875 2.644531 -4.140625 2.875 -4.078125 C 3.113281 -4.023438 3.363281 -3.941406 3.625 -3.828125 L 3.234375 -2.90625 C 3.046875 -2.988281 2.847656 -3.0625 2.640625 -3.125 C 2.429688 -3.1875 2.257812 -3.21875 2.125 -3.21875 C 1.894531 -3.21875 1.78125 -3.160156 1.78125 -3.046875 C 1.78125 -2.972656 1.816406 -2.910156 1.890625 -2.859375 C 1.972656 -2.816406 2.207031 -2.71875 2.59375 -2.5625 C 2.882812 -2.445312 3.097656 -2.332031 3.234375 -2.21875 C 3.378906 -2.101562 3.484375 -1.96875 3.546875 -1.8125 C 3.617188 -1.664062 3.65625 -1.484375 3.65625 -1.265625 Z M 3.65625 -1.265625 "/></g></g><g transform="translate(118.085482, 47.29071)"><g><path d="M 3.40625 0 L 3.234375 -0.515625 L 3.140625 -0.515625 C 3.023438 -0.328125 2.863281 -0.179688 2.65625 -0.078125 C 2.445312 0.0234375 2.195312 0.078125 1.90625 0.078125 C 1.457031 0.078125 1.109375 -0.0507812 0.859375 -0.3125 C 0.609375 -0.582031 0.484375 -0.953125 0.484375 -1.421875 L 0.484375 -4.09375 L 1.890625 -4.09375 L 1.890625 -1.859375 C 1.890625 -1.585938 1.925781 -1.382812 2 -1.25 C 2.082031 -1.113281 2.210938 -1.046875 2.390625 -1.046875 C 2.628906 -1.046875 2.800781 -1.140625 2.90625 -1.328125 C 3.007812 -1.523438 3.0625 -1.847656 3.0625 -2.296875 L 3.0625 -4.09375 L 4.46875 -4.09375 L 4.46875 0 Z M 3.40625 0 "/></g></g><g transform="translate(123.049487, 47.29071)"><g><path d="M 3.15625 0 L 2.890625 -0.546875 L 2.859375 -0.546875 C 2.671875 -0.304688 2.476562 -0.140625 2.28125 -0.046875 C 2.082031 0.0351562 1.828125 0.078125 1.515625 0.078125 C 1.128906 0.078125 0.820312 -0.0351562 0.59375 -0.265625 C 0.375 -0.503906 0.265625 -0.832031 0.265625 -1.25 C 0.265625 -1.6875 0.414062 -2.007812 0.71875 -2.21875 C 1.019531 -2.4375 1.460938 -2.554688 2.046875 -2.578125 L 2.734375 -2.609375 L 2.734375 -2.671875 C 2.734375 -3.003906 2.566406 -3.171875 2.234375 -3.171875 C 1.929688 -3.171875 1.550781 -3.070312 1.09375 -2.875 L 0.6875 -3.796875 C 1.15625 -4.046875 1.753906 -4.171875 2.484375 -4.171875 C 3.015625 -4.171875 3.421875 -4.039062 3.703125 -3.78125 C 3.992188 -3.519531 4.140625 -3.15625 4.140625 -2.6875 L 4.140625 0 Z M 2.109375 -0.921875 C 2.285156 -0.921875 2.429688 -0.972656 2.546875 -1.078125 C 2.671875 -1.191406 2.734375 -1.335938 2.734375 -1.515625 L 2.734375 -1.828125 L 2.40625 -1.8125 C 1.9375 -1.800781 1.703125 -1.628906 1.703125 -1.296875 C 1.703125 -1.046875 1.835938 -0.921875 2.109375 -0.921875 Z M 2.109375 -0.921875 "/></g></g><g transform="translate(127.666155, 47.29071)"><g><path d="M 1.90625 0 L 0.484375 0 L 0.484375 -5.625 L 1.90625 -5.625 Z M 1.90625 0 "/></g></g><g transform="translate(130.061324, 47.29071)"><g><path d="M 1.90625 0 L 0.5 0 L 0.5 -4.09375 L 1.90625 -4.09375 Z M 0.453125 -5.109375 C 0.453125 -5.328125 0.507812 -5.488281 0.625 -5.59375 C 0.75 -5.695312 0.941406 -5.75 1.203125 -5.75 C 1.472656 -5.75 1.664062 -5.691406 1.78125 -5.578125 C 1.90625 -5.472656 1.96875 -5.316406 1.96875 -5.109375 C 1.96875 -4.703125 1.710938 -4.5 1.203125 -4.5 C 0.703125 -4.5 0.453125 -4.703125 0.453125 -5.109375 Z M 0.453125 -5.109375 "/></g></g><g transform="translate(132.470964, 47.29071)"><g><path d="M 3.65625 -1.265625 C 3.65625 -0.816406 3.503906 -0.476562 3.203125 -0.25 C 2.898438 -0.03125 2.472656 0.078125 1.921875 0.078125 C 1.617188 0.078125 1.351562 0.0546875 1.125 0.015625 C 0.894531 -0.015625 0.664062 -0.0703125 0.4375 -0.15625 L 0.4375 -1.28125 C 0.65625 -1.1875 0.894531 -1.109375 1.15625 -1.046875 C 1.414062 -0.984375 1.648438 -0.953125 1.859375 -0.953125 C 2.160156 -0.953125 2.3125 -1.023438 2.3125 -1.171875 C 2.3125 -1.234375 2.269531 -1.289062 2.1875 -1.34375 C 2.101562 -1.40625 1.851562 -1.519531 1.4375 -1.6875 C 1.0625 -1.84375 0.800781 -2.019531 0.65625 -2.21875 C 0.507812 -2.414062 0.4375 -2.664062 0.4375 -2.96875 C 0.4375 -3.34375 0.582031 -3.632812 0.875 -3.84375 C 1.164062 -4.0625 1.582031 -4.171875 2.125 -4.171875 C 2.394531 -4.171875 2.644531 -4.140625 2.875 -4.078125 C 3.113281 -4.023438 3.363281 -3.941406 3.625 -3.828125 L 3.234375 -2.90625 C 3.046875 -2.988281 2.847656 -3.0625 2.640625 -3.125 C 2.429688 -3.1875 2.257812 -3.21875 2.125 -3.21875 C 1.894531 -3.21875 1.78125 -3.160156 1.78125 -3.046875 C 1.78125 -2.972656 1.816406 -2.910156 1.890625 -2.859375 C 1.972656 -2.816406 2.207031 -2.71875 2.59375 -2.5625 C 2.882812 -2.445312 3.097656 -2.332031 3.234375 -2.21875 C 3.378906 -2.101562 3.484375 -1.96875 3.546875 -1.8125 C 3.617188 -1.664062 3.65625 -1.484375 3.65625 -1.265625 Z M 3.65625 -1.265625 "/></g></g><g transform="translate(136.421906, 47.29071)"><g><path d="M 2.46875 0.078125 C 1.78125 0.078125 1.25 -0.101562 0.875 -0.46875 C 0.5 -0.832031 0.3125 -1.347656 0.3125 -2.015625 C 0.3125 -2.710938 0.484375 -3.242188 0.828125 -3.609375 C 1.179688 -3.984375 1.679688 -4.171875 2.328125 -4.171875 C 2.953125 -4.171875 3.429688 -4.007812 3.765625 -3.6875 C 4.097656 -3.363281 4.265625 -2.898438 4.265625 -2.296875 L 4.265625 -1.671875 L 1.734375 -1.671875 C 1.742188 -1.441406 1.828125 -1.257812 1.984375 -1.125 C 2.148438 -1 2.367188 -0.9375 2.640625 -0.9375 C 2.890625 -0.9375 3.117188 -0.957031 3.328125 -1 C 3.535156 -1.050781 3.757812 -1.132812 4 -1.25 L 4 -0.234375 C 3.78125 -0.117188 3.550781 -0.0390625 3.3125 0 C 3.070312 0.0507812 2.789062 0.078125 2.46875 0.078125 Z M 2.390625 -3.203125 C 2.222656 -3.203125 2.082031 -3.148438 1.96875 -3.046875 C 1.851562 -2.941406 1.785156 -2.78125 1.765625 -2.5625 L 2.984375 -2.5625 C 2.972656 -2.757812 2.914062 -2.914062 2.8125 -3.03125 C 2.707031 -3.144531 2.566406 -3.203125 2.390625 -3.203125 Z M 2.390625 -3.203125 "/></g></g><g transform="translate(141.002394, 47.29071)"><g/></g><g transform="translate(142.927212, 47.29071)"><g><path d="M 2.453125 -3.328125 L 3.375 -5.28125 L 4.921875 -5.28125 L 3.171875 -2.0625 L 3.171875 0 L 1.734375 0 L 1.734375 -2.015625 L 0 -5.28125 L 1.5625 -5.28125 Z M 2.453125 -3.328125 "/></g></g><g transform="translate(147.8478, 47.29071)"><g><path d="M 4.40625 -2.0625 C 4.40625 -1.382812 4.222656 -0.859375 3.859375 -0.484375 C 3.492188 -0.109375 2.988281 0.078125 2.34375 0.078125 C 1.71875 0.078125 1.222656 -0.113281 0.859375 -0.5 C 0.492188 -0.882812 0.3125 -1.40625 0.3125 -2.0625 C 0.3125 -2.726562 0.488281 -3.242188 0.84375 -3.609375 C 1.207031 -3.984375 1.71875 -4.171875 2.375 -4.171875 C 2.769531 -4.171875 3.117188 -4.082031 3.421875 -3.90625 C 3.734375 -3.738281 3.972656 -3.492188 4.140625 -3.171875 C 4.316406 -2.859375 4.40625 -2.488281 4.40625 -2.0625 Z M 1.75 -2.0625 C 1.75 -1.707031 1.796875 -1.4375 1.890625 -1.25 C 1.984375 -1.0625 2.140625 -0.96875 2.359375 -0.96875 C 2.578125 -0.96875 2.734375 -1.0625 2.828125 -1.25 C 2.921875 -1.4375 2.96875 -1.707031 2.96875 -2.0625 C 2.96875 -2.40625 2.921875 -2.664062 2.828125 -2.84375 C 2.734375 -3.03125 2.578125 -3.125 2.359375 -3.125 C 2.140625 -3.125 1.984375 -3.03125 1.890625 -2.84375 C 1.796875 -2.664062 1.75 -2.40625 1.75 -2.0625 Z M 1.75 -2.0625 "/></g></g><g transform="translate(152.569393, 47.29071)"><g><path d="M 3.40625 0 L 3.234375 -0.515625 L 3.140625 -0.515625 C 3.023438 -0.328125 2.863281 -0.179688 2.65625 -0.078125 C 2.445312 0.0234375 2.195312 0.078125 1.90625 0.078125 C 1.457031 0.078125 1.109375 -0.0507812 0.859375 -0.3125 C 0.609375 -0.582031 0.484375 -0.953125 0.484375 -1.421875 L 0.484375 -4.09375 L 1.890625 -4.09375 L 1.890625 -1.859375 C 1.890625 -1.585938 1.925781 -1.382812 2 -1.25 C 2.082031 -1.113281 2.210938 -1.046875 2.390625 -1.046875 C 2.628906 -1.046875 2.800781 -1.140625 2.90625 -1.328125 C 3.007812 -1.523438 3.0625 -1.847656 3.0625 -2.296875 L 3.0625 -4.09375 L 4.46875 -4.09375 L 4.46875 0 Z M 3.40625 0 "/></g></g><g transform="translate(157.533397, 47.29071)"><g><path d="M 2.96875 -4.171875 C 3.082031 -4.171875 3.195312 -4.160156 3.3125 -4.140625 L 3.390625 -4.125 L 3.265625 -2.796875 C 3.148438 -2.816406 2.988281 -2.828125 2.78125 -2.828125 C 2.476562 -2.828125 2.253906 -2.753906 2.109375 -2.609375 C 1.972656 -2.472656 1.90625 -2.273438 1.90625 -2.015625 L 1.90625 0 L 0.484375 0 L 0.484375 -4.09375 L 1.546875 -4.09375 L 1.765625 -3.4375 L 1.828125 -3.4375 C 1.941406 -3.65625 2.101562 -3.832031 2.3125 -3.96875 C 2.53125 -4.101562 2.75 -4.171875 2.96875 -4.171875 Z M 2.96875 -4.171875 "/></g></g><g transform="translate(161.010371, 47.29071)"><g/></g><g transform="translate(162.935189, 47.29071)"><g><path d="M 2 -1.921875 L 2 0 L 0.578125 0 L 0.578125 -5.28125 L 2.296875 -5.28125 C 3.734375 -5.28125 4.453125 -4.757812 4.453125 -3.71875 C 4.453125 -3.113281 4.15625 -2.640625 3.5625 -2.296875 L 5.109375 0 L 3.484375 0 L 2.359375 -1.921875 Z M 2 -3 L 2.265625 -3 C 2.765625 -3 3.015625 -3.21875 3.015625 -3.65625 C 3.015625 -4.019531 2.769531 -4.203125 2.28125 -4.203125 L 2 -4.203125 Z M 2 -3 "/></g></g><g transform="translate(167.949846, 47.29071)"><g><path d="M 3.40625 0 L 3.234375 -0.515625 L 3.140625 -0.515625 C 3.023438 -0.328125 2.863281 -0.179688 2.65625 -0.078125 C 2.445312 0.0234375 2.195312 0.078125 1.90625 0.078125 C 1.457031 0.078125 1.109375 -0.0507812 0.859375 -0.3125 C 0.609375 -0.582031 0.484375 -0.953125 0.484375 -1.421875 L 0.484375 -4.09375 L 1.890625 -4.09375 L 1.890625 -1.859375 C 1.890625 -1.585938 1.925781 -1.382812 2 -1.25 C 2.082031 -1.113281 2.210938 -1.046875 2.390625 -1.046875 C 2.628906 -1.046875 2.800781 -1.140625 2.90625 -1.328125 C 3.007812 -1.523438 3.0625 -1.847656 3.0625 -2.296875 L 3.0625 -4.09375 L 4.46875 -4.09375 L 4.46875 0 Z M 3.40625 0 "/></g></g><g transform="translate(172.91385, 47.29071)"><g><path d="M 3.078125 0 L 3.078125 -2.234375 C 3.078125 -2.503906 3.035156 -2.707031 2.953125 -2.84375 C 2.878906 -2.988281 2.753906 -3.0625 2.578125 -3.0625 C 2.335938 -3.0625 2.164062 -2.960938 2.0625 -2.765625 C 1.957031 -2.578125 1.90625 -2.253906 1.90625 -1.796875 L 1.90625 0 L 0.484375 0 L 0.484375 -4.09375 L 1.5625 -4.09375 L 1.734375 -3.59375 L 1.8125 -3.59375 C 1.9375 -3.78125 2.101562 -3.921875 2.3125 -4.015625 C 2.53125 -4.117188 2.773438 -4.171875 3.046875 -4.171875 C 3.503906 -4.171875 3.859375 -4.035156 4.109375 -3.765625 C 4.359375 -3.503906 4.484375 -3.140625 4.484375 -2.671875 L 4.484375 0 Z M 3.078125 0 "/></g></g><g transform="translate(177.877855, 47.29071)"><g><path d="M 3.078125 0 L 3.078125 -2.234375 C 3.078125 -2.503906 3.035156 -2.707031 2.953125 -2.84375 C 2.878906 -2.988281 2.753906 -3.0625 2.578125 -3.0625 C 2.335938 -3.0625 2.164062 -2.960938 2.0625 -2.765625 C 1.957031 -2.578125 1.90625 -2.253906 1.90625 -1.796875 L 1.90625 0 L 0.484375 0 L 0.484375 -4.09375 L 1.5625 -4.09375 L 1.734375 -3.59375 L 1.8125 -3.59375 C 1.9375 -3.78125 2.101562 -3.921875 2.3125 -4.015625 C 2.53125 -4.117188 2.773438 -4.171875 3.046875 -4.171875 C 3.503906 -4.171875 3.859375 -4.035156 4.109375 -3.765625 C 4.359375 -3.503906 4.484375 -3.140625 4.484375 -2.671875 L 4.484375 0 Z M 3.078125 0 "/></g></g><g transform="translate(182.841859, 47.29071)"><g><path d="M 1.90625 0 L 0.5 0 L 0.5 -4.09375 L 1.90625 -4.09375 Z M 0.453125 -5.109375 C 0.453125 -5.328125 0.507812 -5.488281 0.625 -5.59375 C 0.75 -5.695312 0.941406 -5.75 1.203125 -5.75 C 1.472656 -5.75 1.664062 -5.691406 1.78125 -5.578125 C 1.90625 -5.472656 1.96875 -5.316406 1.96875 -5.109375 C 1.96875 -4.703125 1.710938 -4.5 1.203125 -4.5 C 0.703125 -4.5 0.453125 -4.703125 0.453125 -5.109375 Z M 0.453125 -5.109375 "/></g></g><g transform="translate(185.251499, 47.29071)"><g><path d="M 3.078125 0 L 3.078125 -2.234375 C 3.078125 -2.503906 3.035156 -2.707031 2.953125 -2.84375 C 2.878906 -2.988281 2.753906 -3.0625 2.578125 -3.0625 C 2.335938 -3.0625 2.164062 -2.960938 2.0625 -2.765625 C 1.957031 -2.578125 1.90625 -2.253906 1.90625 -1.796875 L 1.90625 0 L 0.484375 0 L 0.484375 -4.09375 L 1.5625 -4.09375 L 1.734375 -3.59375 L 1.8125 -3.59375 C 1.9375 -3.78125 2.101562 -3.921875 2.3125 -4.015625 C 2.53125 -4.117188 2.773438 -4.171875 3.046875 -4.171875 C 3.503906 -4.171875 3.859375 -4.035156 4.109375 -3.765625 C 4.359375 -3.503906 4.484375 -3.140625 4.484375 -2.671875 L 4.484375 0 Z M 3.078125 0 "/></g></g><g transform="translate(190.215504, 47.29071)"><g><path d="M 4.359375 -4.09375 L 4.359375 -3.40625 L 3.796875 -3.203125 C 3.867188 -3.066406 3.90625 -2.90625 3.90625 -2.71875 C 3.90625 -2.28125 3.75 -1.9375 3.4375 -1.6875 C 3.132812 -1.445312 2.675781 -1.328125 2.0625 -1.328125 C 1.90625 -1.328125 1.785156 -1.335938 1.703125 -1.359375 C 1.660156 -1.296875 1.640625 -1.234375 1.640625 -1.171875 C 1.640625 -1.109375 1.695312 -1.054688 1.8125 -1.015625 C 1.925781 -0.984375 2.078125 -0.96875 2.265625 -0.96875 L 2.9375 -0.96875 C 3.851562 -0.96875 4.3125 -0.578125 4.3125 0.203125 C 4.3125 0.703125 4.097656 1.085938 3.671875 1.359375 C 3.253906 1.640625 2.660156 1.78125 1.890625 1.78125 C 1.304688 1.78125 0.859375 1.679688 0.546875 1.484375 C 0.234375 1.296875 0.078125 1.019531 0.078125 0.65625 C 0.078125 0.164062 0.378906 -0.148438 0.984375 -0.296875 C 0.859375 -0.347656 0.75 -0.429688 0.65625 -0.546875 C 0.5625 -0.671875 0.515625 -0.789062 0.515625 -0.90625 C 0.515625 -1.03125 0.550781 -1.140625 0.625 -1.234375 C 0.695312 -1.335938 0.84375 -1.457031 1.0625 -1.59375 C 0.84375 -1.6875 0.671875 -1.832031 0.546875 -2.03125 C 0.429688 -2.226562 0.375 -2.472656 0.375 -2.765625 C 0.375 -3.210938 0.523438 -3.554688 0.828125 -3.796875 C 1.128906 -4.046875 1.566406 -4.171875 2.140625 -4.171875 C 2.210938 -4.171875 2.335938 -4.160156 2.515625 -4.140625 C 2.703125 -4.128906 2.835938 -4.113281 2.921875 -4.09375 Z M 1.265625 0.515625 C 1.265625 0.628906 1.328125 0.71875 1.453125 0.78125 C 1.578125 0.851562 1.742188 0.890625 1.953125 0.890625 C 2.296875 0.890625 2.570312 0.847656 2.78125 0.765625 C 2.988281 0.679688 3.09375 0.570312 3.09375 0.4375 C 3.09375 0.332031 3.03125 0.253906 2.90625 0.203125 C 2.78125 0.160156 2.597656 0.140625 2.359375 0.140625 L 1.8125 0.140625 C 1.65625 0.140625 1.523438 0.175781 1.421875 0.25 C 1.316406 0.320312 1.265625 0.410156 1.265625 0.515625 Z M 1.703125 -2.75 C 1.703125 -2.332031 1.847656 -2.125 2.140625 -2.125 C 2.273438 -2.125 2.378906 -2.175781 2.453125 -2.28125 C 2.535156 -2.382812 2.578125 -2.539062 2.578125 -2.75 C 2.578125 -3.175781 2.429688 -3.390625 2.140625 -3.390625 C 1.847656 -3.390625 1.703125 -3.175781 1.703125 -2.75 Z M 1.703125 -2.75 "/></g></g><g transform="translate(194.70554, 47.29071)"><g/></g><g transform="translate(196.630358, 47.29071)"><g><path d="M 5.0625 -2.75 C 5.0625 -1.875 4.816406 -1.195312 4.328125 -0.71875 C 3.847656 -0.238281 3.164062 0 2.28125 0 L 0.578125 0 L 0.578125 -5.28125 L 2.40625 -5.28125 C 3.25 -5.28125 3.898438 -5.0625 4.359375 -4.625 C 4.828125 -4.195312 5.0625 -3.570312 5.0625 -2.75 Z M 3.578125 -2.703125 C 3.578125 -3.191406 3.476562 -3.550781 3.28125 -3.78125 C 3.09375 -4.019531 2.804688 -4.140625 2.421875 -4.140625 L 2 -4.140625 L 2 -1.171875 L 2.3125 -1.171875 C 2.75 -1.171875 3.066406 -1.296875 3.265625 -1.546875 C 3.472656 -1.796875 3.578125 -2.179688 3.578125 -2.703125 Z M 3.578125 -2.703125 "/></g></g><g transform="translate(202.06833, 47.29071)"><g><path d="M 3.15625 0 L 2.890625 -0.546875 L 2.859375 -0.546875 C 2.671875 -0.304688 2.476562 -0.140625 2.28125 -0.046875 C 2.082031 0.0351562 1.828125 0.078125 1.515625 0.078125 C 1.128906 0.078125 0.820312 -0.0351562 0.59375 -0.265625 C 0.375 -0.503906 0.265625 -0.832031 0.265625 -1.25 C 0.265625 -1.6875 0.414062 -2.007812 0.71875 -2.21875 C 1.019531 -2.4375 1.460938 -2.554688 2.046875 -2.578125 L 2.734375 -2.609375 L 2.734375 -2.671875 C 2.734375 -3.003906 2.566406 -3.171875 2.234375 -3.171875 C 1.929688 -3.171875 1.550781 -3.070312 1.09375 -2.875 L 0.6875 -3.796875 C 1.15625 -4.046875 1.753906 -4.171875 2.484375 -4.171875 C 3.015625 -4.171875 3.421875 -4.039062 3.703125 -3.78125 C 3.992188 -3.519531 4.140625 -3.15625 4.140625 -2.6875 L 4.140625 0 Z M 2.109375 -0.921875 C 2.285156 -0.921875 2.429688 -0.972656 2.546875 -1.078125 C 2.671875 -1.191406 2.734375 -1.335938 2.734375 -1.515625 L 2.734375 -1.828125 L 2.40625 -1.8125 C 1.9375 -1.800781 1.703125 -1.628906 1.703125 -1.296875 C 1.703125 -1.046875 1.835938 -0.921875 2.109375 -0.921875 Z M 2.109375 -0.921875 "/></g></g><g transform="translate(206.684999, 47.29071)"><g><path d="M 2.5 -1.046875 C 2.6875 -1.046875 2.910156 -1.09375 3.171875 -1.1875 L 3.171875 -0.15625 C 2.984375 -0.0703125 2.800781 -0.015625 2.625 0.015625 C 2.457031 0.0546875 2.257812 0.078125 2.03125 0.078125 C 1.550781 0.078125 1.207031 -0.0351562 1 -0.265625 C 0.789062 -0.503906 0.6875 -0.863281 0.6875 -1.34375 L 0.6875 -3.03125 L 0.1875 -3.03125 L 0.1875 -3.609375 L 0.828125 -4.0625 L 1.1875 -4.921875 L 2.109375 -4.921875 L 2.109375 -4.09375 L 3.125 -4.09375 L 3.125 -3.03125 L 2.109375 -3.03125 L 2.109375 -1.4375 C 2.109375 -1.175781 2.238281 -1.046875 2.5 -1.046875 Z M 2.5 -1.046875 "/></g></g><g transform="translate(210.093229, 47.29071)"><g><path d="M 3.15625 0 L 2.890625 -0.546875 L 2.859375 -0.546875 C 2.671875 -0.304688 2.476562 -0.140625 2.28125 -0.046875 C 2.082031 0.0351562 1.828125 0.078125 1.515625 0.078125 C 1.128906 0.078125 0.820312 -0.0351562 0.59375 -0.265625 C 0.375 -0.503906 0.265625 -0.832031 0.265625 -1.25 C 0.265625 -1.6875 0.414062 -2.007812 0.71875 -2.21875 C 1.019531 -2.4375 1.460938 -2.554688 2.046875 -2.578125 L 2.734375 -2.609375 L 2.734375 -2.671875 C 2.734375 -3.003906 2.566406 -3.171875 2.234375 -3.171875 C 1.929688 -3.171875 1.550781 -3.070312 1.09375 -2.875 L 0.6875 -3.796875 C 1.15625 -4.046875 1.753906 -4.171875 2.484375 -4.171875 C 3.015625 -4.171875 3.421875 -4.039062 3.703125 -3.78125 C 3.992188 -3.519531 4.140625 -3.15625 4.140625 -2.6875 L 4.140625 0 Z M 2.109375 -0.921875 C 2.285156 -0.921875 2.429688 -0.972656 2.546875 -1.078125 C 2.671875 -1.191406 2.734375 -1.335938 2.734375 -1.515625 L 2.734375 -1.828125 L 2.40625 -1.8125 C 1.9375 -1.800781 1.703125 -1.628906 1.703125 -1.296875 C 1.703125 -1.046875 1.835938 -0.921875 2.109375 -0.921875 Z M 2.109375 -0.921875 "/></g></g><g transform="translate(214.709898, 47.29071)"><g><path d="M 3.65625 -1.265625 C 3.65625 -0.816406 3.503906 -0.476562 3.203125 -0.25 C 2.898438 -0.03125 2.472656 0.078125 1.921875 0.078125 C 1.617188 0.078125 1.351562 0.0546875 1.125 0.015625 C 0.894531 -0.015625 0.664062 -0.0703125 0.4375 -0.15625 L 0.4375 -1.28125 C 0.65625 -1.1875 0.894531 -1.109375 1.15625 -1.046875 C 1.414062 -0.984375 1.648438 -0.953125 1.859375 -0.953125 C 2.160156 -0.953125 2.3125 -1.023438 2.3125 -1.171875 C 2.3125 -1.234375 2.269531 -1.289062 2.1875 -1.34375 C 2.101562 -1.40625 1.851562 -1.519531 1.4375 -1.6875 C 1.0625 -1.84375 0.800781 -2.019531 0.65625 -2.21875 C 0.507812 -2.414062 0.4375 -2.664062 0.4375 -2.96875 C 0.4375 -3.34375 0.582031 -3.632812 0.875 -3.84375 C 1.164062 -4.0625 1.582031 -4.171875 2.125 -4.171875 C 2.394531 -4.171875 2.644531 -4.140625 2.875 -4.078125 C 3.113281 -4.023438 3.363281 -3.941406 3.625 -3.828125 L 3.234375 -2.90625 C 3.046875 -2.988281 2.847656 -3.0625 2.640625 -3.125 C 2.429688 -3.1875 2.257812 -3.21875 2.125 -3.21875 C 1.894531 -3.21875 1.78125 -3.160156 1.78125 -3.046875 C 1.78125 -2.972656 1.816406 -2.910156 1.890625 -2.859375 C 1.972656 -2.816406 2.207031 -2.71875 2.59375 -2.5625 C 2.882812 -2.445312 3.097656 -2.332031 3.234375 -2.21875 C 3.378906 -2.101562 3.484375 -1.96875 3.546875 -1.8125 C 3.617188 -1.664062 3.65625 -1.484375 3.65625 -1.265625 Z M 3.65625 -1.265625 "/></g></g><g transform="translate(218.66084, 47.29071)"><g><path d="M 2.46875 0.078125 C 1.78125 0.078125 1.25 -0.101562 0.875 -0.46875 C 0.5 -0.832031 0.3125 -1.347656 0.3125 -2.015625 C 0.3125 -2.710938 0.484375 -3.242188 0.828125 -3.609375 C 1.179688 -3.984375 1.679688 -4.171875 2.328125 -4.171875 C 2.953125 -4.171875 3.429688 -4.007812 3.765625 -3.6875 C 4.097656 -3.363281 4.265625 -2.898438 4.265625 -2.296875 L 4.265625 -1.671875 L 1.734375 -1.671875 C 1.742188 -1.441406 1.828125 -1.257812 1.984375 -1.125 C 2.148438 -1 2.367188 -0.9375 2.640625 -0.9375 C 2.890625 -0.9375 3.117188 -0.957031 3.328125 -1 C 3.535156 -1.050781 3.757812 -1.132812 4 -1.25 L 4 -0.234375 C 3.78125 -0.117188 3.550781 -0.0390625 3.3125 0 C 3.070312 0.0507812 2.789062 0.078125 2.46875 0.078125 Z M 2.390625 -3.203125 C 2.222656 -3.203125 2.082031 -3.148438 1.96875 -3.046875 C 1.851562 -2.941406 1.785156 -2.78125 1.765625 -2.5625 L 2.984375 -2.5625 C 2.972656 -2.757812 2.914062 -2.914062 2.8125 -3.03125 C 2.707031 -3.144531 2.566406 -3.203125 2.390625 -3.203125 Z M 2.390625 -3.203125 "/></g></g><g transform="translate(223.241328, 47.29071)"><g><path d="M 2.5 -1.046875 C 2.6875 -1.046875 2.910156 -1.09375 3.171875 -1.1875 L 3.171875 -0.15625 C 2.984375 -0.0703125 2.800781 -0.015625 2.625 0.015625 C 2.457031 0.0546875 2.257812 0.078125 2.03125 0.078125 C 1.550781 0.078125 1.207031 -0.0351562 1 -0.265625 C 0.789062 -0.503906 0.6875 -0.863281 0.6875 -1.34375 L 0.6875 -3.03125 L 0.1875 -3.03125 L 0.1875 -3.609375 L 0.828125 -4.0625 L 1.1875 -4.921875 L 2.109375 -4.921875 L 2.109375 -4.09375 L 3.125 -4.09375 L 3.125 -3.03125 L 2.109375 -3.03125 L 2.109375 -1.4375 C 2.109375 -1.175781 2.238281 -1.046875 2.5 -1.046875 Z M 2.5 -1.046875 "/></g></g><g transform="translate(226.649559, 47.29071)"><g><path d="M 3.65625 -1.265625 C 3.65625 -0.816406 3.503906 -0.476562 3.203125 -0.25 C 2.898438 -0.03125 2.472656 0.078125 1.921875 0.078125 C 1.617188 0.078125 1.351562 0.0546875 1.125 0.015625 C 0.894531 -0.015625 0.664062 -0.0703125 0.4375 -0.15625 L 0.4375 -1.28125 C 0.65625 -1.1875 0.894531 -1.109375 1.15625 -1.046875 C 1.414062 -0.984375 1.648438 -0.953125 1.859375 -0.953125 C 2.160156 -0.953125 2.3125 -1.023438 2.3125 -1.171875 C 2.3125 -1.234375 2.269531 -1.289062 2.1875 -1.34375 C 2.101562 -1.40625 1.851562 -1.519531 1.4375 -1.6875 C 1.0625 -1.84375 0.800781 -2.019531 0.65625 -2.21875 C 0.507812 -2.414062 0.4375 -2.664062 0.4375 -2.96875 C 0.4375 -3.34375 0.582031 -3.632812 0.875 -3.84375 C 1.164062 -4.0625 1.582031 -4.171875 2.125 -4.171875 C 2.394531 -4.171875 2.644531 -4.140625 2.875 -4.078125 C 3.113281 -4.023438 3.363281 -3.941406 3.625 -3.828125 L 3.234375 -2.90625 C 3.046875 -2.988281 2.847656 -3.0625 2.640625 -3.125 C 2.429688 -3.1875 2.257812 -3.21875 2.125 -3.21875 C 1.894531 -3.21875 1.78125 -3.160156 1.78125 -3.046875 C 1.78125 -2.972656 1.816406 -2.910156 1.890625 -2.859375 C 1.972656 -2.816406 2.207031 -2.71875 2.59375 -2.5625 C 2.882812 -2.445312 3.097656 -2.332031 3.234375 -2.21875 C 3.378906 -2.101562 3.484375 -1.96875 3.546875 -1.8125 C 3.617188 -1.664062 3.65625 -1.484375 3.65625 -1.265625 Z M 3.65625 -1.265625 "/></g></g></g><g fill="#ffffff" fill-opacity="1"><g transform="translate(105.814208, 46.521309)"><g><path d="M 3.546875 -5.28125 L 5.140625 -5.28125 L 3.40625 0 L 1.71875 0 L 0 -5.28125 L 1.609375 -5.28125 L 2.328125 -2.609375 C 2.472656 -2.015625 2.554688 -1.597656 2.578125 -1.359375 C 2.585938 -1.523438 2.617188 -1.734375 2.671875 -1.984375 C 2.722656 -2.242188 2.769531 -2.445312 2.8125 -2.59375 Z M 3.546875 -5.28125 "/></g></g><g transform="translate(110.955498, 46.521309)"><g><path d="M 1.90625 0 L 0.5 0 L 0.5 -4.09375 L 1.90625 -4.09375 Z M 0.453125 -5.109375 C 0.453125 -5.328125 0.507812 -5.488281 0.625 -5.59375 C 0.75 -5.695312 0.941406 -5.75 1.203125 -5.75 C 1.472656 -5.75 1.664062 -5.691406 1.78125 -5.578125 C 1.90625 -5.472656 1.96875 -5.316406 1.96875 -5.109375 C 1.96875 -4.703125 1.710938 -4.5 1.203125 -4.5 C 0.703125 -4.5 0.453125 -4.703125 0.453125 -5.109375 Z M 0.453125 -5.109375 "/></g></g><g transform="translate(113.365139, 46.521309)"><g><path d="M 3.65625 -1.265625 C 3.65625 -0.816406 3.503906 -0.476562 3.203125 -0.25 C 2.898438 -0.03125 2.472656 0.078125 1.921875 0.078125 C 1.617188 0.078125 1.351562 0.0546875 1.125 0.015625 C 0.894531 -0.015625 0.664062 -0.0703125 0.4375 -0.15625 L 0.4375 -1.28125 C 0.65625 -1.1875 0.894531 -1.109375 1.15625 -1.046875 C 1.414062 -0.984375 1.648438 -0.953125 1.859375 -0.953125 C 2.160156 -0.953125 2.3125 -1.023438 2.3125 -1.171875 C 2.3125 -1.234375 2.269531 -1.289062 2.1875 -1.34375 C 2.101562 -1.40625 1.851562 -1.519531 1.4375 -1.6875 C 1.0625 -1.84375 0.800781 -2.019531 0.65625 -2.21875 C 0.507812 -2.414062 0.4375 -2.664062 0.4375 -2.96875 C 0.4375 -3.34375 0.582031 -3.632812 0.875 -3.84375 C 1.164062 -4.0625 1.582031 -4.171875 2.125 -4.171875 C 2.394531 -4.171875 2.644531 -4.140625 2.875 -4.078125 C 3.113281 -4.023438 3.363281 -3.941406 3.625 -3.828125 L 3.234375 -2.90625 C 3.046875 -2.988281 2.847656 -3.0625 2.640625 -3.125 C 2.429688 -3.1875 2.257812 -3.21875 2.125 -3.21875 C 1.894531 -3.21875 1.78125 -3.160156 1.78125 -3.046875 C 1.78125 -2.972656 1.816406 -2.910156 1.890625 -2.859375 C 1.972656 -2.816406 2.207031 -2.71875 2.59375 -2.5625 C 2.882812 -2.445312 3.097656 -2.332031 3.234375 -2.21875 C 3.378906 -2.101562 3.484375 -1.96875 3.546875 -1.8125 C 3.617188 -1.664062 3.65625 -1.484375 3.65625 -1.265625 Z M 3.65625 -1.265625 "/></g></g><g transform="translate(117.316081, 46.521309)"><g><path d="M 3.40625 0 L 3.234375 -0.515625 L 3.140625 -0.515625 C 3.023438 -0.328125 2.863281 -0.179688 2.65625 -0.078125 C 2.445312 0.0234375 2.195312 0.078125 1.90625 0.078125 C 1.457031 0.078125 1.109375 -0.0507812 0.859375 -0.3125 C 0.609375 -0.582031 0.484375 -0.953125 0.484375 -1.421875 L 0.484375 -4.09375 L 1.890625 -4.09375 L 1.890625 -1.859375 C 1.890625 -1.585938 1.925781 -1.382812 2 -1.25 C 2.082031 -1.113281 2.210938 -1.046875 2.390625 -1.046875 C 2.628906 -1.046875 2.800781 -1.140625 2.90625 -1.328125 C 3.007812 -1.523438 3.0625 -1.847656 3.0625 -2.296875 L 3.0625 -4.09375 L 4.46875 -4.09375 L 4.46875 0 Z M 3.40625 0 "/></g></g><g transform="translate(122.280085, 46.521309)"><g><path d="M 3.15625 0 L 2.890625 -0.546875 L 2.859375 -0.546875 C 2.671875 -0.304688 2.476562 -0.140625 2.28125 -0.046875 C 2.082031 0.0351562 1.828125 0.078125 1.515625 0.078125 C 1.128906 0.078125 0.820312 -0.0351562 0.59375 -0.265625 C 0.375 -0.503906 0.265625 -0.832031 0.265625 -1.25 C 0.265625 -1.6875 0.414062 -2.007812 0.71875 -2.21875 C 1.019531 -2.4375 1.460938 -2.554688 2.046875 -2.578125 L 2.734375 -2.609375 L 2.734375 -2.671875 C 2.734375 -3.003906 2.566406 -3.171875 2.234375 -3.171875 C 1.929688 -3.171875 1.550781 -3.070312 1.09375 -2.875 L 0.6875 -3.796875 C 1.15625 -4.046875 1.753906 -4.171875 2.484375 -4.171875 C 3.015625 -4.171875 3.421875 -4.039062 3.703125 -3.78125 C 3.992188 -3.519531 4.140625 -3.15625 4.140625 -2.6875 L 4.140625 0 Z M 2.109375 -0.921875 C 2.285156 -0.921875 2.429688 -0.972656 2.546875 -1.078125 C 2.671875 -1.191406 2.734375 -1.335938 2.734375 -1.515625 L 2.734375 -1.828125 L 2.40625 -1.8125 C 1.9375 -1.800781 1.703125 -1.628906 1.703125 -1.296875 C 1.703125 -1.046875 1.835938 -0.921875 2.109375 -0.921875 Z M 2.109375 -0.921875 "/></g></g><g transform="translate(126.896754, 46.521309)"><g><path d="M 1.90625 0 L 0.484375 0 L 0.484375 -5.625 L 1.90625 -5.625 Z M 1.90625 0 "/></g></g><g transform="translate(129.291922, 46.521309)"><g><path d="M 1.90625 0 L 0.5 0 L 0.5 -4.09375 L 1.90625 -4.09375 Z M 0.453125 -5.109375 C 0.453125 -5.328125 0.507812 -5.488281 0.625 -5.59375 C 0.75 -5.695312 0.941406 -5.75 1.203125 -5.75 C 1.472656 -5.75 1.664062 -5.691406 1.78125 -5.578125 C 1.90625 -5.472656 1.96875 -5.316406 1.96875 -5.109375 C 1.96875 -4.703125 1.710938 -4.5 1.203125 -4.5 C 0.703125 -4.5 0.453125 -4.703125 0.453125 -5.109375 Z M 0.453125 -5.109375 "/></g></g><g transform="translate(131.701563, 46.521309)"><g><path d="M 3.65625 -1.265625 C 3.65625 -0.816406 3.503906 -0.476562 3.203125 -0.25 C 2.898438 -0.03125 2.472656 0.078125 1.921875 0.078125 C 1.617188 0.078125 1.351562 0.0546875 1.125 0.015625 C 0.894531 -0.015625 0.664062 -0.0703125 0.4375 -0.15625 L 0.4375 -1.28125 C 0.65625 -1.1875 0.894531 -1.109375 1.15625 -1.046875 C 1.414062 -0.984375 1.648438 -0.953125 1.859375 -0.953125 C 2.160156 -0.953125 2.3125 -1.023438 2.3125 -1.171875 C 2.3125 -1.234375 2.269531 -1.289062 2.1875 -1.34375 C 2.101562 -1.40625 1.851562 -1.519531 1.4375 -1.6875 C 1.0625 -1.84375 0.800781 -2.019531 0.65625 -2.21875 C 0.507812 -2.414062 0.4375 -2.664062 0.4375 -2.96875 C 0.4375 -3.34375 0.582031 -3.632812 0.875 -3.84375 C 1.164062 -4.0625 1.582031 -4.171875 2.125 -4.171875 C 2.394531 -4.171875 2.644531 -4.140625 2.875 -4.078125 C 3.113281 -4.023438 3.363281 -3.941406 3.625 -3.828125 L 3.234375 -2.90625 C 3.046875 -2.988281 2.847656 -3.0625 2.640625 -3.125 C 2.429688 -3.1875 2.257812 -3.21875 2.125 -3.21875 C 1.894531 -3.21875 1.78125 -3.160156 1.78125 -3.046875 C 1.78125 -2.972656 1.816406 -2.910156 1.890625 -2.859375 C 1.972656 -2.816406 2.207031 -2.71875 2.59375 -2.5625 C 2.882812 -2.445312 3.097656 -2.332031 3.234375 -2.21875 C 3.378906 -2.101562 3.484375 -1.96875 3.546875 -1.8125 C 3.617188 -1.664062 3.65625 -1.484375 3.65625 -1.265625 Z M 3.65625 -1.265625 "/></g></g><g transform="translate(135.652505, 46.521309)"><g><path d="M 2.46875 0.078125 C 1.78125 0.078125 1.25 -0.101562 0.875 -0.46875 C 0.5 -0.832031 0.3125 -1.347656 0.3125 -2.015625 C 0.3125 -2.710938 0.484375 -3.242188 0.828125 -3.609375 C 1.179688 -3.984375 1.679688 -4.171875 2.328125 -4.171875 C 2.953125 -4.171875 3.429688 -4.007812 3.765625 -3.6875 C 4.097656 -3.363281 4.265625 -2.898438 4.265625 -2.296875 L 4.265625 -1.671875 L 1.734375 -1.671875 C 1.742188 -1.441406 1.828125 -1.257812 1.984375 -1.125 C 2.148438 -1 2.367188 -0.9375 2.640625 -0.9375 C 2.890625 -0.9375 3.117188 -0.957031 3.328125 -1 C 3.535156 -1.050781 3.757812 -1.132812 4 -1.25 L 4 -0.234375 C 3.78125 -0.117188 3.550781 -0.0390625 3.3125 0 C 3.070312 0.0507812 2.789062 0.078125 2.46875 0.078125 Z M 2.390625 -3.203125 C 2.222656 -3.203125 2.082031 -3.148438 1.96875 -3.046875 C 1.851562 -2.941406 1.785156 -2.78125 1.765625 -2.5625 L 2.984375 -2.5625 C 2.972656 -2.757812 2.914062 -2.914062 2.8125 -3.03125 C 2.707031 -3.144531 2.566406 -3.203125 2.390625 -3.203125 Z M 2.390625 -3.203125 "/></g></g><g transform="translate(140.232993, 46.521309)"><g/></g><g transform="translate(142.157811, 46.521309)"><g><path d="M 2.453125 -3.328125 L 3.375 -5.28125 L 4.921875 -5.28125 L 3.171875 -2.0625 L 3.171875 0 L 1.734375 0 L 1.734375 -2.015625 L 0 -5.28125 L 1.5625 -5.28125 Z M 2.453125 -3.328125 "/></g></g><g transform="translate(147.078398, 46.521309)"><g><path d="M 4.40625 -2.0625 C 4.40625 -1.382812 4.222656 -0.859375 3.859375 -0.484375 C 3.492188 -0.109375 2.988281 0.078125 2.34375 0.078125 C 1.71875 0.078125 1.222656 -0.113281 0.859375 -0.5 C 0.492188 -0.882812 0.3125 -1.40625 0.3125 -2.0625 C 0.3125 -2.726562 0.488281 -3.242188 0.84375 -3.609375 C 1.207031 -3.984375 1.71875 -4.171875 2.375 -4.171875 C 2.769531 -4.171875 3.117188 -4.082031 3.421875 -3.90625 C 3.734375 -3.738281 3.972656 -3.492188 4.140625 -3.171875 C 4.316406 -2.859375 4.40625 -2.488281 4.40625 -2.0625 Z M 1.75 -2.0625 C 1.75 -1.707031 1.796875 -1.4375 1.890625 -1.25 C 1.984375 -1.0625 2.140625 -0.96875 2.359375 -0.96875 C 2.578125 -0.96875 2.734375 -1.0625 2.828125 -1.25 C 2.921875 -1.4375 2.96875 -1.707031 2.96875 -2.0625 C 2.96875 -2.40625 2.921875 -2.664062 2.828125 -2.84375 C 2.734375 -3.03125 2.578125 -3.125 2.359375 -3.125 C 2.140625 -3.125 1.984375 -3.03125 1.890625 -2.84375 C 1.796875 -2.664062 1.75 -2.40625 1.75 -2.0625 Z M 1.75 -2.0625 "/></g></g><g transform="translate(151.799991, 46.521309)"><g><path d="M 3.40625 0 L 3.234375 -0.515625 L 3.140625 -0.515625 C 3.023438 -0.328125 2.863281 -0.179688 2.65625 -0.078125 C 2.445312 0.0234375 2.195312 0.078125 1.90625 0.078125 C 1.457031 0.078125 1.109375 -0.0507812 0.859375 -0.3125 C 0.609375 -0.582031 0.484375 -0.953125 0.484375 -1.421875 L 0.484375 -4.09375 L 1.890625 -4.09375 L 1.890625 -1.859375 C 1.890625 -1.585938 1.925781 -1.382812 2 -1.25 C 2.082031 -1.113281 2.210938 -1.046875 2.390625 -1.046875 C 2.628906 -1.046875 2.800781 -1.140625 2.90625 -1.328125 C 3.007812 -1.523438 3.0625 -1.847656 3.0625 -2.296875 L 3.0625 -4.09375 L 4.46875 -4.09375 L 4.46875 0 Z M 3.40625 0 "/></g></g><g transform="translate(156.763996, 46.521309)"><g><path d="M 2.96875 -4.171875 C 3.082031 -4.171875 3.195312 -4.160156 3.3125 -4.140625 L 3.390625 -4.125 L 3.265625 -2.796875 C 3.148438 -2.816406 2.988281 -2.828125 2.78125 -2.828125 C 2.476562 -2.828125 2.253906 -2.753906 2.109375 -2.609375 C 1.972656 -2.472656 1.90625 -2.273438 1.90625 -2.015625 L 1.90625 0 L 0.484375 0 L 0.484375 -4.09375 L 1.546875 -4.09375 L 1.765625 -3.4375 L 1.828125 -3.4375 C 1.941406 -3.65625 2.101562 -3.832031 2.3125 -3.96875 C 2.53125 -4.101562 2.75 -4.171875 2.96875 -4.171875 Z M 2.96875 -4.171875 "/></g></g><g transform="translate(160.240969, 46.521309)"><g/></g><g transform="translate(162.165787, 46.521309)"><g><path d="M 2 -1.921875 L 2 0 L 0.578125 0 L 0.578125 -5.28125 L 2.296875 -5.28125 C 3.734375 -5.28125 4.453125 -4.757812 4.453125 -3.71875 C 4.453125 -3.113281 4.15625 -2.640625 3.5625 -2.296875 L 5.109375 0 L 3.484375 0 L 2.359375 -1.921875 Z M 2 -3 L 2.265625 -3 C 2.765625 -3 3.015625 -3.21875 3.015625 -3.65625 C 3.015625 -4.019531 2.769531 -4.203125 2.28125 -4.203125 L 2 -4.203125 Z M 2 -3 "/></g></g><g transform="translate(167.180445, 46.521309)"><g><path d="M 3.40625 0 L 3.234375 -0.515625 L 3.140625 -0.515625 C 3.023438 -0.328125 2.863281 -0.179688 2.65625 -0.078125 C 2.445312 0.0234375 2.195312 0.078125 1.90625 0.078125 C 1.457031 0.078125 1.109375 -0.0507812 0.859375 -0.3125 C 0.609375 -0.582031 0.484375 -0.953125 0.484375 -1.421875 L 0.484375 -4.09375 L 1.890625 -4.09375 L 1.890625 -1.859375 C 1.890625 -1.585938 1.925781 -1.382812 2 -1.25 C 2.082031 -1.113281 2.210938 -1.046875 2.390625 -1.046875 C 2.628906 -1.046875 2.800781 -1.140625 2.90625 -1.328125 C 3.007812 -1.523438 3.0625 -1.847656 3.0625 -2.296875 L 3.0625 -4.09375 L 4.46875 -4.09375 L 4.46875 0 Z M 3.40625 0 "/></g></g><g transform="translate(172.144449, 46.521309)"><g><path d="M 3.078125 0 L 3.078125 -2.234375 C 3.078125 -2.503906 3.035156 -2.707031 2.953125 -2.84375 C 2.878906 -2.988281 2.753906 -3.0625 2.578125 -3.0625 C 2.335938 -3.0625 2.164062 -2.960938 2.0625 -2.765625 C 1.957031 -2.578125 1.90625 -2.253906 1.90625 -1.796875 L 1.90625 0 L 0.484375 0 L 0.484375 -4.09375 L 1.5625 -4.09375 L 1.734375 -3.59375 L 1.8125 -3.59375 C 1.9375 -3.78125 2.101562 -3.921875 2.3125 -4.015625 C 2.53125 -4.117188 2.773438 -4.171875 3.046875 -4.171875 C 3.503906 -4.171875 3.859375 -4.035156 4.109375 -3.765625 C 4.359375 -3.503906 4.484375 -3.140625 4.484375 -2.671875 L 4.484375 0 Z M 3.078125 0 "/></g></g><g transform="translate(177.108453, 46.521309)"><g><path d="M 3.078125 0 L 3.078125 -2.234375 C 3.078125 -2.503906 3.035156 -2.707031 2.953125 -2.84375 C 2.878906 -2.988281 2.753906 -3.0625 2.578125 -3.0625 C 2.335938 -3.0625 2.164062 -2.960938 2.0625 -2.765625 C 1.957031 -2.578125 1.90625 -2.253906 1.90625 -1.796875 L 1.90625 0 L 0.484375 0 L 0.484375 -4.09375 L 1.5625 -4.09375 L 1.734375 -3.59375 L 1.8125 -3.59375 C 1.9375 -3.78125 2.101562 -3.921875 2.3125 -4.015625 C 2.53125 -4.117188 2.773438 -4.171875 3.046875 -4.171875 C 3.503906 -4.171875 3.859375 -4.035156 4.109375 -3.765625 C 4.359375 -3.503906 4.484375 -3.140625 4.484375 -2.671875 L 4.484375 0 Z M 3.078125 0 "/></g></g><g transform="translate(182.072458, 46.521309)"><g><path d="M 1.90625 0 L 0.5 0 L 0.5 -4.09375 L 1.90625 -4.09375 Z M 0.453125 -5.109375 C 0.453125 -5.328125 0.507812 -5.488281 0.625 -5.59375 C 0.75 -5.695312 0.941406 -5.75 1.203125 -5.75 C 1.472656 -5.75 1.664062 -5.691406 1.78125 -5.578125 C 1.90625 -5.472656 1.96875 -5.316406 1.96875 -5.109375 C 1.96875 -4.703125 1.710938 -4.5 1.203125 -4.5 C 0.703125 -4.5 0.453125 -4.703125 0.453125 -5.109375 Z M 0.453125 -5.109375 "/></g></g><g transform="translate(184.482098, 46.521309)"><g><path d="M 3.078125 0 L 3.078125 -2.234375 C 3.078125 -2.503906 3.035156 -2.707031 2.953125 -2.84375 C 2.878906 -2.988281 2.753906 -3.0625 2.578125 -3.0625 C 2.335938 -3.0625 2.164062 -2.960938 2.0625 -2.765625 C 1.957031 -2.578125 1.90625 -2.253906 1.90625 -1.796875 L 1.90625 0 L 0.484375 0 L 0.484375 -4.09375 L 1.5625 -4.09375 L 1.734375 -3.59375 L 1.8125 -3.59375 C 1.9375 -3.78125 2.101562 -3.921875 2.3125 -4.015625 C 2.53125 -4.117188 2.773438 -4.171875 3.046875 -4.171875 C 3.503906 -4.171875 3.859375 -4.035156 4.109375 -3.765625 C 4.359375 -3.503906 4.484375 -3.140625 4.484375 -2.671875 L 4.484375 0 Z M 3.078125 0 "/></g></g><g transform="translate(189.446103, 46.521309)"><g><path d="M 4.359375 -4.09375 L 4.359375 -3.40625 L 3.796875 -3.203125 C 3.867188 -3.066406 3.90625 -2.90625 3.90625 -2.71875 C 3.90625 -2.28125 3.75 -1.9375 3.4375 -1.6875 C 3.132812 -1.445312 2.675781 -1.328125 2.0625 -1.328125 C 1.90625 -1.328125 1.785156 -1.335938 1.703125 -1.359375 C 1.660156 -1.296875 1.640625 -1.234375 1.640625 -1.171875 C 1.640625 -1.109375 1.695312 -1.054688 1.8125 -1.015625 C 1.925781 -0.984375 2.078125 -0.96875 2.265625 -0.96875 L 2.9375 -0.96875 C 3.851562 -0.96875 4.3125 -0.578125 4.3125 0.203125 C 4.3125 0.703125 4.097656 1.085938 3.671875 1.359375 C 3.253906 1.640625 2.660156 1.78125 1.890625 1.78125 C 1.304688 1.78125 0.859375 1.679688 0.546875 1.484375 C 0.234375 1.296875 0.078125 1.019531 0.078125 0.65625 C 0.078125 0.164062 0.378906 -0.148438 0.984375 -0.296875 C 0.859375 -0.347656 0.75 -0.429688 0.65625 -0.546875 C 0.5625 -0.671875 0.515625 -0.789062 0.515625 -0.90625 C 0.515625 -1.03125 0.550781 -1.140625 0.625 -1.234375 C 0.695312 -1.335938 0.84375 -1.457031 1.0625 -1.59375 C 0.84375 -1.6875 0.671875 -1.832031 0.546875 -2.03125 C 0.429688 -2.226562 0.375 -2.472656 0.375 -2.765625 C 0.375 -3.210938 0.523438 -3.554688 0.828125 -3.796875 C 1.128906 -4.046875 1.566406 -4.171875 2.140625 -4.171875 C 2.210938 -4.171875 2.335938 -4.160156 2.515625 -4.140625 C 2.703125 -4.128906 2.835938 -4.113281 2.921875 -4.09375 Z M 1.265625 0.515625 C 1.265625 0.628906 1.328125 0.71875 1.453125 0.78125 C 1.578125 0.851562 1.742188 0.890625 1.953125 0.890625 C 2.296875 0.890625 2.570312 0.847656 2.78125 0.765625 C 2.988281 0.679688 3.09375 0.570312 3.09375 0.4375 C 3.09375 0.332031 3.03125 0.253906 2.90625 0.203125 C 2.78125 0.160156 2.597656 0.140625 2.359375 0.140625 L 1.8125 0.140625 C 1.65625 0.140625 1.523438 0.175781 1.421875 0.25 C 1.316406 0.320312 1.265625 0.410156 1.265625 0.515625 Z M 1.703125 -2.75 C 1.703125 -2.332031 1.847656 -2.125 2.140625 -2.125 C 2.273438 -2.125 2.378906 -2.175781 2.453125 -2.28125 C 2.535156 -2.382812 2.578125 -2.539062 2.578125 -2.75 C 2.578125 -3.175781 2.429688 -3.390625 2.140625 -3.390625 C 1.847656 -3.390625 1.703125 -3.175781 1.703125 -2.75 Z M 1.703125 -2.75 "/></g></g><g transform="translate(193.936138, 46.521309)"><g/></g><g transform="translate(195.860956, 46.521309)"><g><path d="M 5.0625 -2.75 C 5.0625 -1.875 4.816406 -1.195312 4.328125 -0.71875 C 3.847656 -0.238281 3.164062 0 2.28125 0 L 0.578125 0 L 0.578125 -5.28125 L 2.40625 -5.28125 C 3.25 -5.28125 3.898438 -5.0625 4.359375 -4.625 C 4.828125 -4.195312 5.0625 -3.570312 5.0625 -2.75 Z M 3.578125 -2.703125 C 3.578125 -3.191406 3.476562 -3.550781 3.28125 -3.78125 C 3.09375 -4.019531 2.804688 -4.140625 2.421875 -4.140625 L 2 -4.140625 L 2 -1.171875 L 2.3125 -1.171875 C 2.75 -1.171875 3.066406 -1.296875 3.265625 -1.546875 C 3.472656 -1.796875 3.578125 -2.179688 3.578125 -2.703125 Z M 3.578125 -2.703125 "/></g></g><g transform="translate(201.298929, 46.521309)"><g><path d="M 3.15625 0 L 2.890625 -0.546875 L 2.859375 -0.546875 C 2.671875 -0.304688 2.476562 -0.140625 2.28125 -0.046875 C 2.082031 0.0351562 1.828125 0.078125 1.515625 0.078125 C 1.128906 0.078125 0.820312 -0.0351562 0.59375 -0.265625 C 0.375 -0.503906 0.265625 -0.832031 0.265625 -1.25 C 0.265625 -1.6875 0.414062 -2.007812 0.71875 -2.21875 C 1.019531 -2.4375 1.460938 -2.554688 2.046875 -2.578125 L 2.734375 -2.609375 L 2.734375 -2.671875 C 2.734375 -3.003906 2.566406 -3.171875 2.234375 -3.171875 C 1.929688 -3.171875 1.550781 -3.070312 1.09375 -2.875 L 0.6875 -3.796875 C 1.15625 -4.046875 1.753906 -4.171875 2.484375 -4.171875 C 3.015625 -4.171875 3.421875 -4.039062 3.703125 -3.78125 C 3.992188 -3.519531 4.140625 -3.15625 4.140625 -2.6875 L 4.140625 0 Z M 2.109375 -0.921875 C 2.285156 -0.921875 2.429688 -0.972656 2.546875 -1.078125 C 2.671875 -1.191406 2.734375 -1.335938 2.734375 -1.515625 L 2.734375 -1.828125 L 2.40625 -1.8125 C 1.9375 -1.800781 1.703125 -1.628906 1.703125 -1.296875 C 1.703125 -1.046875 1.835938 -0.921875 2.109375 -0.921875 Z M 2.109375 -0.921875 "/></g></g><g transform="translate(205.915598, 46.521309)"><g><path d="M 2.5 -1.046875 C 2.6875 -1.046875 2.910156 -1.09375 3.171875 -1.1875 L 3.171875 -0.15625 C 2.984375 -0.0703125 2.800781 -0.015625 2.625 0.015625 C 2.457031 0.0546875 2.257812 0.078125 2.03125 0.078125 C 1.550781 0.078125 1.207031 -0.0351562 1 -0.265625 C 0.789062 -0.503906 0.6875 -0.863281 0.6875 -1.34375 L 0.6875 -3.03125 L 0.1875 -3.03125 L 0.1875 -3.609375 L 0.828125 -4.0625 L 1.1875 -4.921875 L 2.109375 -4.921875 L 2.109375 -4.09375 L 3.125 -4.09375 L 3.125 -3.03125 L 2.109375 -3.03125 L 2.109375 -1.4375 C 2.109375 -1.175781 2.238281 -1.046875 2.5 -1.046875 Z M 2.5 -1.046875 "/></g></g><g transform="translate(209.323828, 46.521309)"><g><path d="M 3.15625 0 L 2.890625 -0.546875 L 2.859375 -0.546875 C 2.671875 -0.304688 2.476562 -0.140625 2.28125 -0.046875 C 2.082031 0.0351562 1.828125 0.078125 1.515625 0.078125 C 1.128906 0.078125 0.820312 -0.0351562 0.59375 -0.265625 C 0.375 -0.503906 0.265625 -0.832031 0.265625 -1.25 C 0.265625 -1.6875 0.414062 -2.007812 0.71875 -2.21875 C 1.019531 -2.4375 1.460938 -2.554688 2.046875 -2.578125 L 2.734375 -2.609375 L 2.734375 -2.671875 C 2.734375 -3.003906 2.566406 -3.171875 2.234375 -3.171875 C 1.929688 -3.171875 1.550781 -3.070312 1.09375 -2.875 L 0.6875 -3.796875 C 1.15625 -4.046875 1.753906 -4.171875 2.484375 -4.171875 C 3.015625 -4.171875 3.421875 -4.039062 3.703125 -3.78125 C 3.992188 -3.519531 4.140625 -3.15625 4.140625 -2.6875 L 4.140625 0 Z M 2.109375 -0.921875 C 2.285156 -0.921875 2.429688 -0.972656 2.546875 -1.078125 C 2.671875 -1.191406 2.734375 -1.335938 2.734375 -1.515625 L 2.734375 -1.828125 L 2.40625 -1.8125 C 1.9375 -1.800781 1.703125 -1.628906 1.703125 -1.296875 C 1.703125 -1.046875 1.835938 -0.921875 2.109375 -0.921875 Z M 2.109375 -0.921875 "/></g></g><g transform="translate(213.940497, 46.521309)"><g><path d="M 3.65625 -1.265625 C 3.65625 -0.816406 3.503906 -0.476562 3.203125 -0.25 C 2.898438 -0.03125 2.472656 0.078125 1.921875 0.078125 C 1.617188 0.078125 1.351562 0.0546875 1.125 0.015625 C 0.894531 -0.015625 0.664062 -0.0703125 0.4375 -0.15625 L 0.4375 -1.28125 C 0.65625 -1.1875 0.894531 -1.109375 1.15625 -1.046875 C 1.414062 -0.984375 1.648438 -0.953125 1.859375 -0.953125 C 2.160156 -0.953125 2.3125 -1.023438 2.3125 -1.171875 C 2.3125 -1.234375 2.269531 -1.289062 2.1875 -1.34375 C 2.101562 -1.40625 1.851562 -1.519531 1.4375 -1.6875 C 1.0625 -1.84375 0.800781 -2.019531 0.65625 -2.21875 C 0.507812 -2.414062 0.4375 -2.664062 0.4375 -2.96875 C 0.4375 -3.34375 0.582031 -3.632812 0.875 -3.84375 C 1.164062 -4.0625 1.582031 -4.171875 2.125 -4.171875 C 2.394531 -4.171875 2.644531 -4.140625 2.875 -4.078125 C 3.113281 -4.023438 3.363281 -3.941406 3.625 -3.828125 L 3.234375 -2.90625 C 3.046875 -2.988281 2.847656 -3.0625 2.640625 -3.125 C 2.429688 -3.1875 2.257812 -3.21875 2.125 -3.21875 C 1.894531 -3.21875 1.78125 -3.160156 1.78125 -3.046875 C 1.78125 -2.972656 1.816406 -2.910156 1.890625 -2.859375 C 1.972656 -2.816406 2.207031 -2.71875 2.59375 -2.5625 C 2.882812 -2.445312 3.097656 -2.332031 3.234375 -2.21875 C 3.378906 -2.101562 3.484375 -1.96875 3.546875 -1.8125 C 3.617188 -1.664062 3.65625 -1.484375 3.65625 -1.265625 Z M 3.65625 -1.265625 "/></g></g><g transform="translate(217.891439, 46.521309)"><g><path d="M 2.46875 0.078125 C 1.78125 0.078125 1.25 -0.101562 0.875 -0.46875 C 0.5 -0.832031 0.3125 -1.347656 0.3125 -2.015625 C 0.3125 -2.710938 0.484375 -3.242188 0.828125 -3.609375 C 1.179688 -3.984375 1.679688 -4.171875 2.328125 -4.171875 C 2.953125 -4.171875 3.429688 -4.007812 3.765625 -3.6875 C 4.097656 -3.363281 4.265625 -2.898438 4.265625 -2.296875 L 4.265625 -1.671875 L 1.734375 -1.671875 C 1.742188 -1.441406 1.828125 -1.257812 1.984375 -1.125 C 2.148438 -1 2.367188 -0.9375 2.640625 -0.9375 C 2.890625 -0.9375 3.117188 -0.957031 3.328125 -1 C 3.535156 -1.050781 3.757812 -1.132812 4 -1.25 L 4 -0.234375 C 3.78125 -0.117188 3.550781 -0.0390625 3.3125 0 C 3.070312 0.0507812 2.789062 0.078125 2.46875 0.078125 Z M 2.390625 -3.203125 C 2.222656 -3.203125 2.082031 -3.148438 1.96875 -3.046875 C 1.851562 -2.941406 1.785156 -2.78125 1.765625 -2.5625 L 2.984375 -2.5625 C 2.972656 -2.757812 2.914062 -2.914062 2.8125 -3.03125 C 2.707031 -3.144531 2.566406 -3.203125 2.390625 -3.203125 Z M 2.390625 -3.203125 "/></g></g><g transform="translate(222.471927, 46.521309)"><g><path d="M 2.5 -1.046875 C 2.6875 -1.046875 2.910156 -1.09375 3.171875 -1.1875 L 3.171875 -0.15625 C 2.984375 -0.0703125 2.800781 -0.015625 2.625 0.015625 C 2.457031 0.0546875 2.257812 0.078125 2.03125 0.078125 C 1.550781 0.078125 1.207031 -0.0351562 1 -0.265625 C 0.789062 -0.503906 0.6875 -0.863281 0.6875 -1.34375 L 0.6875 -3.03125 L 0.1875 -3.03125 L 0.1875 -3.609375 L 0.828125 -4.0625 L 1.1875 -4.921875 L 2.109375 -4.921875 L 2.109375 -4.09375 L 3.125 -4.09375 L 3.125 -3.03125 L 2.109375 -3.03125 L 2.109375 -1.4375 C 2.109375 -1.175781 2.238281 -1.046875 2.5 -1.046875 Z M 2.5 -1.046875 "/></g></g><g transform="translate(225.880157, 46.521309)"><g><path d="M 3.65625 -1.265625 C 3.65625 -0.816406 3.503906 -0.476562 3.203125 -0.25 C 2.898438 -0.03125 2.472656 0.078125 1.921875 0.078125 C 1.617188 0.078125 1.351562 0.0546875 1.125 0.015625 C 0.894531 -0.015625 0.664062 -0.0703125 0.4375 -0.15625 L 0.4375 -1.28125 C 0.65625 -1.1875 0.894531 -1.109375 1.15625 -1.046875 C 1.414062 -0.984375 1.648438 -0.953125 1.859375 -0.953125 C 2.160156 -0.953125 2.3125 -1.023438 2.3125 -1.171875 C 2.3125 -1.234375 2.269531 -1.289062 2.1875 -1.34375 C 2.101562 -1.40625 1.851562 -1.519531 1.4375 -1.6875 C 1.0625 -1.84375 0.800781 -2.019531 0.65625 -2.21875 C 0.507812 -2.414062 0.4375 -2.664062 0.4375 -2.96875 C 0.4375 -3.34375 0.582031 -3.632812 0.875 -3.84375 C 1.164062 -4.0625 1.582031 -4.171875 2.125 -4.171875 C 2.394531 -4.171875 2.644531 -4.140625 2.875 -4.078125 C 3.113281 -4.023438 3.363281 -3.941406 3.625 -3.828125 L 3.234375 -2.90625 C 3.046875 -2.988281 2.847656 -3.0625 2.640625 -3.125 C 2.429688 -3.1875 2.257812 -3.21875 2.125 -3.21875 C 1.894531 -3.21875 1.78125 -3.160156 1.78125 -3.046875 C 1.78125 -2.972656 1.816406 -2.910156 1.890625 -2.859375 C 1.972656 -2.816406 2.207031 -2.71875 2.59375 -2.5625 C 2.882812 -2.445312 3.097656 -2.332031 3.234375 -2.21875 C 3.378906 -2.101562 3.484375 -1.96875 3.546875 -1.8125 C 3.617188 -1.664062 3.65625 -1.484375 3.65625 -1.265625 Z M 3.65625 -1.265625 "/></g></g></g><g fill="#b93229" fill-opacity="0.4"><g transform="translate(132.016292, 67.66773)"><g/></g></g><g fill="#ffffff" fill-opacity="1"><g transform="translate(131.246891, 66.898329)"><g/></g></g><g clip-path="url(#0a5dd69f8b)"><path fill="#ffffff" d="M 100.640625 41.59375 L 32.039062 41.59375 C 30.683594 41.59375 29.589844 42.765625 29.589844 44.21875 C 29.589844 45.667969 30.683594 46.84375 32.039062 46.84375 L 100.640625 46.84375 C 101.996094 46.84375 103.089844 45.667969 103.089844 44.21875 C 103.089844 42.765625 101.996094 41.59375 100.640625 41.59375 Z M 100.640625 41.59375 " fill-opacity="1" fill-rule="nonzero"/></g></svg>