<svg xmlns="http://www.w3.org/2000/svg" xmlns:xlink="http://www.w3.org/1999/xlink" width="350" zoomAndPan="magnify" viewBox="0 0 262.5 74.999997" height="100" preserveAspectRatio="xMidYMid meet" version="1.0"><defs><g/><clipPath id="9619a65e6c"><path d="M 34.113281 42.753906 L 109 42.753906 L 109 48.003906 L 34.113281 48.003906 Z M 34.113281 42.753906 " clip-rule="nonzero"/></clipPath></defs><g fill="#b93229" fill-opacity="0.4"><g transform="translate(27.866018, 34.020234)"><g><path d="M 9.203125 -1.515625 L 0.609375 -5.328125 L 0.609375 -6.796875 L 9.203125 -11.09375 L 9.203125 -8.5625 L 3.9375 -6.15625 L 9.203125 -4.015625 Z M 9.203125 -1.515625 "/></g></g></g><g fill="#b93229" fill-opacity="0.4"><g transform="translate(37.713003, 34.020234)"><g><path d="M 10.203125 0 L 0.515625 0 L 0.515625 -2.078125 L 5.890625 -9.71875 L 0.640625 -9.71875 L 0.640625 -12.421875 L 10.0625 -12.421875 L 10.0625 -10.359375 L 4.6875 -2.71875 L 10.203125 -2.71875 Z M 10.203125 0 "/></g></g></g><g fill="#b93229" fill-opacity="0.4"><g transform="translate(48.34163, 34.020234)"><g><path d="M 14.921875 -6.421875 C 14.921875 -5.628906 14.78125 -4.882812 14.5 -4.1875 C 14.226562 -3.5 13.847656 -2.957031 13.359375 -2.5625 C 12.867188 -2.175781 12.3125 -1.984375 11.6875 -1.984375 C 11.238281 -1.984375 10.832031 -2.070312 10.46875 -2.25 C 10.113281 -2.425781 9.832031 -2.671875 9.625 -2.984375 L 9.5 -2.984375 C 8.894531 -2.316406 8.160156 -1.984375 7.296875 -1.984375 C 6.253906 -1.984375 5.457031 -2.285156 4.90625 -2.890625 C 4.351562 -3.492188 4.078125 -4.34375 4.078125 -5.4375 C 4.078125 -6.226562 4.25 -6.929688 4.59375 -7.546875 C 4.945312 -8.160156 5.453125 -8.632812 6.109375 -8.96875 C 6.773438 -9.300781 7.546875 -9.46875 8.421875 -9.46875 C 8.878906 -9.46875 9.382812 -9.421875 9.9375 -9.328125 C 10.488281 -9.234375 10.992188 -9.109375 11.453125 -8.953125 L 11.28125 -5.359375 L 11.265625 -4.5625 C 11.265625 -4.070312 11.398438 -3.828125 11.671875 -3.828125 C 11.972656 -3.828125 12.210938 -4.070312 12.390625 -4.5625 C 12.578125 -5.0625 12.671875 -5.6875 12.671875 -6.4375 C 12.671875 -7.789062 12.285156 -8.835938 11.515625 -9.578125 C 10.753906 -10.316406 9.671875 -10.6875 8.265625 -10.6875 C 7.191406 -10.6875 6.253906 -10.460938 5.453125 -10.015625 C 4.660156 -9.566406 4.054688 -8.921875 3.640625 -8.078125 C 3.222656 -7.242188 3.015625 -6.269531 3.015625 -5.15625 C 3.015625 -3.707031 3.414062 -2.585938 4.21875 -1.796875 C 5.03125 -1.015625 6.171875 -0.625 7.640625 -0.625 C 8.296875 -0.625 9.003906 -0.691406 9.765625 -0.828125 C 10.523438 -0.972656 11.273438 -1.175781 12.015625 -1.4375 L 12.015625 0.5 C 10.742188 1.039062 9.328125 1.3125 7.765625 1.3125 C 5.566406 1.3125 3.835938 0.738281 2.578125 -0.40625 C 1.328125 -1.5625 0.703125 -3.15625 0.703125 -5.1875 C 0.703125 -6.613281 1.023438 -7.894531 1.671875 -9.03125 C 2.316406 -10.175781 3.207031 -11.054688 4.34375 -11.671875 C 5.488281 -12.285156 6.785156 -12.59375 8.234375 -12.59375 C 9.554688 -12.59375 10.726562 -12.335938 11.75 -11.828125 C 12.769531 -11.328125 13.550781 -10.609375 14.09375 -9.671875 C 14.644531 -8.742188 14.921875 -7.660156 14.921875 -6.421875 Z M 6.453125 -5.453125 C 6.453125 -4.878906 6.554688 -4.460938 6.765625 -4.203125 C 6.972656 -3.953125 7.25 -3.828125 7.59375 -3.828125 C 8.03125 -3.828125 8.347656 -4.003906 8.546875 -4.359375 C 8.753906 -4.710938 8.890625 -5.335938 8.953125 -6.234375 L 9.03125 -7.5625 C 8.800781 -7.59375 8.609375 -7.609375 8.453125 -7.609375 C 7.835938 -7.609375 7.347656 -7.414062 6.984375 -7.03125 C 6.628906 -6.65625 6.453125 -6.128906 6.453125 -5.453125 Z M 6.453125 -5.453125 "/></g></g></g><g fill="#b93229" fill-opacity="0.4"><g transform="translate(63.948972, 34.020234)"><g><path d="M 8.390625 0 L 0.421875 0 L 0.421875 -1.890625 L 4.40625 -7.09375 L 0.640625 -7.09375 L 0.640625 -9.625 L 8.203125 -9.625 L 8.203125 -7.578125 L 4.390625 -2.546875 L 8.390625 -2.546875 Z M 8.390625 0 "/></g></g></g><g fill="#b93229" fill-opacity="0.4"><g transform="translate(72.767923, 34.020234)"><g><path d="M 7.421875 0 L 6.796875 -1.28125 L 6.71875 -1.28125 C 6.269531 -0.71875 5.8125 -0.332031 5.34375 -0.125 C 4.882812 0.0703125 4.285156 0.171875 3.546875 0.171875 C 2.640625 0.171875 1.925781 -0.0976562 1.40625 -0.640625 C 0.882812 -1.191406 0.625 -1.957031 0.625 -2.9375 C 0.625 -3.96875 0.976562 -4.734375 1.6875 -5.234375 C 2.40625 -5.734375 3.441406 -6.015625 4.796875 -6.078125 L 6.40625 -6.125 L 6.40625 -6.265625 C 6.40625 -7.054688 6.015625 -7.453125 5.234375 -7.453125 C 4.535156 -7.453125 3.644531 -7.210938 2.5625 -6.734375 L 1.59375 -8.9375 C 2.71875 -9.507812 4.132812 -9.796875 5.84375 -9.796875 C 7.082031 -9.796875 8.039062 -9.488281 8.71875 -8.875 C 9.394531 -8.269531 9.734375 -7.414062 9.734375 -6.3125 L 9.734375 0 Z M 4.96875 -2.171875 C 5.363281 -2.171875 5.703125 -2.296875 5.984375 -2.546875 C 6.273438 -2.804688 6.421875 -3.140625 6.421875 -3.546875 L 6.421875 -4.296875 L 5.65625 -4.265625 C 4.5625 -4.222656 4.015625 -3.820312 4.015625 -3.0625 C 4.015625 -2.46875 4.332031 -2.171875 4.96875 -2.171875 Z M 4.96875 -2.171875 "/></g></g></g><g fill="#b93229" fill-opacity="0.4"><g transform="translate(83.608947, 34.020234)"><g><path d="M 5.53125 0.171875 C 3.957031 0.171875 2.765625 -0.25 1.953125 -1.09375 C 1.140625 -1.945312 0.734375 -3.171875 0.734375 -4.765625 C 0.734375 -6.367188 1.171875 -7.609375 2.046875 -8.484375 C 2.921875 -9.359375 4.171875 -9.796875 5.796875 -9.796875 C 6.910156 -9.796875 7.960938 -9.550781 8.953125 -9.0625 L 7.96875 -6.609375 C 7.570312 -6.785156 7.203125 -6.925781 6.859375 -7.03125 C 6.515625 -7.132812 6.160156 -7.1875 5.796875 -7.1875 C 5.253906 -7.1875 4.835938 -6.976562 4.546875 -6.5625 C 4.253906 -6.144531 4.109375 -5.550781 4.109375 -4.78125 C 4.109375 -3.238281 4.675781 -2.46875 5.8125 -2.46875 C 6.789062 -2.46875 7.726562 -2.753906 8.625 -3.328125 L 8.625 -0.6875 C 7.757812 -0.113281 6.726562 0.171875 5.53125 0.171875 Z M 5.53125 0.171875 "/></g></g></g><g fill="#b93229" fill-opacity="0.4"><g transform="translate(92.988642, 34.020234)"><g><path d="M 4.484375 0 L 1.171875 0 L 1.171875 -9.625 L 4.484375 -9.625 Z M 1.078125 -12.03125 C 1.078125 -12.53125 1.210938 -12.898438 1.484375 -13.140625 C 1.765625 -13.378906 2.21875 -13.5 2.84375 -13.5 C 3.457031 -13.5 3.90625 -13.375 4.1875 -13.125 C 4.46875 -12.875 4.609375 -12.507812 4.609375 -12.03125 C 4.609375 -11.050781 4.019531 -10.5625 2.84375 -10.5625 C 1.664062 -10.5625 1.078125 -11.050781 1.078125 -12.03125 Z M 1.078125 -12.03125 "/></g></g></g><g fill="#b93229" fill-opacity="0.4"><g transform="translate(98.647045, 34.020234)"><g><path d="M 5.859375 -2.453125 C 6.304688 -2.453125 6.84375 -2.5625 7.46875 -2.78125 L 7.46875 -0.359375 C 7.019531 -0.171875 6.59375 -0.0351562 6.1875 0.046875 C 5.78125 0.128906 5.304688 0.171875 4.765625 0.171875 C 3.648438 0.171875 2.84375 -0.0976562 2.34375 -0.640625 C 1.851562 -1.191406 1.609375 -2.035156 1.609375 -3.171875 L 1.609375 -7.140625 L 0.453125 -7.140625 L 0.453125 -8.484375 L 1.921875 -9.53125 L 2.78125 -11.5625 L 4.96875 -11.5625 L 4.96875 -9.625 L 7.328125 -9.625 L 7.328125 -7.140625 L 4.96875 -7.140625 L 4.96875 -3.390625 C 4.96875 -2.765625 5.265625 -2.453125 5.859375 -2.453125 Z M 5.859375 -2.453125 "/></g></g></g><g fill="#b93229" fill-opacity="0.4"><g transform="translate(106.650371, 34.020234)"><g><path d="M 9.59375 -6.203125 C 9.59375 -3.992188 9.222656 -2.378906 8.484375 -1.359375 C 7.742188 -0.335938 6.613281 0.171875 5.09375 0.171875 C 3.613281 0.171875 2.492188 -0.359375 1.734375 -1.421875 C 0.984375 -2.492188 0.609375 -4.085938 0.609375 -6.203125 C 0.609375 -8.410156 0.976562 -10.03125 1.71875 -11.0625 C 2.457031 -12.09375 3.582031 -12.609375 5.09375 -12.609375 C 6.570312 -12.609375 7.691406 -12.070312 8.453125 -11 C 9.210938 -9.925781 9.59375 -8.328125 9.59375 -6.203125 Z M 3.953125 -6.203125 C 3.953125 -4.796875 4.039062 -3.828125 4.21875 -3.296875 C 4.394531 -2.765625 4.6875 -2.5 5.09375 -2.5 C 5.519531 -2.5 5.816406 -2.769531 5.984375 -3.3125 C 6.160156 -3.863281 6.25 -4.828125 6.25 -6.203125 C 6.25 -7.578125 6.160156 -8.539062 5.984375 -9.09375 C 5.804688 -9.644531 5.507812 -9.921875 5.09375 -9.921875 C 4.6875 -9.921875 4.394531 -9.65625 4.21875 -9.125 C 4.039062 -8.59375 3.953125 -7.617188 3.953125 -6.203125 Z M 3.953125 -6.203125 "/></g></g></g><g fill="#b93229" fill-opacity="0.4"><g transform="translate(116.845691, 34.020234)"><g><path d="M 4.046875 -12.421875 L 3.703125 -7.9375 L 1.375 -7.9375 L 1.03125 -12.421875 Z M 4.046875 -12.421875 "/></g></g></g><g fill="#b93229" fill-opacity="0.4"><g transform="translate(121.926359, 34.020234)"><g><path d="M 8.578125 -2.953125 C 8.578125 -1.921875 8.222656 -1.140625 7.515625 -0.609375 C 6.816406 -0.0859375 5.8125 0.171875 4.5 0.171875 C 3.789062 0.171875 3.171875 0.128906 2.640625 0.046875 C 2.117188 -0.0234375 1.582031 -0.160156 1.03125 -0.359375 L 1.03125 -3.03125 C 1.539062 -2.800781 2.101562 -2.613281 2.71875 -2.46875 C 3.332031 -2.320312 3.882812 -2.25 4.375 -2.25 C 5.09375 -2.25 5.453125 -2.410156 5.453125 -2.734375 C 5.453125 -2.898438 5.347656 -3.050781 5.140625 -3.1875 C 4.941406 -3.320312 4.359375 -3.582031 3.390625 -3.96875 C 2.503906 -4.332031 1.882812 -4.742188 1.53125 -5.203125 C 1.1875 -5.660156 1.015625 -6.242188 1.015625 -6.953125 C 1.015625 -7.847656 1.359375 -8.546875 2.046875 -9.046875 C 2.734375 -9.546875 3.710938 -9.796875 4.984375 -9.796875 C 5.617188 -9.796875 6.210938 -9.726562 6.765625 -9.59375 C 7.328125 -9.457031 7.90625 -9.253906 8.5 -8.984375 L 7.609375 -6.84375 C 7.160156 -7.039062 6.691406 -7.207031 6.203125 -7.34375 C 5.710938 -7.488281 5.3125 -7.5625 5 -7.5625 C 4.457031 -7.5625 4.1875 -7.425781 4.1875 -7.15625 C 4.1875 -6.988281 4.28125 -6.847656 4.46875 -6.734375 C 4.65625 -6.617188 5.203125 -6.382812 6.109375 -6.03125 C 6.785156 -5.75 7.285156 -5.472656 7.609375 -5.203125 C 7.941406 -4.941406 8.1875 -4.628906 8.34375 -4.265625 C 8.5 -3.910156 8.578125 -3.472656 8.578125 -2.953125 Z M 8.578125 -2.953125 "/></g></g></g><g fill="#b93229" fill-opacity="0.4"><g transform="translate(131.2041, 34.020234)"><g/></g></g><g fill="#b93229" fill-opacity="0.4"><g transform="translate(135.724026, 34.020234)"><g><path d="M 10.359375 -8.46875 C 10.359375 -7.082031 9.945312 -6.007812 9.125 -5.25 C 8.3125 -4.5 7.148438 -4.125 5.640625 -4.125 L 4.703125 -4.125 L 4.703125 0 L 1.34375 0 L 1.34375 -12.421875 L 5.640625 -12.421875 C 7.210938 -12.421875 8.390625 -12.078125 9.171875 -11.390625 C 9.960938 -10.710938 10.359375 -9.738281 10.359375 -8.46875 Z M 4.703125 -6.859375 L 5.3125 -6.859375 C 5.8125 -6.859375 6.207031 -7 6.5 -7.28125 C 6.800781 -7.5625 6.953125 -7.953125 6.953125 -8.453125 C 6.953125 -9.296875 6.488281 -9.71875 5.5625 -9.71875 L 4.703125 -9.71875 Z M 4.703125 -6.859375 "/></g></g></g><g fill="#b93229" fill-opacity="0.4"><g transform="translate(146.717979, 34.020234)"><g><path d="M 4.46875 0 L 1.140625 0 L 1.140625 -13.21875 L 4.46875 -13.21875 Z M 4.46875 0 "/></g></g></g><g fill="#b93229" fill-opacity="0.4"><g transform="translate(152.342398, 34.020234)"><g><path d="M 7.421875 0 L 6.796875 -1.28125 L 6.71875 -1.28125 C 6.269531 -0.71875 5.8125 -0.332031 5.34375 -0.125 C 4.882812 0.0703125 4.285156 0.171875 3.546875 0.171875 C 2.640625 0.171875 1.925781 -0.0976562 1.40625 -0.640625 C 0.882812 -1.191406 0.625 -1.957031 0.625 -2.9375 C 0.625 -3.96875 0.976562 -4.734375 1.6875 -5.234375 C 2.40625 -5.734375 3.441406 -6.015625 4.796875 -6.078125 L 6.40625 -6.125 L 6.40625 -6.265625 C 6.40625 -7.054688 6.015625 -7.453125 5.234375 -7.453125 C 4.535156 -7.453125 3.644531 -7.210938 2.5625 -6.734375 L 1.59375 -8.9375 C 2.71875 -9.507812 4.132812 -9.796875 5.84375 -9.796875 C 7.082031 -9.796875 8.039062 -9.488281 8.71875 -8.875 C 9.394531 -8.269531 9.734375 -7.414062 9.734375 -6.3125 L 9.734375 0 Z M 4.96875 -2.171875 C 5.363281 -2.171875 5.703125 -2.296875 5.984375 -2.546875 C 6.273438 -2.804688 6.421875 -3.140625 6.421875 -3.546875 L 6.421875 -4.296875 L 5.65625 -4.265625 C 4.5625 -4.222656 4.015625 -3.820312 4.015625 -3.0625 C 4.015625 -2.46875 4.332031 -2.171875 4.96875 -2.171875 Z M 4.96875 -2.171875 "/></g></g></g><g fill="#b93229" fill-opacity="0.4"><g transform="translate(163.183421, 34.020234)"><g><path d="M -0.015625 -9.625 L 3.484375 -9.625 L 5.109375 -4.109375 C 5.191406 -3.816406 5.25 -3.46875 5.28125 -3.0625 L 5.34375 -3.0625 C 5.382812 -3.445312 5.453125 -3.789062 5.546875 -4.09375 L 7.21875 -9.625 L 10.609375 -9.625 L 6.8125 0.609375 C 6.320312 1.910156 5.71875 2.832031 5 3.375 C 4.289062 3.914062 3.367188 4.1875 2.234375 4.1875 C 1.785156 4.1875 1.328125 4.132812 0.859375 4.03125 L 0.859375 1.421875 C 1.160156 1.492188 1.503906 1.53125 1.890625 1.53125 C 2.191406 1.53125 2.453125 1.472656 2.671875 1.359375 C 2.890625 1.242188 3.082031 1.082031 3.25 0.875 C 3.414062 0.664062 3.59375 0.328125 3.78125 -0.140625 Z M -0.015625 -9.625 "/></g></g></g><g fill="#b93229" fill-opacity="0.4"><g transform="translate(173.795056, 34.020234)"><g><path d="M 7.03125 -9.796875 C 8.070312 -9.796875 8.898438 -9.359375 9.515625 -8.484375 C 10.140625 -7.609375 10.453125 -6.394531 10.453125 -4.84375 C 10.453125 -3.269531 10.140625 -2.039062 9.515625 -1.15625 C 8.890625 -0.269531 8.023438 0.171875 6.921875 0.171875 C 6.566406 0.171875 6.25 0.128906 5.96875 0.046875 C 5.695312 -0.0234375 5.453125 -0.128906 5.234375 -0.265625 C 5.015625 -0.398438 4.757812 -0.625 4.46875 -0.9375 L 4.265625 -0.9375 L 3.734375 0 L 1.140625 0 L 1.140625 -13.21875 L 4.46875 -13.21875 L 4.46875 -10.234375 C 4.46875 -9.878906 4.429688 -9.265625 4.359375 -8.390625 L 4.46875 -8.390625 C 4.789062 -8.890625 5.160156 -9.25 5.578125 -9.46875 C 6.003906 -9.6875 6.488281 -9.796875 7.03125 -9.796875 Z M 5.8125 -7.1875 C 5.34375 -7.1875 5 -7.023438 4.78125 -6.703125 C 4.570312 -6.378906 4.46875 -5.875 4.46875 -5.1875 L 4.46875 -4.71875 C 4.46875 -3.925781 4.570312 -3.359375 4.78125 -3.015625 C 5 -2.671875 5.351562 -2.5 5.84375 -2.5 C 6.238281 -2.5 6.539062 -2.695312 6.75 -3.09375 C 6.957031 -3.5 7.0625 -4.09375 7.0625 -4.875 C 7.0625 -6.414062 6.644531 -7.1875 5.8125 -7.1875 Z M 5.8125 -7.1875 "/></g></g></g><g fill="#b93229" fill-opacity="0.4"><g transform="translate(184.984425, 34.020234)"><g><path d="M 10.34375 -4.84375 C 10.34375 -3.257812 9.914062 -2.023438 9.0625 -1.140625 C 8.21875 -0.265625 7.035156 0.171875 5.515625 0.171875 C 4.054688 0.171875 2.894531 -0.273438 2.03125 -1.171875 C 1.164062 -2.078125 0.734375 -3.300781 0.734375 -4.84375 C 0.734375 -6.40625 1.15625 -7.617188 2 -8.484375 C 2.84375 -9.359375 4.03125 -9.796875 5.5625 -9.796875 C 6.507812 -9.796875 7.34375 -9.59375 8.0625 -9.1875 C 8.789062 -8.789062 9.351562 -8.21875 9.75 -7.46875 C 10.144531 -6.71875 10.34375 -5.84375 10.34375 -4.84375 Z M 4.109375 -4.84375 C 4.109375 -4.007812 4.21875 -3.375 4.4375 -2.9375 C 4.65625 -2.507812 5.023438 -2.296875 5.546875 -2.296875 C 6.066406 -2.296875 6.429688 -2.507812 6.640625 -2.9375 C 6.847656 -3.375 6.953125 -4.007812 6.953125 -4.84375 C 6.953125 -5.65625 6.84375 -6.269531 6.625 -6.6875 C 6.414062 -7.113281 6.050781 -7.328125 5.53125 -7.328125 C 5.019531 -7.328125 4.65625 -7.117188 4.4375 -6.703125 C 4.21875 -6.285156 4.109375 -5.664062 4.109375 -4.84375 Z M 4.109375 -4.84375 "/></g></g></g><g fill="#b93229" fill-opacity="0.4"><g transform="translate(196.071841, 34.020234)"><g><path d="M 10.34375 -4.84375 C 10.34375 -3.257812 9.914062 -2.023438 9.0625 -1.140625 C 8.21875 -0.265625 7.035156 0.171875 5.515625 0.171875 C 4.054688 0.171875 2.894531 -0.273438 2.03125 -1.171875 C 1.164062 -2.078125 0.734375 -3.300781 0.734375 -4.84375 C 0.734375 -6.40625 1.15625 -7.617188 2 -8.484375 C 2.84375 -9.359375 4.03125 -9.796875 5.5625 -9.796875 C 6.507812 -9.796875 7.34375 -9.59375 8.0625 -9.1875 C 8.789062 -8.789062 9.351562 -8.21875 9.75 -7.46875 C 10.144531 -6.71875 10.34375 -5.84375 10.34375 -4.84375 Z M 4.109375 -4.84375 C 4.109375 -4.007812 4.21875 -3.375 4.4375 -2.9375 C 4.65625 -2.507812 5.023438 -2.296875 5.546875 -2.296875 C 6.066406 -2.296875 6.429688 -2.507812 6.640625 -2.9375 C 6.847656 -3.375 6.953125 -4.007812 6.953125 -4.84375 C 6.953125 -5.65625 6.84375 -6.269531 6.625 -6.6875 C 6.414062 -7.113281 6.050781 -7.328125 5.53125 -7.328125 C 5.019531 -7.328125 4.65625 -7.117188 4.4375 -6.703125 C 4.21875 -6.285156 4.109375 -5.664062 4.109375 -4.84375 Z M 4.109375 -4.84375 "/></g></g></g><g fill="#b93229" fill-opacity="0.4"><g transform="translate(207.159257, 34.020234)"><g><path d="M 4.375 -5.40625 C 4.769531 -6.050781 5.109375 -6.550781 5.390625 -6.90625 L 7.5625 -9.625 L 11.265625 -9.625 L 7.921875 -5.53125 L 11.46875 0 L 7.671875 0 L 5.5625 -3.453125 L 4.484375 -2.625 L 4.484375 0 L 1.140625 0 L 1.140625 -13.21875 L 4.484375 -13.21875 L 4.484375 -8.015625 C 4.484375 -7.128906 4.421875 -6.257812 4.296875 -5.40625 Z M 4.375 -5.40625 "/></g></g></g><g fill="#b93229" fill-opacity="0.4"><g transform="translate(218.628993, 34.020234)"><g><path d="M 7.65625 -12.609375 L 3.03125 0.171875 L 0.078125 0.171875 L 4.71875 -12.609375 Z M 7.65625 -12.609375 "/></g></g></g><g fill="#b93229" fill-opacity="0.4"><g transform="translate(226.317979, 34.020234)"><g><path d="M 0.609375 -4.015625 L 5.875 -6.15625 L 0.609375 -8.5625 L 0.609375 -11.09375 L 9.203125 -6.796875 L 9.203125 -5.328125 L 0.609375 -1.515625 Z M 0.609375 -4.015625 "/></g></g></g><g fill="#ffffff" fill-opacity="1"><g transform="translate(27.096615, 33.250832)"><g><path d="M 9.203125 -1.515625 L 0.609375 -5.328125 L 0.609375 -6.796875 L 9.203125 -11.09375 L 9.203125 -8.5625 L 3.9375 -6.15625 L 9.203125 -4.015625 Z M 9.203125 -1.515625 "/></g></g></g><g fill="#ffffff" fill-opacity="1"><g transform="translate(36.9436, 33.250832)"><g><path d="M 10.203125 0 L 0.515625 0 L 0.515625 -2.078125 L 5.890625 -9.71875 L 0.640625 -9.71875 L 0.640625 -12.421875 L 10.0625 -12.421875 L 10.0625 -10.359375 L 4.6875 -2.71875 L 10.203125 -2.71875 Z M 10.203125 0 "/></g></g></g><g fill="#ffffff" fill-opacity="1"><g transform="translate(47.572227, 33.250832)"><g><path d="M 14.921875 -6.421875 C 14.921875 -5.628906 14.78125 -4.882812 14.5 -4.1875 C 14.226562 -3.5 13.847656 -2.957031 13.359375 -2.5625 C 12.867188 -2.175781 12.3125 -1.984375 11.6875 -1.984375 C 11.238281 -1.984375 10.832031 -2.070312 10.46875 -2.25 C 10.113281 -2.425781 9.832031 -2.671875 9.625 -2.984375 L 9.5 -2.984375 C 8.894531 -2.316406 8.160156 -1.984375 7.296875 -1.984375 C 6.253906 -1.984375 5.457031 -2.285156 4.90625 -2.890625 C 4.351562 -3.492188 4.078125 -4.34375 4.078125 -5.4375 C 4.078125 -6.226562 4.25 -6.929688 4.59375 -7.546875 C 4.945312 -8.160156 5.453125 -8.632812 6.109375 -8.96875 C 6.773438 -9.300781 7.546875 -9.46875 8.421875 -9.46875 C 8.878906 -9.46875 9.382812 -9.421875 9.9375 -9.328125 C 10.488281 -9.234375 10.992188 -9.109375 11.453125 -8.953125 L 11.28125 -5.359375 L 11.265625 -4.5625 C 11.265625 -4.070312 11.398438 -3.828125 11.671875 -3.828125 C 11.972656 -3.828125 12.210938 -4.070312 12.390625 -4.5625 C 12.578125 -5.0625 12.671875 -5.6875 12.671875 -6.4375 C 12.671875 -7.789062 12.285156 -8.835938 11.515625 -9.578125 C 10.753906 -10.316406 9.671875 -10.6875 8.265625 -10.6875 C 7.191406 -10.6875 6.253906 -10.460938 5.453125 -10.015625 C 4.660156 -9.566406 4.054688 -8.921875 3.640625 -8.078125 C 3.222656 -7.242188 3.015625 -6.269531 3.015625 -5.15625 C 3.015625 -3.707031 3.414062 -2.585938 4.21875 -1.796875 C 5.03125 -1.015625 6.171875 -0.625 7.640625 -0.625 C 8.296875 -0.625 9.003906 -0.691406 9.765625 -0.828125 C 10.523438 -0.972656 11.273438 -1.175781 12.015625 -1.4375 L 12.015625 0.5 C 10.742188 1.039062 9.328125 1.3125 7.765625 1.3125 C 5.566406 1.3125 3.835938 0.738281 2.578125 -0.40625 C 1.328125 -1.5625 0.703125 -3.15625 0.703125 -5.1875 C 0.703125 -6.613281 1.023438 -7.894531 1.671875 -9.03125 C 2.316406 -10.175781 3.207031 -11.054688 4.34375 -11.671875 C 5.488281 -12.285156 6.785156 -12.59375 8.234375 -12.59375 C 9.554688 -12.59375 10.726562 -12.335938 11.75 -11.828125 C 12.769531 -11.328125 13.550781 -10.609375 14.09375 -9.671875 C 14.644531 -8.742188 14.921875 -7.660156 14.921875 -6.421875 Z M 6.453125 -5.453125 C 6.453125 -4.878906 6.554688 -4.460938 6.765625 -4.203125 C 6.972656 -3.953125 7.25 -3.828125 7.59375 -3.828125 C 8.03125 -3.828125 8.347656 -4.003906 8.546875 -4.359375 C 8.753906 -4.710938 8.890625 -5.335938 8.953125 -6.234375 L 9.03125 -7.5625 C 8.800781 -7.59375 8.609375 -7.609375 8.453125 -7.609375 C 7.835938 -7.609375 7.347656 -7.414062 6.984375 -7.03125 C 6.628906 -6.65625 6.453125 -6.128906 6.453125 -5.453125 Z M 6.453125 -5.453125 "/></g></g></g><g fill="#ffffff" fill-opacity="1"><g transform="translate(63.179568, 33.250832)"><g><path d="M 8.390625 0 L 0.421875 0 L 0.421875 -1.890625 L 4.40625 -7.09375 L 0.640625 -7.09375 L 0.640625 -9.625 L 8.203125 -9.625 L 8.203125 -7.578125 L 4.390625 -2.546875 L 8.390625 -2.546875 Z M 8.390625 0 "/></g></g></g><g fill="#ffffff" fill-opacity="1"><g transform="translate(71.99852, 33.250832)"><g><path d="M 7.421875 0 L 6.796875 -1.28125 L 6.71875 -1.28125 C 6.269531 -0.71875 5.8125 -0.332031 5.34375 -0.125 C 4.882812 0.0703125 4.285156 0.171875 3.546875 0.171875 C 2.640625 0.171875 1.925781 -0.0976562 1.40625 -0.640625 C 0.882812 -1.191406 0.625 -1.957031 0.625 -2.9375 C 0.625 -3.96875 0.976562 -4.734375 1.6875 -5.234375 C 2.40625 -5.734375 3.441406 -6.015625 4.796875 -6.078125 L 6.40625 -6.125 L 6.40625 -6.265625 C 6.40625 -7.054688 6.015625 -7.453125 5.234375 -7.453125 C 4.535156 -7.453125 3.644531 -7.210938 2.5625 -6.734375 L 1.59375 -8.9375 C 2.71875 -9.507812 4.132812 -9.796875 5.84375 -9.796875 C 7.082031 -9.796875 8.039062 -9.488281 8.71875 -8.875 C 9.394531 -8.269531 9.734375 -7.414062 9.734375 -6.3125 L 9.734375 0 Z M 4.96875 -2.171875 C 5.363281 -2.171875 5.703125 -2.296875 5.984375 -2.546875 C 6.273438 -2.804688 6.421875 -3.140625 6.421875 -3.546875 L 6.421875 -4.296875 L 5.65625 -4.265625 C 4.5625 -4.222656 4.015625 -3.820312 4.015625 -3.0625 C 4.015625 -2.46875 4.332031 -2.171875 4.96875 -2.171875 Z M 4.96875 -2.171875 "/></g></g></g><g fill="#ffffff" fill-opacity="1"><g transform="translate(82.839544, 33.250832)"><g><path d="M 5.53125 0.171875 C 3.957031 0.171875 2.765625 -0.25 1.953125 -1.09375 C 1.140625 -1.945312 0.734375 -3.171875 0.734375 -4.765625 C 0.734375 -6.367188 1.171875 -7.609375 2.046875 -8.484375 C 2.921875 -9.359375 4.171875 -9.796875 5.796875 -9.796875 C 6.910156 -9.796875 7.960938 -9.550781 8.953125 -9.0625 L 7.96875 -6.609375 C 7.570312 -6.785156 7.203125 -6.925781 6.859375 -7.03125 C 6.515625 -7.132812 6.160156 -7.1875 5.796875 -7.1875 C 5.253906 -7.1875 4.835938 -6.976562 4.546875 -6.5625 C 4.253906 -6.144531 4.109375 -5.550781 4.109375 -4.78125 C 4.109375 -3.238281 4.675781 -2.46875 5.8125 -2.46875 C 6.789062 -2.46875 7.726562 -2.753906 8.625 -3.328125 L 8.625 -0.6875 C 7.757812 -0.113281 6.726562 0.171875 5.53125 0.171875 Z M 5.53125 0.171875 "/></g></g></g><g fill="#ffffff" fill-opacity="1"><g transform="translate(92.219239, 33.250832)"><g><path d="M 4.484375 0 L 1.171875 0 L 1.171875 -9.625 L 4.484375 -9.625 Z M 1.078125 -12.03125 C 1.078125 -12.53125 1.210938 -12.898438 1.484375 -13.140625 C 1.765625 -13.378906 2.21875 -13.5 2.84375 -13.5 C 3.457031 -13.5 3.90625 -13.375 4.1875 -13.125 C 4.46875 -12.875 4.609375 -12.507812 4.609375 -12.03125 C 4.609375 -11.050781 4.019531 -10.5625 2.84375 -10.5625 C 1.664062 -10.5625 1.078125 -11.050781 1.078125 -12.03125 Z M 1.078125 -12.03125 "/></g></g></g><g fill="#ffffff" fill-opacity="1"><g transform="translate(97.877641, 33.250832)"><g><path d="M 5.859375 -2.453125 C 6.304688 -2.453125 6.84375 -2.5625 7.46875 -2.78125 L 7.46875 -0.359375 C 7.019531 -0.171875 6.59375 -0.0351562 6.1875 0.046875 C 5.78125 0.128906 5.304688 0.171875 4.765625 0.171875 C 3.648438 0.171875 2.84375 -0.0976562 2.34375 -0.640625 C 1.851562 -1.191406 1.609375 -2.035156 1.609375 -3.171875 L 1.609375 -7.140625 L 0.453125 -7.140625 L 0.453125 -8.484375 L 1.921875 -9.53125 L 2.78125 -11.5625 L 4.96875 -11.5625 L 4.96875 -9.625 L 7.328125 -9.625 L 7.328125 -7.140625 L 4.96875 -7.140625 L 4.96875 -3.390625 C 4.96875 -2.765625 5.265625 -2.453125 5.859375 -2.453125 Z M 5.859375 -2.453125 "/></g></g></g><g fill="#ffffff" fill-opacity="1"><g transform="translate(105.880968, 33.250832)"><g><path d="M 9.59375 -6.203125 C 9.59375 -3.992188 9.222656 -2.378906 8.484375 -1.359375 C 7.742188 -0.335938 6.613281 0.171875 5.09375 0.171875 C 3.613281 0.171875 2.492188 -0.359375 1.734375 -1.421875 C 0.984375 -2.492188 0.609375 -4.085938 0.609375 -6.203125 C 0.609375 -8.410156 0.976562 -10.03125 1.71875 -11.0625 C 2.457031 -12.09375 3.582031 -12.609375 5.09375 -12.609375 C 6.570312 -12.609375 7.691406 -12.070312 8.453125 -11 C 9.210938 -9.925781 9.59375 -8.328125 9.59375 -6.203125 Z M 3.953125 -6.203125 C 3.953125 -4.796875 4.039062 -3.828125 4.21875 -3.296875 C 4.394531 -2.765625 4.6875 -2.5 5.09375 -2.5 C 5.519531 -2.5 5.816406 -2.769531 5.984375 -3.3125 C 6.160156 -3.863281 6.25 -4.828125 6.25 -6.203125 C 6.25 -7.578125 6.160156 -8.539062 5.984375 -9.09375 C 5.804688 -9.644531 5.507812 -9.921875 5.09375 -9.921875 C 4.6875 -9.921875 4.394531 -9.65625 4.21875 -9.125 C 4.039062 -8.59375 3.953125 -7.617188 3.953125 -6.203125 Z M 3.953125 -6.203125 "/></g></g></g><g fill="#ffffff" fill-opacity="1"><g transform="translate(116.076288, 33.250832)"><g><path d="M 4.046875 -12.421875 L 3.703125 -7.9375 L 1.375 -7.9375 L 1.03125 -12.421875 Z M 4.046875 -12.421875 "/></g></g></g><g fill="#ffffff" fill-opacity="1"><g transform="translate(121.156956, 33.250832)"><g><path d="M 8.578125 -2.953125 C 8.578125 -1.921875 8.222656 -1.140625 7.515625 -0.609375 C 6.816406 -0.0859375 5.8125 0.171875 4.5 0.171875 C 3.789062 0.171875 3.171875 0.128906 2.640625 0.046875 C 2.117188 -0.0234375 1.582031 -0.160156 1.03125 -0.359375 L 1.03125 -3.03125 C 1.539062 -2.800781 2.101562 -2.613281 2.71875 -2.46875 C 3.332031 -2.320312 3.882812 -2.25 4.375 -2.25 C 5.09375 -2.25 5.453125 -2.410156 5.453125 -2.734375 C 5.453125 -2.898438 5.347656 -3.050781 5.140625 -3.1875 C 4.941406 -3.320312 4.359375 -3.582031 3.390625 -3.96875 C 2.503906 -4.332031 1.882812 -4.742188 1.53125 -5.203125 C 1.1875 -5.660156 1.015625 -6.242188 1.015625 -6.953125 C 1.015625 -7.847656 1.359375 -8.546875 2.046875 -9.046875 C 2.734375 -9.546875 3.710938 -9.796875 4.984375 -9.796875 C 5.617188 -9.796875 6.210938 -9.726562 6.765625 -9.59375 C 7.328125 -9.457031 7.90625 -9.253906 8.5 -8.984375 L 7.609375 -6.84375 C 7.160156 -7.039062 6.691406 -7.207031 6.203125 -7.34375 C 5.710938 -7.488281 5.3125 -7.5625 5 -7.5625 C 4.457031 -7.5625 4.1875 -7.425781 4.1875 -7.15625 C 4.1875 -6.988281 4.28125 -6.847656 4.46875 -6.734375 C 4.65625 -6.617188 5.203125 -6.382812 6.109375 -6.03125 C 6.785156 -5.75 7.285156 -5.472656 7.609375 -5.203125 C 7.941406 -4.941406 8.1875 -4.628906 8.34375 -4.265625 C 8.5 -3.910156 8.578125 -3.472656 8.578125 -2.953125 Z M 8.578125 -2.953125 "/></g></g></g><g fill="#ffffff" fill-opacity="1"><g transform="translate(130.434697, 33.250832)"><g/></g></g><g fill="#ffffff" fill-opacity="1"><g transform="translate(134.954623, 33.250832)"><g><path d="M 10.359375 -8.46875 C 10.359375 -7.082031 9.945312 -6.007812 9.125 -5.25 C 8.3125 -4.5 7.148438 -4.125 5.640625 -4.125 L 4.703125 -4.125 L 4.703125 0 L 1.34375 0 L 1.34375 -12.421875 L 5.640625 -12.421875 C 7.210938 -12.421875 8.390625 -12.078125 9.171875 -11.390625 C 9.960938 -10.710938 10.359375 -9.738281 10.359375 -8.46875 Z M 4.703125 -6.859375 L 5.3125 -6.859375 C 5.8125 -6.859375 6.207031 -7 6.5 -7.28125 C 6.800781 -7.5625 6.953125 -7.953125 6.953125 -8.453125 C 6.953125 -9.296875 6.488281 -9.71875 5.5625 -9.71875 L 4.703125 -9.71875 Z M 4.703125 -6.859375 "/></g></g></g><g fill="#ffffff" fill-opacity="1"><g transform="translate(145.948576, 33.250832)"><g><path d="M 4.46875 0 L 1.140625 0 L 1.140625 -13.21875 L 4.46875 -13.21875 Z M 4.46875 0 "/></g></g></g><g fill="#ffffff" fill-opacity="1"><g transform="translate(151.572994, 33.250832)"><g><path d="M 7.421875 0 L 6.796875 -1.28125 L 6.71875 -1.28125 C 6.269531 -0.71875 5.8125 -0.332031 5.34375 -0.125 C 4.882812 0.0703125 4.285156 0.171875 3.546875 0.171875 C 2.640625 0.171875 1.925781 -0.0976562 1.40625 -0.640625 C 0.882812 -1.191406 0.625 -1.957031 0.625 -2.9375 C 0.625 -3.96875 0.976562 -4.734375 1.6875 -5.234375 C 2.40625 -5.734375 3.441406 -6.015625 4.796875 -6.078125 L 6.40625 -6.125 L 6.40625 -6.265625 C 6.40625 -7.054688 6.015625 -7.453125 5.234375 -7.453125 C 4.535156 -7.453125 3.644531 -7.210938 2.5625 -6.734375 L 1.59375 -8.9375 C 2.71875 -9.507812 4.132812 -9.796875 5.84375 -9.796875 C 7.082031 -9.796875 8.039062 -9.488281 8.71875 -8.875 C 9.394531 -8.269531 9.734375 -7.414062 9.734375 -6.3125 L 9.734375 0 Z M 4.96875 -2.171875 C 5.363281 -2.171875 5.703125 -2.296875 5.984375 -2.546875 C 6.273438 -2.804688 6.421875 -3.140625 6.421875 -3.546875 L 6.421875 -4.296875 L 5.65625 -4.265625 C 4.5625 -4.222656 4.015625 -3.820312 4.015625 -3.0625 C 4.015625 -2.46875 4.332031 -2.171875 4.96875 -2.171875 Z M 4.96875 -2.171875 "/></g></g></g><g fill="#ffffff" fill-opacity="1"><g transform="translate(162.414018, 33.250832)"><g><path d="M -0.015625 -9.625 L 3.484375 -9.625 L 5.109375 -4.109375 C 5.191406 -3.816406 5.25 -3.46875 5.28125 -3.0625 L 5.34375 -3.0625 C 5.382812 -3.445312 5.453125 -3.789062 5.546875 -4.09375 L 7.21875 -9.625 L 10.609375 -9.625 L 6.8125 0.609375 C 6.320312 1.910156 5.71875 2.832031 5 3.375 C 4.289062 3.914062 3.367188 4.1875 2.234375 4.1875 C 1.785156 4.1875 1.328125 4.132812 0.859375 4.03125 L 0.859375 1.421875 C 1.160156 1.492188 1.503906 1.53125 1.890625 1.53125 C 2.191406 1.53125 2.453125 1.472656 2.671875 1.359375 C 2.890625 1.242188 3.082031 1.082031 3.25 0.875 C 3.414062 0.664062 3.59375 0.328125 3.78125 -0.140625 Z M -0.015625 -9.625 "/></g></g></g><g fill="#ffffff" fill-opacity="1"><g transform="translate(173.025653, 33.250832)"><g><path d="M 7.03125 -9.796875 C 8.070312 -9.796875 8.898438 -9.359375 9.515625 -8.484375 C 10.140625 -7.609375 10.453125 -6.394531 10.453125 -4.84375 C 10.453125 -3.269531 10.140625 -2.039062 9.515625 -1.15625 C 8.890625 -0.269531 8.023438 0.171875 6.921875 0.171875 C 6.566406 0.171875 6.25 0.128906 5.96875 0.046875 C 5.695312 -0.0234375 5.453125 -0.128906 5.234375 -0.265625 C 5.015625 -0.398438 4.757812 -0.625 4.46875 -0.9375 L 4.265625 -0.9375 L 3.734375 0 L 1.140625 0 L 1.140625 -13.21875 L 4.46875 -13.21875 L 4.46875 -10.234375 C 4.46875 -9.878906 4.429688 -9.265625 4.359375 -8.390625 L 4.46875 -8.390625 C 4.789062 -8.890625 5.160156 -9.25 5.578125 -9.46875 C 6.003906 -9.6875 6.488281 -9.796875 7.03125 -9.796875 Z M 5.8125 -7.1875 C 5.34375 -7.1875 5 -7.023438 4.78125 -6.703125 C 4.570312 -6.378906 4.46875 -5.875 4.46875 -5.1875 L 4.46875 -4.71875 C 4.46875 -3.925781 4.570312 -3.359375 4.78125 -3.015625 C 5 -2.671875 5.351562 -2.5 5.84375 -2.5 C 6.238281 -2.5 6.539062 -2.695312 6.75 -3.09375 C 6.957031 -3.5 7.0625 -4.09375 7.0625 -4.875 C 7.0625 -6.414062 6.644531 -7.1875 5.8125 -7.1875 Z M 5.8125 -7.1875 "/></g></g></g><g fill="#ffffff" fill-opacity="1"><g transform="translate(184.215022, 33.250832)"><g><path d="M 10.34375 -4.84375 C 10.34375 -3.257812 9.914062 -2.023438 9.0625 -1.140625 C 8.21875 -0.265625 7.035156 0.171875 5.515625 0.171875 C 4.054688 0.171875 2.894531 -0.273438 2.03125 -1.171875 C 1.164062 -2.078125 0.734375 -3.300781 0.734375 -4.84375 C 0.734375 -6.40625 1.15625 -7.617188 2 -8.484375 C 2.84375 -9.359375 4.03125 -9.796875 5.5625 -9.796875 C 6.507812 -9.796875 7.34375 -9.59375 8.0625 -9.1875 C 8.789062 -8.789062 9.351562 -8.21875 9.75 -7.46875 C 10.144531 -6.71875 10.34375 -5.84375 10.34375 -4.84375 Z M 4.109375 -4.84375 C 4.109375 -4.007812 4.21875 -3.375 4.4375 -2.9375 C 4.65625 -2.507812 5.023438 -2.296875 5.546875 -2.296875 C 6.066406 -2.296875 6.429688 -2.507812 6.640625 -2.9375 C 6.847656 -3.375 6.953125 -4.007812 6.953125 -4.84375 C 6.953125 -5.65625 6.84375 -6.269531 6.625 -6.6875 C 6.414062 -7.113281 6.050781 -7.328125 5.53125 -7.328125 C 5.019531 -7.328125 4.65625 -7.117188 4.4375 -6.703125 C 4.21875 -6.285156 4.109375 -5.664062 4.109375 -4.84375 Z M 4.109375 -4.84375 "/></g></g></g><g fill="#ffffff" fill-opacity="1"><g transform="translate(195.302438, 33.250832)"><g><path d="M 10.34375 -4.84375 C 10.34375 -3.257812 9.914062 -2.023438 9.0625 -1.140625 C 8.21875 -0.265625 7.035156 0.171875 5.515625 0.171875 C 4.054688 0.171875 2.894531 -0.273438 2.03125 -1.171875 C 1.164062 -2.078125 0.734375 -3.300781 0.734375 -4.84375 C 0.734375 -6.40625 1.15625 -7.617188 2 -8.484375 C 2.84375 -9.359375 4.03125 -9.796875 5.5625 -9.796875 C 6.507812 -9.796875 7.34375 -9.59375 8.0625 -9.1875 C 8.789062 -8.789062 9.351562 -8.21875 9.75 -7.46875 C 10.144531 -6.71875 10.34375 -5.84375 10.34375 -4.84375 Z M 4.109375 -4.84375 C 4.109375 -4.007812 4.21875 -3.375 4.4375 -2.9375 C 4.65625 -2.507812 5.023438 -2.296875 5.546875 -2.296875 C 6.066406 -2.296875 6.429688 -2.507812 6.640625 -2.9375 C 6.847656 -3.375 6.953125 -4.007812 6.953125 -4.84375 C 6.953125 -5.65625 6.84375 -6.269531 6.625 -6.6875 C 6.414062 -7.113281 6.050781 -7.328125 5.53125 -7.328125 C 5.019531 -7.328125 4.65625 -7.117188 4.4375 -6.703125 C 4.21875 -6.285156 4.109375 -5.664062 4.109375 -4.84375 Z M 4.109375 -4.84375 "/></g></g></g><g fill="#ffffff" fill-opacity="1"><g transform="translate(206.389854, 33.250832)"><g><path d="M 4.375 -5.40625 C 4.769531 -6.050781 5.109375 -6.550781 5.390625 -6.90625 L 7.5625 -9.625 L 11.265625 -9.625 L 7.921875 -5.53125 L 11.46875 0 L 7.671875 0 L 5.5625 -3.453125 L 4.484375 -2.625 L 4.484375 0 L 1.140625 0 L 1.140625 -13.21875 L 4.484375 -13.21875 L 4.484375 -8.015625 C 4.484375 -7.128906 4.421875 -6.257812 4.296875 -5.40625 Z M 4.375 -5.40625 "/></g></g></g><g fill="#ffffff" fill-opacity="1"><g transform="translate(217.859589, 33.250832)"><g><path d="M 7.65625 -12.609375 L 3.03125 0.171875 L 0.078125 0.171875 L 4.71875 -12.609375 Z M 7.65625 -12.609375 "/></g></g></g><g fill="#ffffff" fill-opacity="1"><g transform="translate(225.548576, 33.250832)"><g><path d="M 0.609375 -4.015625 L 5.875 -6.15625 L 0.609375 -8.5625 L 0.609375 -11.09375 L 9.203125 -6.796875 L 9.203125 -5.328125 L 0.609375 -1.515625 Z M 0.609375 -4.015625 "/></g></g></g><g fill="#b93229" fill-opacity="0.4"><g transform="translate(28.533986, 48.036607)"><g/></g><g transform="translate(30.718569, 48.036607)"><g/></g><g transform="translate(32.903152, 48.036607)"><g/></g><g transform="translate(35.087735, 48.036607)"><g/></g><g transform="translate(37.272319, 48.036607)"><g/></g><g transform="translate(39.456902, 48.036607)"><g/></g><g transform="translate(41.641485, 48.036607)"><g/></g><g transform="translate(43.826068, 48.036607)"><g/></g><g transform="translate(46.010651, 48.036607)"><g/></g><g transform="translate(48.195234, 48.036607)"><g/></g><g transform="translate(50.379818, 48.036607)"><g/></g><g transform="translate(52.564401, 48.036607)"><g/></g><g transform="translate(54.748984, 48.036607)"><g/></g><g transform="translate(56.933567, 48.036607)"><g/></g><g transform="translate(59.11815, 48.036607)"><g/></g><g transform="translate(61.302734, 48.036607)"><g/></g><g transform="translate(63.487317, 48.036607)"><g/></g><g transform="translate(65.6719, 48.036607)"><g/></g><g transform="translate(67.856483, 48.036607)"><g/></g><g transform="translate(70.041066, 48.036607)"><g/></g><g transform="translate(72.22565, 48.036607)"><g/></g><g transform="translate(74.410233, 48.036607)"><g/></g><g transform="translate(76.594816, 48.036607)"><g/></g><g transform="translate(78.779399, 48.036607)"><g/></g><g transform="translate(80.963982, 48.036607)"><g/></g><g transform="translate(83.148566, 48.036607)"><g/></g><g transform="translate(85.333149, 48.036607)"><g/></g><g transform="translate(87.517732, 48.036607)"><g/></g><g transform="translate(89.702315, 48.036607)"><g/></g><g transform="translate(91.886898, 48.036607)"><g/></g><g transform="translate(94.071481, 48.036607)"><g/></g><g transform="translate(96.256065, 48.036607)"><g/></g><g transform="translate(98.440648, 48.036607)"><g/></g><g transform="translate(100.625231, 48.036607)"><g/></g><g transform="translate(102.809814, 48.036607)"><g/></g><g transform="translate(104.994397, 48.036607)"><g/></g><g transform="translate(107.178981, 48.036607)"><g/></g><g transform="translate(109.363564, 48.036607)"><g/></g></g><g fill="#ffffff" fill-opacity="1"><g transform="translate(27.764583, 47.267205)"><g/></g><g transform="translate(29.949166, 47.267205)"><g/></g><g transform="translate(32.133749, 47.267205)"><g/></g><g transform="translate(34.318332, 47.267205)"><g/></g><g transform="translate(36.502915, 47.267205)"><g/></g><g transform="translate(38.687499, 47.267205)"><g/></g><g transform="translate(40.872082, 47.267205)"><g/></g><g transform="translate(43.056665, 47.267205)"><g/></g><g transform="translate(45.241248, 47.267205)"><g/></g><g transform="translate(47.425831, 47.267205)"><g/></g><g transform="translate(49.610415, 47.267205)"><g/></g><g transform="translate(51.794998, 47.267205)"><g/></g><g transform="translate(53.979581, 47.267205)"><g/></g><g transform="translate(56.164164, 47.267205)"><g/></g><g transform="translate(58.348747, 47.267205)"><g/></g><g transform="translate(60.53333, 47.267205)"><g/></g><g transform="translate(62.717914, 47.267205)"><g/></g><g transform="translate(64.902497, 47.267205)"><g/></g><g transform="translate(67.08708, 47.267205)"><g/></g><g transform="translate(69.271663, 47.267205)"><g/></g><g transform="translate(71.456246, 47.267205)"><g/></g><g transform="translate(73.64083, 47.267205)"><g/></g><g transform="translate(75.825413, 47.267205)"><g/></g><g transform="translate(78.009996, 47.267205)"><g/></g><g transform="translate(80.194579, 47.267205)"><g/></g><g transform="translate(82.379162, 47.267205)"><g/></g><g transform="translate(84.563746, 47.267205)"><g/></g><g transform="translate(86.748329, 47.267205)"><g/></g><g transform="translate(88.932912, 47.267205)"><g/></g><g transform="translate(91.117495, 47.267205)"><g/></g><g transform="translate(93.302078, 47.267205)"><g/></g><g transform="translate(95.486662, 47.267205)"><g/></g><g transform="translate(97.671245, 47.267205)"><g/></g><g transform="translate(99.855828, 47.267205)"><g/></g><g transform="translate(102.040411, 47.267205)"><g/></g><g transform="translate(104.224994, 47.267205)"><g/></g><g transform="translate(106.409577, 47.267205)"><g/></g><g transform="translate(108.594161, 47.267205)"><g/></g></g><g fill="#b93229" fill-opacity="0.4"><g transform="translate(111.548145, 48.036607)"><g><path d="M 0.65625 -6 L 2.734375 -6 C 3.554688 -6 4.164062 -5.878906 4.5625 -5.640625 C 4.957031 -5.398438 5.15625 -5.019531 5.15625 -4.5 C 5.15625 -4.164062 5.066406 -3.878906 4.890625 -3.640625 C 4.722656 -3.398438 4.5 -3.25 4.21875 -3.1875 L 4.21875 -3.140625 C 4.582031 -3.046875 4.847656 -2.882812 5.015625 -2.65625 C 5.179688 -2.425781 5.265625 -2.125 5.265625 -1.75 C 5.265625 -1.207031 5.0625 -0.78125 4.65625 -0.46875 C 4.25 -0.15625 3.691406 0 2.984375 0 L 0.65625 0 Z M 2.265625 -3.703125 L 2.765625 -3.703125 C 2.992188 -3.703125 3.171875 -3.75 3.296875 -3.84375 C 3.421875 -3.9375 3.484375 -4.078125 3.484375 -4.265625 C 3.484375 -4.609375 3.226562 -4.78125 2.71875 -4.78125 L 2.265625 -4.78125 Z M 2.265625 -2.515625 L 2.265625 -1.25 L 2.84375 -1.25 C 3.34375 -1.25 3.59375 -1.460938 3.59375 -1.890625 C 3.59375 -2.085938 3.523438 -2.238281 3.390625 -2.34375 C 3.253906 -2.457031 3.0625 -2.515625 2.8125 -2.515625 Z M 2.265625 -2.515625 "/></g></g><g transform="translate(117.214921, 48.036607)"><g><path d="M 3.59375 0 L 3.28125 -0.609375 L 3.25 -0.609375 C 3.03125 -0.347656 2.804688 -0.164062 2.578125 -0.0625 C 2.359375 0.03125 2.070312 0.078125 1.71875 0.078125 C 1.28125 0.078125 0.929688 -0.0507812 0.671875 -0.3125 C 0.421875 -0.570312 0.296875 -0.941406 0.296875 -1.421875 C 0.296875 -1.910156 0.46875 -2.273438 0.8125 -2.515625 C 1.164062 -2.765625 1.664062 -2.90625 2.3125 -2.9375 L 3.09375 -2.953125 L 3.09375 -3.03125 C 3.09375 -3.40625 2.90625 -3.59375 2.53125 -3.59375 C 2.1875 -3.59375 1.753906 -3.476562 1.234375 -3.25 L 0.765625 -4.3125 C 1.304688 -4.59375 1.992188 -4.734375 2.828125 -4.734375 C 3.421875 -4.734375 3.878906 -4.582031 4.203125 -4.28125 C 4.535156 -3.988281 4.703125 -3.578125 4.703125 -3.046875 L 4.703125 0 Z M 2.390625 -1.046875 C 2.585938 -1.046875 2.753906 -1.109375 2.890625 -1.234375 C 3.035156 -1.359375 3.109375 -1.519531 3.109375 -1.71875 L 3.109375 -2.078125 L 2.734375 -2.0625 C 2.203125 -2.039062 1.9375 -1.847656 1.9375 -1.484375 C 1.9375 -1.191406 2.085938 -1.046875 2.390625 -1.046875 Z M 2.390625 -1.046875 "/></g></g><g transform="translate(122.454636, 48.036607)"><g><path d="M 2.15625 0 L 0.546875 0 L 0.546875 -6.390625 L 2.15625 -6.390625 Z M 2.15625 0 "/></g></g><g transform="translate(125.173046, 48.036607)"><g><path d="M 2.15625 0 L 0.546875 0 L 0.546875 -6.390625 L 2.15625 -6.390625 Z M 2.15625 0 "/></g></g><g transform="translate(127.891456, 48.036607)"><g/></g><g transform="translate(130.076039, 48.036607)"><g><path d="M 0.65625 0 L 0.65625 -6 L 2.28125 -6 L 2.28125 0 Z M 0.65625 0 "/></g></g><g transform="translate(133.003873, 48.036607)"><g><path d="M 3.484375 0 L 3.484375 -2.53125 C 3.484375 -2.84375 3.4375 -3.078125 3.34375 -3.234375 C 3.257812 -3.390625 3.117188 -3.46875 2.921875 -3.46875 C 2.648438 -3.46875 2.453125 -3.359375 2.328125 -3.140625 C 2.210938 -2.929688 2.15625 -2.5625 2.15625 -2.03125 L 2.15625 0 L 0.546875 0 L 0.546875 -4.65625 L 1.765625 -4.65625 L 1.96875 -4.078125 L 2.0625 -4.078125 C 2.195312 -4.296875 2.382812 -4.457031 2.625 -4.5625 C 2.875 -4.675781 3.15625 -4.734375 3.46875 -4.734375 C 3.976562 -4.734375 4.375 -4.582031 4.65625 -4.28125 C 4.945312 -3.988281 5.09375 -3.570312 5.09375 -3.03125 L 5.09375 0 Z M 3.484375 0 "/></g></g><g transform="translate(138.637798, 48.036607)"><g/></g><g transform="translate(140.822381, 48.036607)"><g><path d="M 5 -4.09375 C 5 -3.425781 4.800781 -2.90625 4.40625 -2.53125 C 4.007812 -2.164062 3.445312 -1.984375 2.71875 -1.984375 L 2.265625 -1.984375 L 2.265625 0 L 0.65625 0 L 0.65625 -6 L 2.71875 -6 C 3.476562 -6 4.046875 -5.832031 4.421875 -5.5 C 4.804688 -5.164062 5 -4.695312 5 -4.09375 Z M 2.265625 -3.3125 L 2.5625 -3.3125 C 2.8125 -3.3125 3.003906 -3.378906 3.140625 -3.515625 C 3.285156 -3.648438 3.359375 -3.835938 3.359375 -4.078125 C 3.359375 -4.484375 3.132812 -4.6875 2.6875 -4.6875 L 2.265625 -4.6875 Z M 2.265625 -3.3125 "/></g></g><g transform="translate(146.13601, 48.036607)"><g><path d="M 2.15625 0 L 0.546875 0 L 0.546875 -6.390625 L 2.15625 -6.390625 Z M 2.15625 0 "/></g></g><g transform="translate(148.85442, 48.036607)"><g><path d="M 3.59375 0 L 3.28125 -0.609375 L 3.25 -0.609375 C 3.03125 -0.347656 2.804688 -0.164062 2.578125 -0.0625 C 2.359375 0.03125 2.070312 0.078125 1.71875 0.078125 C 1.28125 0.078125 0.929688 -0.0507812 0.671875 -0.3125 C 0.421875 -0.570312 0.296875 -0.941406 0.296875 -1.421875 C 0.296875 -1.910156 0.46875 -2.273438 0.8125 -2.515625 C 1.164062 -2.765625 1.664062 -2.90625 2.3125 -2.9375 L 3.09375 -2.953125 L 3.09375 -3.03125 C 3.09375 -3.40625 2.90625 -3.59375 2.53125 -3.59375 C 2.1875 -3.59375 1.753906 -3.476562 1.234375 -3.25 L 0.765625 -4.3125 C 1.304688 -4.59375 1.992188 -4.734375 2.828125 -4.734375 C 3.421875 -4.734375 3.878906 -4.582031 4.203125 -4.28125 C 4.535156 -3.988281 4.703125 -3.578125 4.703125 -3.046875 L 4.703125 0 Z M 2.390625 -1.046875 C 2.585938 -1.046875 2.753906 -1.109375 2.890625 -1.234375 C 3.035156 -1.359375 3.109375 -1.519531 3.109375 -1.71875 L 3.109375 -2.078125 L 2.734375 -2.0625 C 2.203125 -2.039062 1.9375 -1.847656 1.9375 -1.484375 C 1.9375 -1.191406 2.085938 -1.046875 2.390625 -1.046875 Z M 2.390625 -1.046875 "/></g></g><g transform="translate(154.094134, 48.036607)"><g><path d="M -0.015625 -4.65625 L 1.6875 -4.65625 L 2.46875 -1.984375 C 2.507812 -1.835938 2.535156 -1.671875 2.546875 -1.484375 L 2.578125 -1.484375 C 2.597656 -1.671875 2.632812 -1.832031 2.6875 -1.96875 L 3.484375 -4.65625 L 5.125 -4.65625 L 3.28125 0.296875 C 3.050781 0.921875 2.765625 1.363281 2.421875 1.625 C 2.078125 1.882812 1.628906 2.015625 1.078125 2.015625 C 0.859375 2.015625 0.640625 1.992188 0.421875 1.953125 L 0.421875 0.6875 C 0.566406 0.71875 0.734375 0.734375 0.921875 0.734375 C 1.054688 0.734375 1.175781 0.707031 1.28125 0.65625 C 1.394531 0.601562 1.488281 0.523438 1.5625 0.421875 C 1.644531 0.328125 1.734375 0.164062 1.828125 -0.0625 Z M -0.015625 -4.65625 "/></g></g><g transform="translate(159.222977, 48.036607)"><g/></g><g transform="translate(161.40756, 48.036607)"><g><path d="M 4.6875 0 L 4.28125 -0.421875 C 4.03125 -0.265625 3.828125 -0.15625 3.671875 -0.09375 C 3.515625 -0.0390625 3.335938 0 3.140625 0.03125 C 2.941406 0.0625 2.71875 0.078125 2.46875 0.078125 C 2.039062 0.078125 1.660156 0.00390625 1.328125 -0.140625 C 0.992188 -0.285156 0.738281 -0.488281 0.5625 -0.75 C 0.382812 -1.019531 0.296875 -1.328125 0.296875 -1.671875 C 0.296875 -2.378906 0.664062 -2.925781 1.40625 -3.3125 C 1.238281 -3.5 1.109375 -3.703125 1.015625 -3.921875 C 0.921875 -4.140625 0.875 -4.382812 0.875 -4.65625 C 0.875 -5.09375 1.039062 -5.4375 1.375 -5.6875 C 1.71875 -5.945312 2.1875 -6.078125 2.78125 -6.078125 C 3.351562 -6.078125 3.800781 -5.945312 4.125 -5.6875 C 4.445312 -5.4375 4.609375 -5.09375 4.609375 -4.65625 C 4.609375 -4.34375 4.519531 -4.054688 4.34375 -3.796875 C 4.164062 -3.546875 3.890625 -3.304688 3.515625 -3.078125 L 4.34375 -2.296875 C 4.539062 -2.617188 4.679688 -2.976562 4.765625 -3.375 L 6.4375 -3.375 C 6.351562 -2.988281 6.222656 -2.609375 6.046875 -2.234375 C 5.867188 -1.859375 5.671875 -1.535156 5.453125 -1.265625 L 6.765625 0 Z M 1.953125 -1.78125 C 1.953125 -1.601562 2.007812 -1.457031 2.125 -1.34375 C 2.25 -1.238281 2.414062 -1.1875 2.625 -1.1875 C 2.78125 -1.1875 2.914062 -1.207031 3.03125 -1.25 C 3.144531 -1.289062 3.234375 -1.335938 3.296875 -1.390625 L 2.28125 -2.4375 C 2.0625 -2.257812 1.953125 -2.039062 1.953125 -1.78125 Z M 3.15625 -4.65625 C 3.15625 -4.789062 3.113281 -4.882812 3.03125 -4.9375 C 2.957031 -5 2.863281 -5.03125 2.75 -5.03125 C 2.632812 -5.03125 2.53125 -4.992188 2.4375 -4.921875 C 2.351562 -4.859375 2.3125 -4.75 2.3125 -4.59375 C 2.3125 -4.394531 2.4375 -4.1875 2.6875 -3.96875 C 2.84375 -4.050781 2.957031 -4.148438 3.03125 -4.265625 C 3.113281 -4.390625 3.15625 -4.519531 3.15625 -4.65625 Z M 3.15625 -4.65625 "/></g></g><g transform="translate(168.125564, 48.036607)"><g/></g><g transform="translate(170.310147, 48.036607)"><g><path d="M 5.75 -3.125 C 5.75 -2.125 5.472656 -1.351562 4.921875 -0.8125 C 4.367188 -0.269531 3.59375 0 2.59375 0 L 0.65625 0 L 0.65625 -6 L 2.71875 -6 C 3.6875 -6 4.429688 -5.75 4.953125 -5.25 C 5.484375 -4.757812 5.75 -4.050781 5.75 -3.125 Z M 4.0625 -3.0625 C 4.0625 -3.613281 3.953125 -4.019531 3.734375 -4.28125 C 3.515625 -4.550781 3.179688 -4.6875 2.734375 -4.6875 L 2.265625 -4.6875 L 2.265625 -1.328125 L 2.625 -1.328125 C 3.125 -1.328125 3.488281 -1.46875 3.71875 -1.75 C 3.945312 -2.039062 4.0625 -2.476562 4.0625 -3.0625 Z M 4.0625 -3.0625 "/></g></g><g transform="translate(176.482005, 48.036607)"><g><path d="M 3.359375 -4.734375 C 3.503906 -4.734375 3.640625 -4.722656 3.765625 -4.703125 L 3.84375 -4.6875 L 3.703125 -3.171875 C 3.578125 -3.203125 3.394531 -3.21875 3.15625 -3.21875 C 2.8125 -3.21875 2.554688 -3.132812 2.390625 -2.96875 C 2.234375 -2.8125 2.15625 -2.582031 2.15625 -2.28125 L 2.15625 0 L 0.546875 0 L 0.546875 -4.65625 L 1.75 -4.65625 L 2 -3.90625 L 2.078125 -3.90625 C 2.210938 -4.15625 2.398438 -4.351562 2.640625 -4.5 C 2.878906 -4.65625 3.117188 -4.734375 3.359375 -4.734375 Z M 3.359375 -4.734375 "/></g></g><g transform="translate(180.428217, 48.036607)"><g><path d="M 2.171875 0 L 0.5625 0 L 0.5625 -4.65625 L 2.171875 -4.65625 Z M 0.515625 -5.8125 C 0.515625 -6.050781 0.582031 -6.226562 0.71875 -6.34375 C 0.851562 -6.457031 1.070312 -6.515625 1.375 -6.515625 C 1.664062 -6.515625 1.878906 -6.453125 2.015625 -6.328125 C 2.160156 -6.210938 2.234375 -6.039062 2.234375 -5.8125 C 2.234375 -5.34375 1.945312 -5.109375 1.375 -5.109375 C 0.800781 -5.109375 0.515625 -5.34375 0.515625 -5.8125 Z M 0.515625 -5.8125 "/></g></g><g transform="translate(183.163052, 48.036607)"><g><path d="M 2.15625 0 L 0.546875 0 L 0.546875 -6.390625 L 2.15625 -6.390625 Z M 2.15625 0 "/></g></g><g transform="translate(185.881462, 48.036607)"><g><path d="M 2.15625 0 L 0.546875 0 L 0.546875 -6.390625 L 2.15625 -6.390625 Z M 2.15625 0 "/></g></g><g transform="translate(188.599872, 48.036607)"><g/></g><g transform="translate(190.784455, 48.036607)"><g><path d="M 3.328125 -4.75 C 2.929688 -4.75 2.625 -4.59375 2.40625 -4.28125 C 2.195312 -3.96875 2.09375 -3.53125 2.09375 -2.96875 C 2.09375 -1.820312 2.53125 -1.25 3.40625 -1.25 C 3.675781 -1.25 3.9375 -1.285156 4.1875 -1.359375 C 4.4375 -1.429688 4.6875 -1.519531 4.9375 -1.625 L 4.9375 -0.25 C 4.4375 -0.03125 3.867188 0.078125 3.234375 0.078125 C 2.328125 0.078125 1.628906 -0.179688 1.140625 -0.703125 C 0.660156 -1.234375 0.421875 -1.992188 0.421875 -2.984375 C 0.421875 -3.609375 0.535156 -4.15625 0.765625 -4.625 C 1.003906 -5.09375 1.34375 -5.453125 1.78125 -5.703125 C 2.226562 -5.960938 2.75 -6.09375 3.34375 -6.09375 C 3.988281 -6.09375 4.609375 -5.953125 5.203125 -5.671875 L 4.703125 -4.390625 C 4.484375 -4.492188 4.257812 -4.578125 4.03125 -4.640625 C 3.8125 -4.710938 3.578125 -4.75 3.328125 -4.75 Z M 3.328125 -4.75 "/></g></g><g transform="translate(196.241806, 48.036607)"><g><path d="M 3.59375 0 L 3.28125 -0.609375 L 3.25 -0.609375 C 3.03125 -0.347656 2.804688 -0.164062 2.578125 -0.0625 C 2.359375 0.03125 2.070312 0.078125 1.71875 0.078125 C 1.28125 0.078125 0.929688 -0.0507812 0.671875 -0.3125 C 0.421875 -0.570312 0.296875 -0.941406 0.296875 -1.421875 C 0.296875 -1.910156 0.46875 -2.273438 0.8125 -2.515625 C 1.164062 -2.765625 1.664062 -2.90625 2.3125 -2.9375 L 3.09375 -2.953125 L 3.09375 -3.03125 C 3.09375 -3.40625 2.90625 -3.59375 2.53125 -3.59375 C 2.1875 -3.59375 1.753906 -3.476562 1.234375 -3.25 L 0.765625 -4.3125 C 1.304688 -4.59375 1.992188 -4.734375 2.828125 -4.734375 C 3.421875 -4.734375 3.878906 -4.582031 4.203125 -4.28125 C 4.535156 -3.988281 4.703125 -3.578125 4.703125 -3.046875 L 4.703125 0 Z M 2.390625 -1.046875 C 2.585938 -1.046875 2.753906 -1.109375 2.890625 -1.234375 C 3.035156 -1.359375 3.109375 -1.519531 3.109375 -1.71875 L 3.109375 -2.078125 L 2.734375 -2.0625 C 2.203125 -2.039062 1.9375 -1.847656 1.9375 -1.484375 C 1.9375 -1.191406 2.085938 -1.046875 2.390625 -1.046875 Z M 2.390625 -1.046875 "/></g></g><g transform="translate(201.481521, 48.036607)"><g><path d="M 2.15625 0 L 0.546875 0 L 0.546875 -6.390625 L 2.15625 -6.390625 Z M 2.15625 0 "/></g></g><g transform="translate(204.199931, 48.036607)"><g><path d="M 2.671875 0.078125 C 1.910156 0.078125 1.332031 -0.125 0.9375 -0.53125 C 0.550781 -0.945312 0.359375 -1.535156 0.359375 -2.296875 C 0.359375 -3.066406 0.566406 -3.664062 0.984375 -4.09375 C 1.410156 -4.519531 2.015625 -4.734375 2.796875 -4.734375 C 3.335938 -4.734375 3.847656 -4.613281 4.328125 -4.375 L 3.84375 -3.1875 C 3.65625 -3.28125 3.476562 -3.347656 3.3125 -3.390625 C 3.144531 -3.441406 2.972656 -3.46875 2.796875 -3.46875 C 2.535156 -3.46875 2.332031 -3.363281 2.1875 -3.15625 C 2.050781 -2.957031 1.984375 -2.675781 1.984375 -2.3125 C 1.984375 -1.5625 2.257812 -1.1875 2.8125 -1.1875 C 3.28125 -1.1875 3.726562 -1.328125 4.15625 -1.609375 L 4.15625 -0.328125 C 3.75 -0.0546875 3.253906 0.078125 2.671875 0.078125 Z M 2.671875 0.078125 "/></g></g><g transform="translate(208.733352, 48.036607)"><g><path d="M 3.859375 0 L 3.671875 -0.578125 L 3.578125 -0.578125 C 3.441406 -0.367188 3.253906 -0.207031 3.015625 -0.09375 C 2.773438 0.0195312 2.492188 0.078125 2.171875 0.078125 C 1.660156 0.078125 1.257812 -0.0664062 0.96875 -0.359375 C 0.6875 -0.660156 0.546875 -1.082031 0.546875 -1.625 L 0.546875 -4.65625 L 2.15625 -4.65625 L 2.15625 -2.109375 C 2.15625 -1.804688 2.195312 -1.578125 2.28125 -1.421875 C 2.363281 -1.265625 2.503906 -1.1875 2.703125 -1.1875 C 2.984375 -1.1875 3.179688 -1.296875 3.296875 -1.515625 C 3.410156 -1.734375 3.46875 -2.097656 3.46875 -2.609375 L 3.46875 -4.65625 L 5.078125 -4.65625 L 5.078125 0 Z M 3.859375 0 "/></g></g><g transform="translate(214.367277, 48.036607)"><g><path d="M 2.15625 0 L 0.546875 0 L 0.546875 -6.390625 L 2.15625 -6.390625 Z M 2.15625 0 "/></g></g><g transform="translate(217.085686, 48.036607)"><g><path d="M 3.59375 0 L 3.28125 -0.609375 L 3.25 -0.609375 C 3.03125 -0.347656 2.804688 -0.164062 2.578125 -0.0625 C 2.359375 0.03125 2.070312 0.078125 1.71875 0.078125 C 1.28125 0.078125 0.929688 -0.0507812 0.671875 -0.3125 C 0.421875 -0.570312 0.296875 -0.941406 0.296875 -1.421875 C 0.296875 -1.910156 0.46875 -2.273438 0.8125 -2.515625 C 1.164062 -2.765625 1.664062 -2.90625 2.3125 -2.9375 L 3.09375 -2.953125 L 3.09375 -3.03125 C 3.09375 -3.40625 2.90625 -3.59375 2.53125 -3.59375 C 2.1875 -3.59375 1.753906 -3.476562 1.234375 -3.25 L 0.765625 -4.3125 C 1.304688 -4.59375 1.992188 -4.734375 2.828125 -4.734375 C 3.421875 -4.734375 3.878906 -4.582031 4.203125 -4.28125 C 4.535156 -3.988281 4.703125 -3.578125 4.703125 -3.046875 L 4.703125 0 Z M 2.390625 -1.046875 C 2.585938 -1.046875 2.753906 -1.109375 2.890625 -1.234375 C 3.035156 -1.359375 3.109375 -1.519531 3.109375 -1.71875 L 3.109375 -2.078125 L 2.734375 -2.0625 C 2.203125 -2.039062 1.9375 -1.847656 1.9375 -1.484375 C 1.9375 -1.191406 2.085938 -1.046875 2.390625 -1.046875 Z M 2.390625 -1.046875 "/></g></g><g transform="translate(222.325401, 48.036607)"><g><path d="M 2.828125 -1.1875 C 3.046875 -1.1875 3.304688 -1.238281 3.609375 -1.34375 L 3.609375 -0.171875 C 3.390625 -0.078125 3.179688 -0.015625 2.984375 0.015625 C 2.796875 0.0546875 2.566406 0.078125 2.296875 0.078125 C 1.765625 0.078125 1.378906 -0.0507812 1.140625 -0.3125 C 0.898438 -0.570312 0.78125 -0.976562 0.78125 -1.53125 L 0.78125 -3.453125 L 0.21875 -3.453125 L 0.21875 -4.09375 L 0.9375 -4.609375 L 1.34375 -5.578125 L 2.390625 -5.578125 L 2.390625 -4.65625 L 3.53125 -4.65625 L 3.53125 -3.453125 L 2.390625 -3.453125 L 2.390625 -1.640625 C 2.390625 -1.335938 2.535156 -1.1875 2.828125 -1.1875 Z M 2.828125 -1.1875 "/></g></g><g transform="translate(226.193591, 48.036607)"><g><path d="M 5 -2.328125 C 5 -1.566406 4.789062 -0.972656 4.375 -0.546875 C 3.96875 -0.128906 3.394531 0.078125 2.65625 0.078125 C 1.957031 0.078125 1.398438 -0.132812 0.984375 -0.5625 C 0.566406 -1 0.359375 -1.585938 0.359375 -2.328125 C 0.359375 -3.085938 0.5625 -3.675781 0.96875 -4.09375 C 1.375 -4.519531 1.945312 -4.734375 2.6875 -4.734375 C 3.144531 -4.734375 3.546875 -4.632812 3.890625 -4.4375 C 4.242188 -4.25 4.515625 -3.972656 4.703125 -3.609375 C 4.898438 -3.242188 5 -2.816406 5 -2.328125 Z M 1.984375 -2.328125 C 1.984375 -1.929688 2.035156 -1.628906 2.140625 -1.421875 C 2.242188 -1.210938 2.425781 -1.109375 2.6875 -1.109375 C 2.925781 -1.109375 3.097656 -1.210938 3.203125 -1.421875 C 3.304688 -1.628906 3.359375 -1.929688 3.359375 -2.328125 C 3.359375 -2.734375 3.304688 -3.035156 3.203125 -3.234375 C 3.097656 -3.429688 2.921875 -3.53125 2.671875 -3.53125 C 2.421875 -3.53125 2.242188 -3.429688 2.140625 -3.234375 C 2.035156 -3.035156 1.984375 -2.734375 1.984375 -2.328125 Z M 1.984375 -2.328125 "/></g></g><g transform="translate(231.55239, 48.036607)"><g><path d="M 3.359375 -4.734375 C 3.503906 -4.734375 3.640625 -4.722656 3.765625 -4.703125 L 3.84375 -4.6875 L 3.703125 -3.171875 C 3.578125 -3.203125 3.394531 -3.21875 3.15625 -3.21875 C 2.8125 -3.21875 2.554688 -3.132812 2.390625 -2.96875 C 2.234375 -2.8125 2.15625 -2.582031 2.15625 -2.28125 L 2.15625 0 L 0.546875 0 L 0.546875 -4.65625 L 1.75 -4.65625 L 2 -3.90625 L 2.078125 -3.90625 C 2.210938 -4.15625 2.398438 -4.351562 2.640625 -4.5 C 2.878906 -4.65625 3.117188 -4.734375 3.359375 -4.734375 Z M 3.359375 -4.734375 "/></g></g></g><g fill="#ffffff" fill-opacity="1"><g transform="translate(110.778742, 47.267205)"><g><path d="M 0.65625 -6 L 2.734375 -6 C 3.554688 -6 4.164062 -5.878906 4.5625 -5.640625 C 4.957031 -5.398438 5.15625 -5.019531 5.15625 -4.5 C 5.15625 -4.164062 5.066406 -3.878906 4.890625 -3.640625 C 4.722656 -3.398438 4.5 -3.25 4.21875 -3.1875 L 4.21875 -3.140625 C 4.582031 -3.046875 4.847656 -2.882812 5.015625 -2.65625 C 5.179688 -2.425781 5.265625 -2.125 5.265625 -1.75 C 5.265625 -1.207031 5.0625 -0.78125 4.65625 -0.46875 C 4.25 -0.15625 3.691406 0 2.984375 0 L 0.65625 0 Z M 2.265625 -3.703125 L 2.765625 -3.703125 C 2.992188 -3.703125 3.171875 -3.75 3.296875 -3.84375 C 3.421875 -3.9375 3.484375 -4.078125 3.484375 -4.265625 C 3.484375 -4.609375 3.226562 -4.78125 2.71875 -4.78125 L 2.265625 -4.78125 Z M 2.265625 -2.515625 L 2.265625 -1.25 L 2.84375 -1.25 C 3.34375 -1.25 3.59375 -1.460938 3.59375 -1.890625 C 3.59375 -2.085938 3.523438 -2.238281 3.390625 -2.34375 C 3.253906 -2.457031 3.0625 -2.515625 2.8125 -2.515625 Z M 2.265625 -2.515625 "/></g></g><g transform="translate(116.445518, 47.267205)"><g><path d="M 3.59375 0 L 3.28125 -0.609375 L 3.25 -0.609375 C 3.03125 -0.347656 2.804688 -0.164062 2.578125 -0.0625 C 2.359375 0.03125 2.070312 0.078125 1.71875 0.078125 C 1.28125 0.078125 0.929688 -0.0507812 0.671875 -0.3125 C 0.421875 -0.570312 0.296875 -0.941406 0.296875 -1.421875 C 0.296875 -1.910156 0.46875 -2.273438 0.8125 -2.515625 C 1.164062 -2.765625 1.664062 -2.90625 2.3125 -2.9375 L 3.09375 -2.953125 L 3.09375 -3.03125 C 3.09375 -3.40625 2.90625 -3.59375 2.53125 -3.59375 C 2.1875 -3.59375 1.753906 -3.476562 1.234375 -3.25 L 0.765625 -4.3125 C 1.304688 -4.59375 1.992188 -4.734375 2.828125 -4.734375 C 3.421875 -4.734375 3.878906 -4.582031 4.203125 -4.28125 C 4.535156 -3.988281 4.703125 -3.578125 4.703125 -3.046875 L 4.703125 0 Z M 2.390625 -1.046875 C 2.585938 -1.046875 2.753906 -1.109375 2.890625 -1.234375 C 3.035156 -1.359375 3.109375 -1.519531 3.109375 -1.71875 L 3.109375 -2.078125 L 2.734375 -2.0625 C 2.203125 -2.039062 1.9375 -1.847656 1.9375 -1.484375 C 1.9375 -1.191406 2.085938 -1.046875 2.390625 -1.046875 Z M 2.390625 -1.046875 "/></g></g><g transform="translate(121.685233, 47.267205)"><g><path d="M 2.15625 0 L 0.546875 0 L 0.546875 -6.390625 L 2.15625 -6.390625 Z M 2.15625 0 "/></g></g><g transform="translate(124.403643, 47.267205)"><g><path d="M 2.15625 0 L 0.546875 0 L 0.546875 -6.390625 L 2.15625 -6.390625 Z M 2.15625 0 "/></g></g><g transform="translate(127.122052, 47.267205)"><g/></g><g transform="translate(129.306636, 47.267205)"><g><path d="M 0.65625 0 L 0.65625 -6 L 2.28125 -6 L 2.28125 0 Z M 0.65625 0 "/></g></g><g transform="translate(132.23447, 47.267205)"><g><path d="M 3.484375 0 L 3.484375 -2.53125 C 3.484375 -2.84375 3.4375 -3.078125 3.34375 -3.234375 C 3.257812 -3.390625 3.117188 -3.46875 2.921875 -3.46875 C 2.648438 -3.46875 2.453125 -3.359375 2.328125 -3.140625 C 2.210938 -2.929688 2.15625 -2.5625 2.15625 -2.03125 L 2.15625 0 L 0.546875 0 L 0.546875 -4.65625 L 1.765625 -4.65625 L 1.96875 -4.078125 L 2.0625 -4.078125 C 2.195312 -4.296875 2.382812 -4.457031 2.625 -4.5625 C 2.875 -4.675781 3.15625 -4.734375 3.46875 -4.734375 C 3.976562 -4.734375 4.375 -4.582031 4.65625 -4.28125 C 4.945312 -3.988281 5.09375 -3.570312 5.09375 -3.03125 L 5.09375 0 Z M 3.484375 0 "/></g></g><g transform="translate(137.868395, 47.267205)"><g/></g><g transform="translate(140.052978, 47.267205)"><g><path d="M 5 -4.09375 C 5 -3.425781 4.800781 -2.90625 4.40625 -2.53125 C 4.007812 -2.164062 3.445312 -1.984375 2.71875 -1.984375 L 2.265625 -1.984375 L 2.265625 0 L 0.65625 0 L 0.65625 -6 L 2.71875 -6 C 3.476562 -6 4.046875 -5.832031 4.421875 -5.5 C 4.804688 -5.164062 5 -4.695312 5 -4.09375 Z M 2.265625 -3.3125 L 2.5625 -3.3125 C 2.8125 -3.3125 3.003906 -3.378906 3.140625 -3.515625 C 3.285156 -3.648438 3.359375 -3.835938 3.359375 -4.078125 C 3.359375 -4.484375 3.132812 -4.6875 2.6875 -4.6875 L 2.265625 -4.6875 Z M 2.265625 -3.3125 "/></g></g><g transform="translate(145.366607, 47.267205)"><g><path d="M 2.15625 0 L 0.546875 0 L 0.546875 -6.390625 L 2.15625 -6.390625 Z M 2.15625 0 "/></g></g><g transform="translate(148.085017, 47.267205)"><g><path d="M 3.59375 0 L 3.28125 -0.609375 L 3.25 -0.609375 C 3.03125 -0.347656 2.804688 -0.164062 2.578125 -0.0625 C 2.359375 0.03125 2.070312 0.078125 1.71875 0.078125 C 1.28125 0.078125 0.929688 -0.0507812 0.671875 -0.3125 C 0.421875 -0.570312 0.296875 -0.941406 0.296875 -1.421875 C 0.296875 -1.910156 0.46875 -2.273438 0.8125 -2.515625 C 1.164062 -2.765625 1.664062 -2.90625 2.3125 -2.9375 L 3.09375 -2.953125 L 3.09375 -3.03125 C 3.09375 -3.40625 2.90625 -3.59375 2.53125 -3.59375 C 2.1875 -3.59375 1.753906 -3.476562 1.234375 -3.25 L 0.765625 -4.3125 C 1.304688 -4.59375 1.992188 -4.734375 2.828125 -4.734375 C 3.421875 -4.734375 3.878906 -4.582031 4.203125 -4.28125 C 4.535156 -3.988281 4.703125 -3.578125 4.703125 -3.046875 L 4.703125 0 Z M 2.390625 -1.046875 C 2.585938 -1.046875 2.753906 -1.109375 2.890625 -1.234375 C 3.035156 -1.359375 3.109375 -1.519531 3.109375 -1.71875 L 3.109375 -2.078125 L 2.734375 -2.0625 C 2.203125 -2.039062 1.9375 -1.847656 1.9375 -1.484375 C 1.9375 -1.191406 2.085938 -1.046875 2.390625 -1.046875 Z M 2.390625 -1.046875 "/></g></g><g transform="translate(153.324731, 47.267205)"><g><path d="M -0.015625 -4.65625 L 1.6875 -4.65625 L 2.46875 -1.984375 C 2.507812 -1.835938 2.535156 -1.671875 2.546875 -1.484375 L 2.578125 -1.484375 C 2.597656 -1.671875 2.632812 -1.832031 2.6875 -1.96875 L 3.484375 -4.65625 L 5.125 -4.65625 L 3.28125 0.296875 C 3.050781 0.921875 2.765625 1.363281 2.421875 1.625 C 2.078125 1.882812 1.628906 2.015625 1.078125 2.015625 C 0.859375 2.015625 0.640625 1.992188 0.421875 1.953125 L 0.421875 0.6875 C 0.566406 0.71875 0.734375 0.734375 0.921875 0.734375 C 1.054688 0.734375 1.175781 0.707031 1.28125 0.65625 C 1.394531 0.601562 1.488281 0.523438 1.5625 0.421875 C 1.644531 0.328125 1.734375 0.164062 1.828125 -0.0625 Z M -0.015625 -4.65625 "/></g></g><g transform="translate(158.453574, 47.267205)"><g/></g><g transform="translate(160.638157, 47.267205)"><g><path d="M 4.6875 0 L 4.28125 -0.421875 C 4.03125 -0.265625 3.828125 -0.15625 3.671875 -0.09375 C 3.515625 -0.0390625 3.335938 0 3.140625 0.03125 C 2.941406 0.0625 2.71875 0.078125 2.46875 0.078125 C 2.039062 0.078125 1.660156 0.00390625 1.328125 -0.140625 C 0.992188 -0.285156 0.738281 -0.488281 0.5625 -0.75 C 0.382812 -1.019531 0.296875 -1.328125 0.296875 -1.671875 C 0.296875 -2.378906 0.664062 -2.925781 1.40625 -3.3125 C 1.238281 -3.5 1.109375 -3.703125 1.015625 -3.921875 C 0.921875 -4.140625 0.875 -4.382812 0.875 -4.65625 C 0.875 -5.09375 1.039062 -5.4375 1.375 -5.6875 C 1.71875 -5.945312 2.1875 -6.078125 2.78125 -6.078125 C 3.351562 -6.078125 3.800781 -5.945312 4.125 -5.6875 C 4.445312 -5.4375 4.609375 -5.09375 4.609375 -4.65625 C 4.609375 -4.34375 4.519531 -4.054688 4.34375 -3.796875 C 4.164062 -3.546875 3.890625 -3.304688 3.515625 -3.078125 L 4.34375 -2.296875 C 4.539062 -2.617188 4.679688 -2.976562 4.765625 -3.375 L 6.4375 -3.375 C 6.351562 -2.988281 6.222656 -2.609375 6.046875 -2.234375 C 5.867188 -1.859375 5.671875 -1.535156 5.453125 -1.265625 L 6.765625 0 Z M 1.953125 -1.78125 C 1.953125 -1.601562 2.007812 -1.457031 2.125 -1.34375 C 2.25 -1.238281 2.414062 -1.1875 2.625 -1.1875 C 2.78125 -1.1875 2.914062 -1.207031 3.03125 -1.25 C 3.144531 -1.289062 3.234375 -1.335938 3.296875 -1.390625 L 2.28125 -2.4375 C 2.0625 -2.257812 1.953125 -2.039062 1.953125 -1.78125 Z M 3.15625 -4.65625 C 3.15625 -4.789062 3.113281 -4.882812 3.03125 -4.9375 C 2.957031 -5 2.863281 -5.03125 2.75 -5.03125 C 2.632812 -5.03125 2.53125 -4.992188 2.4375 -4.921875 C 2.351562 -4.859375 2.3125 -4.75 2.3125 -4.59375 C 2.3125 -4.394531 2.4375 -4.1875 2.6875 -3.96875 C 2.84375 -4.050781 2.957031 -4.148438 3.03125 -4.265625 C 3.113281 -4.390625 3.15625 -4.519531 3.15625 -4.65625 Z M 3.15625 -4.65625 "/></g></g><g transform="translate(167.356161, 47.267205)"><g/></g><g transform="translate(169.540744, 47.267205)"><g><path d="M 5.75 -3.125 C 5.75 -2.125 5.472656 -1.351562 4.921875 -0.8125 C 4.367188 -0.269531 3.59375 0 2.59375 0 L 0.65625 0 L 0.65625 -6 L 2.71875 -6 C 3.6875 -6 4.429688 -5.75 4.953125 -5.25 C 5.484375 -4.757812 5.75 -4.050781 5.75 -3.125 Z M 4.0625 -3.0625 C 4.0625 -3.613281 3.953125 -4.019531 3.734375 -4.28125 C 3.515625 -4.550781 3.179688 -4.6875 2.734375 -4.6875 L 2.265625 -4.6875 L 2.265625 -1.328125 L 2.625 -1.328125 C 3.125 -1.328125 3.488281 -1.46875 3.71875 -1.75 C 3.945312 -2.039062 4.0625 -2.476562 4.0625 -3.0625 Z M 4.0625 -3.0625 "/></g></g><g transform="translate(175.712602, 47.267205)"><g><path d="M 3.359375 -4.734375 C 3.503906 -4.734375 3.640625 -4.722656 3.765625 -4.703125 L 3.84375 -4.6875 L 3.703125 -3.171875 C 3.578125 -3.203125 3.394531 -3.21875 3.15625 -3.21875 C 2.8125 -3.21875 2.554688 -3.132812 2.390625 -2.96875 C 2.234375 -2.8125 2.15625 -2.582031 2.15625 -2.28125 L 2.15625 0 L 0.546875 0 L 0.546875 -4.65625 L 1.75 -4.65625 L 2 -3.90625 L 2.078125 -3.90625 C 2.210938 -4.15625 2.398438 -4.351562 2.640625 -4.5 C 2.878906 -4.65625 3.117188 -4.734375 3.359375 -4.734375 Z M 3.359375 -4.734375 "/></g></g><g transform="translate(179.658814, 47.267205)"><g><path d="M 2.171875 0 L 0.5625 0 L 0.5625 -4.65625 L 2.171875 -4.65625 Z M 0.515625 -5.8125 C 0.515625 -6.050781 0.582031 -6.226562 0.71875 -6.34375 C 0.851562 -6.457031 1.070312 -6.515625 1.375 -6.515625 C 1.664062 -6.515625 1.878906 -6.453125 2.015625 -6.328125 C 2.160156 -6.210938 2.234375 -6.039062 2.234375 -5.8125 C 2.234375 -5.34375 1.945312 -5.109375 1.375 -5.109375 C 0.800781 -5.109375 0.515625 -5.34375 0.515625 -5.8125 Z M 0.515625 -5.8125 "/></g></g><g transform="translate(182.393649, 47.267205)"><g><path d="M 2.15625 0 L 0.546875 0 L 0.546875 -6.390625 L 2.15625 -6.390625 Z M 2.15625 0 "/></g></g><g transform="translate(185.112059, 47.267205)"><g><path d="M 2.15625 0 L 0.546875 0 L 0.546875 -6.390625 L 2.15625 -6.390625 Z M 2.15625 0 "/></g></g><g transform="translate(187.830469, 47.267205)"><g/></g><g transform="translate(190.015052, 47.267205)"><g><path d="M 3.328125 -4.75 C 2.929688 -4.75 2.625 -4.59375 2.40625 -4.28125 C 2.195312 -3.96875 2.09375 -3.53125 2.09375 -2.96875 C 2.09375 -1.820312 2.53125 -1.25 3.40625 -1.25 C 3.675781 -1.25 3.9375 -1.285156 4.1875 -1.359375 C 4.4375 -1.429688 4.6875 -1.519531 4.9375 -1.625 L 4.9375 -0.25 C 4.4375 -0.03125 3.867188 0.078125 3.234375 0.078125 C 2.328125 0.078125 1.628906 -0.179688 1.140625 -0.703125 C 0.660156 -1.234375 0.421875 -1.992188 0.421875 -2.984375 C 0.421875 -3.609375 0.535156 -4.15625 0.765625 -4.625 C 1.003906 -5.09375 1.34375 -5.453125 1.78125 -5.703125 C 2.226562 -5.960938 2.75 -6.09375 3.34375 -6.09375 C 3.988281 -6.09375 4.609375 -5.953125 5.203125 -5.671875 L 4.703125 -4.390625 C 4.484375 -4.492188 4.257812 -4.578125 4.03125 -4.640625 C 3.8125 -4.710938 3.578125 -4.75 3.328125 -4.75 Z M 3.328125 -4.75 "/></g></g><g transform="translate(195.472403, 47.267205)"><g><path d="M 3.59375 0 L 3.28125 -0.609375 L 3.25 -0.609375 C 3.03125 -0.347656 2.804688 -0.164062 2.578125 -0.0625 C 2.359375 0.03125 2.070312 0.078125 1.71875 0.078125 C 1.28125 0.078125 0.929688 -0.0507812 0.671875 -0.3125 C 0.421875 -0.570312 0.296875 -0.941406 0.296875 -1.421875 C 0.296875 -1.910156 0.46875 -2.273438 0.8125 -2.515625 C 1.164062 -2.765625 1.664062 -2.90625 2.3125 -2.9375 L 3.09375 -2.953125 L 3.09375 -3.03125 C 3.09375 -3.40625 2.90625 -3.59375 2.53125 -3.59375 C 2.1875 -3.59375 1.753906 -3.476562 1.234375 -3.25 L 0.765625 -4.3125 C 1.304688 -4.59375 1.992188 -4.734375 2.828125 -4.734375 C 3.421875 -4.734375 3.878906 -4.582031 4.203125 -4.28125 C 4.535156 -3.988281 4.703125 -3.578125 4.703125 -3.046875 L 4.703125 0 Z M 2.390625 -1.046875 C 2.585938 -1.046875 2.753906 -1.109375 2.890625 -1.234375 C 3.035156 -1.359375 3.109375 -1.519531 3.109375 -1.71875 L 3.109375 -2.078125 L 2.734375 -2.0625 C 2.203125 -2.039062 1.9375 -1.847656 1.9375 -1.484375 C 1.9375 -1.191406 2.085938 -1.046875 2.390625 -1.046875 Z M 2.390625 -1.046875 "/></g></g><g transform="translate(200.712118, 47.267205)"><g><path d="M 2.15625 0 L 0.546875 0 L 0.546875 -6.390625 L 2.15625 -6.390625 Z M 2.15625 0 "/></g></g><g transform="translate(203.430528, 47.267205)"><g><path d="M 2.671875 0.078125 C 1.910156 0.078125 1.332031 -0.125 0.9375 -0.53125 C 0.550781 -0.945312 0.359375 -1.535156 0.359375 -2.296875 C 0.359375 -3.066406 0.566406 -3.664062 0.984375 -4.09375 C 1.410156 -4.519531 2.015625 -4.734375 2.796875 -4.734375 C 3.335938 -4.734375 3.847656 -4.613281 4.328125 -4.375 L 3.84375 -3.1875 C 3.65625 -3.28125 3.476562 -3.347656 3.3125 -3.390625 C 3.144531 -3.441406 2.972656 -3.46875 2.796875 -3.46875 C 2.535156 -3.46875 2.332031 -3.363281 2.1875 -3.15625 C 2.050781 -2.957031 1.984375 -2.675781 1.984375 -2.3125 C 1.984375 -1.5625 2.257812 -1.1875 2.8125 -1.1875 C 3.28125 -1.1875 3.726562 -1.328125 4.15625 -1.609375 L 4.15625 -0.328125 C 3.75 -0.0546875 3.253906 0.078125 2.671875 0.078125 Z M 2.671875 0.078125 "/></g></g><g transform="translate(207.963948, 47.267205)"><g><path d="M 3.859375 0 L 3.671875 -0.578125 L 3.578125 -0.578125 C 3.441406 -0.367188 3.253906 -0.207031 3.015625 -0.09375 C 2.773438 0.0195312 2.492188 0.078125 2.171875 0.078125 C 1.660156 0.078125 1.257812 -0.0664062 0.96875 -0.359375 C 0.6875 -0.660156 0.546875 -1.082031 0.546875 -1.625 L 0.546875 -4.65625 L 2.15625 -4.65625 L 2.15625 -2.109375 C 2.15625 -1.804688 2.195312 -1.578125 2.28125 -1.421875 C 2.363281 -1.265625 2.503906 -1.1875 2.703125 -1.1875 C 2.984375 -1.1875 3.179688 -1.296875 3.296875 -1.515625 C 3.410156 -1.734375 3.46875 -2.097656 3.46875 -2.609375 L 3.46875 -4.65625 L 5.078125 -4.65625 L 5.078125 0 Z M 3.859375 0 "/></g></g><g transform="translate(213.597873, 47.267205)"><g><path d="M 2.15625 0 L 0.546875 0 L 0.546875 -6.390625 L 2.15625 -6.390625 Z M 2.15625 0 "/></g></g><g transform="translate(216.316283, 47.267205)"><g><path d="M 3.59375 0 L 3.28125 -0.609375 L 3.25 -0.609375 C 3.03125 -0.347656 2.804688 -0.164062 2.578125 -0.0625 C 2.359375 0.03125 2.070312 0.078125 1.71875 0.078125 C 1.28125 0.078125 0.929688 -0.0507812 0.671875 -0.3125 C 0.421875 -0.570312 0.296875 -0.941406 0.296875 -1.421875 C 0.296875 -1.910156 0.46875 -2.273438 0.8125 -2.515625 C 1.164062 -2.765625 1.664062 -2.90625 2.3125 -2.9375 L 3.09375 -2.953125 L 3.09375 -3.03125 C 3.09375 -3.40625 2.90625 -3.59375 2.53125 -3.59375 C 2.1875 -3.59375 1.753906 -3.476562 1.234375 -3.25 L 0.765625 -4.3125 C 1.304688 -4.59375 1.992188 -4.734375 2.828125 -4.734375 C 3.421875 -4.734375 3.878906 -4.582031 4.203125 -4.28125 C 4.535156 -3.988281 4.703125 -3.578125 4.703125 -3.046875 L 4.703125 0 Z M 2.390625 -1.046875 C 2.585938 -1.046875 2.753906 -1.109375 2.890625 -1.234375 C 3.035156 -1.359375 3.109375 -1.519531 3.109375 -1.71875 L 3.109375 -2.078125 L 2.734375 -2.0625 C 2.203125 -2.039062 1.9375 -1.847656 1.9375 -1.484375 C 1.9375 -1.191406 2.085938 -1.046875 2.390625 -1.046875 Z M 2.390625 -1.046875 "/></g></g><g transform="translate(221.555998, 47.267205)"><g><path d="M 2.828125 -1.1875 C 3.046875 -1.1875 3.304688 -1.238281 3.609375 -1.34375 L 3.609375 -0.171875 C 3.390625 -0.078125 3.179688 -0.015625 2.984375 0.015625 C 2.796875 0.0546875 2.566406 0.078125 2.296875 0.078125 C 1.765625 0.078125 1.378906 -0.0507812 1.140625 -0.3125 C 0.898438 -0.570312 0.78125 -0.976562 0.78125 -1.53125 L 0.78125 -3.453125 L 0.21875 -3.453125 L 0.21875 -4.09375 L 0.9375 -4.609375 L 1.34375 -5.578125 L 2.390625 -5.578125 L 2.390625 -4.65625 L 3.53125 -4.65625 L 3.53125 -3.453125 L 2.390625 -3.453125 L 2.390625 -1.640625 C 2.390625 -1.335938 2.535156 -1.1875 2.828125 -1.1875 Z M 2.828125 -1.1875 "/></g></g><g transform="translate(225.424188, 47.267205)"><g><path d="M 5 -2.328125 C 5 -1.566406 4.789062 -0.972656 4.375 -0.546875 C 3.96875 -0.128906 3.394531 0.078125 2.65625 0.078125 C 1.957031 0.078125 1.398438 -0.132812 0.984375 -0.5625 C 0.566406 -1 0.359375 -1.585938 0.359375 -2.328125 C 0.359375 -3.085938 0.5625 -3.675781 0.96875 -4.09375 C 1.375 -4.519531 1.945312 -4.734375 2.6875 -4.734375 C 3.144531 -4.734375 3.546875 -4.632812 3.890625 -4.4375 C 4.242188 -4.25 4.515625 -3.972656 4.703125 -3.609375 C 4.898438 -3.242188 5 -2.816406 5 -2.328125 Z M 1.984375 -2.328125 C 1.984375 -1.929688 2.035156 -1.628906 2.140625 -1.421875 C 2.242188 -1.210938 2.425781 -1.109375 2.6875 -1.109375 C 2.925781 -1.109375 3.097656 -1.210938 3.203125 -1.421875 C 3.304688 -1.628906 3.359375 -1.929688 3.359375 -2.328125 C 3.359375 -2.734375 3.304688 -3.035156 3.203125 -3.234375 C 3.097656 -3.429688 2.921875 -3.53125 2.671875 -3.53125 C 2.421875 -3.53125 2.242188 -3.429688 2.140625 -3.234375 C 2.035156 -3.035156 1.984375 -2.734375 1.984375 -2.328125 Z M 1.984375 -2.328125 "/></g></g><g transform="translate(230.782987, 47.267205)"><g><path d="M 3.359375 -4.734375 C 3.503906 -4.734375 3.640625 -4.722656 3.765625 -4.703125 L 3.84375 -4.6875 L 3.703125 -3.171875 C 3.578125 -3.203125 3.394531 -3.21875 3.15625 -3.21875 C 2.8125 -3.21875 2.554688 -3.132812 2.390625 -2.96875 C 2.234375 -2.8125 2.15625 -2.582031 2.15625 -2.28125 L 2.15625 0 L 0.546875 0 L 0.546875 -4.65625 L 1.75 -4.65625 L 2 -3.90625 L 2.078125 -3.90625 C 2.210938 -4.15625 2.398438 -4.351562 2.640625 -4.5 C 2.878906 -4.65625 3.117188 -4.734375 3.359375 -4.734375 Z M 3.359375 -4.734375 "/></g></g></g><g fill="#b93229" fill-opacity="0.4"><g transform="translate(132.01424, 69.061167)"><g/></g></g><g fill="#ffffff" fill-opacity="1"><g transform="translate(131.244837, 68.291765)"><g/></g></g><g clip-path="url(#9619a65e6c)"><path fill="#ffffff" d="M 105.914062 42.753906 L 37.3125 42.753906 C 35.957031 42.753906 34.863281 43.929688 34.863281 45.378906 C 34.863281 46.828125 35.957031 48.003906 37.3125 48.003906 L 105.914062 48.003906 C 107.269531 48.003906 108.363281 46.828125 108.363281 45.378906 C 108.363281 43.929688 107.269531 42.753906 105.914062 42.753906 Z M 105.914062 42.753906 " fill-opacity="1" fill-rule="nonzero"/></g></svg>